G04 #@! TF.GenerationSoftware,KiCad,Pcbnew,5.0.2*
G04 #@! TF.CreationDate,2019-07-25T16:39:25-03:00*
G04 #@! TF.ProjectId,ShieldEduIfspSTM32,53686965-6c64-4456-9475-496673705354,rev?*
G04 #@! TF.SameCoordinates,Original*
G04 #@! TF.FileFunction,Soldermask,Bot*
G04 #@! TF.FilePolarity,Negative*
%FSLAX46Y46*%
G04 Gerber Fmt 4.6, Leading zero omitted, Abs format (unit mm)*
G04 Created by KiCad (PCBNEW 5.0.2) date qui 25 jul 2019 16:39:25 -03*
%MOMM*%
%LPD*%
G01*
G04 APERTURE LIST*
%ADD10C,0.100000*%
G04 APERTURE END LIST*
D10*
G36*
X120306565Y-113489389D02*
X120497834Y-113568615D01*
X120669976Y-113683637D01*
X120816363Y-113830024D01*
X120931385Y-114002166D01*
X121010611Y-114193435D01*
X121051000Y-114396484D01*
X121051000Y-114603516D01*
X121010611Y-114806565D01*
X120931385Y-114997834D01*
X120816363Y-115169976D01*
X120669976Y-115316363D01*
X120497834Y-115431385D01*
X120306565Y-115510611D01*
X120103516Y-115551000D01*
X119896484Y-115551000D01*
X119693435Y-115510611D01*
X119502166Y-115431385D01*
X119330024Y-115316363D01*
X119183637Y-115169976D01*
X119068615Y-114997834D01*
X118989389Y-114806565D01*
X118949000Y-114603516D01*
X118949000Y-114396484D01*
X118989389Y-114193435D01*
X119068615Y-114002166D01*
X119183637Y-113830024D01*
X119330024Y-113683637D01*
X119502166Y-113568615D01*
X119693435Y-113489389D01*
X119896484Y-113449000D01*
X120103516Y-113449000D01*
X120306565Y-113489389D01*
X120306565Y-113489389D01*
G37*
G36*
X125306565Y-113489389D02*
X125497834Y-113568615D01*
X125669976Y-113683637D01*
X125816363Y-113830024D01*
X125931385Y-114002166D01*
X126010611Y-114193435D01*
X126051000Y-114396484D01*
X126051000Y-114603516D01*
X126010611Y-114806565D01*
X125931385Y-114997834D01*
X125816363Y-115169976D01*
X125669976Y-115316363D01*
X125497834Y-115431385D01*
X125306565Y-115510611D01*
X125103516Y-115551000D01*
X124896484Y-115551000D01*
X124693435Y-115510611D01*
X124502166Y-115431385D01*
X124330024Y-115316363D01*
X124183637Y-115169976D01*
X124068615Y-114997834D01*
X123989389Y-114806565D01*
X123949000Y-114603516D01*
X123949000Y-114396484D01*
X123989389Y-114193435D01*
X124068615Y-114002166D01*
X124183637Y-113830024D01*
X124330024Y-113683637D01*
X124502166Y-113568615D01*
X124693435Y-113489389D01*
X124896484Y-113449000D01*
X125103516Y-113449000D01*
X125306565Y-113489389D01*
X125306565Y-113489389D01*
G37*
G36*
X113806565Y-113489389D02*
X113997834Y-113568615D01*
X114169976Y-113683637D01*
X114316363Y-113830024D01*
X114431385Y-114002166D01*
X114510611Y-114193435D01*
X114551000Y-114396484D01*
X114551000Y-114603516D01*
X114510611Y-114806565D01*
X114431385Y-114997834D01*
X114316363Y-115169976D01*
X114169976Y-115316363D01*
X113997834Y-115431385D01*
X113806565Y-115510611D01*
X113603516Y-115551000D01*
X113396484Y-115551000D01*
X113193435Y-115510611D01*
X113002166Y-115431385D01*
X112830024Y-115316363D01*
X112683637Y-115169976D01*
X112568615Y-114997834D01*
X112489389Y-114806565D01*
X112449000Y-114603516D01*
X112449000Y-114396484D01*
X112489389Y-114193435D01*
X112568615Y-114002166D01*
X112683637Y-113830024D01*
X112830024Y-113683637D01*
X113002166Y-113568615D01*
X113193435Y-113489389D01*
X113396484Y-113449000D01*
X113603516Y-113449000D01*
X113806565Y-113489389D01*
X113806565Y-113489389D01*
G37*
G36*
X131806565Y-113489389D02*
X131997834Y-113568615D01*
X132169976Y-113683637D01*
X132316363Y-113830024D01*
X132431385Y-114002166D01*
X132510611Y-114193435D01*
X132551000Y-114396484D01*
X132551000Y-114603516D01*
X132510611Y-114806565D01*
X132431385Y-114997834D01*
X132316363Y-115169976D01*
X132169976Y-115316363D01*
X131997834Y-115431385D01*
X131806565Y-115510611D01*
X131603516Y-115551000D01*
X131396484Y-115551000D01*
X131193435Y-115510611D01*
X131002166Y-115431385D01*
X130830024Y-115316363D01*
X130683637Y-115169976D01*
X130568615Y-114997834D01*
X130489389Y-114806565D01*
X130449000Y-114603516D01*
X130449000Y-114396484D01*
X130489389Y-114193435D01*
X130568615Y-114002166D01*
X130683637Y-113830024D01*
X130830024Y-113683637D01*
X131002166Y-113568615D01*
X131193435Y-113489389D01*
X131396484Y-113449000D01*
X131603516Y-113449000D01*
X131806565Y-113489389D01*
X131806565Y-113489389D01*
G37*
G36*
X137907025Y-113210590D02*
X138058012Y-113256392D01*
X138197165Y-113330770D01*
X138319133Y-113430867D01*
X138419230Y-113552835D01*
X138493608Y-113691988D01*
X138539410Y-113842975D01*
X138554875Y-114000000D01*
X138539410Y-114157025D01*
X138493608Y-114308012D01*
X138419230Y-114447165D01*
X138319133Y-114569133D01*
X138197165Y-114669230D01*
X138058012Y-114743608D01*
X137907025Y-114789410D01*
X137789346Y-114801000D01*
X136210654Y-114801000D01*
X136092975Y-114789410D01*
X135941988Y-114743608D01*
X135802835Y-114669230D01*
X135680867Y-114569133D01*
X135580770Y-114447165D01*
X135506392Y-114308012D01*
X135460590Y-114157025D01*
X135445125Y-114000000D01*
X135460590Y-113842975D01*
X135506392Y-113691988D01*
X135580770Y-113552835D01*
X135680867Y-113430867D01*
X135802835Y-113330770D01*
X135941988Y-113256392D01*
X136092975Y-113210590D01*
X136210654Y-113199000D01*
X137789346Y-113199000D01*
X137907025Y-113210590D01*
X137907025Y-113210590D01*
G37*
G36*
X143907025Y-113210590D02*
X144058012Y-113256392D01*
X144197165Y-113330770D01*
X144319133Y-113430867D01*
X144419230Y-113552835D01*
X144493608Y-113691988D01*
X144539410Y-113842975D01*
X144554875Y-114000000D01*
X144539410Y-114157025D01*
X144493608Y-114308012D01*
X144419230Y-114447165D01*
X144319133Y-114569133D01*
X144197165Y-114669230D01*
X144058012Y-114743608D01*
X143907025Y-114789410D01*
X143789346Y-114801000D01*
X142210654Y-114801000D01*
X142092975Y-114789410D01*
X141941988Y-114743608D01*
X141802835Y-114669230D01*
X141680867Y-114569133D01*
X141580770Y-114447165D01*
X141506392Y-114308012D01*
X141460590Y-114157025D01*
X141445125Y-114000000D01*
X141460590Y-113842975D01*
X141506392Y-113691988D01*
X141580770Y-113552835D01*
X141680867Y-113430867D01*
X141802835Y-113330770D01*
X141941988Y-113256392D01*
X142092975Y-113210590D01*
X142210654Y-113199000D01*
X143789346Y-113199000D01*
X143907025Y-113210590D01*
X143907025Y-113210590D01*
G37*
G36*
X200308445Y-109766254D02*
X200656593Y-109835504D01*
X201066249Y-110005189D01*
X201434929Y-110251534D01*
X201748466Y-110565071D01*
X201994811Y-110933751D01*
X202164496Y-111343407D01*
X202251000Y-111778296D01*
X202251000Y-112221704D01*
X202164496Y-112656593D01*
X201994811Y-113066249D01*
X201748466Y-113434929D01*
X201434929Y-113748466D01*
X201066249Y-113994811D01*
X200656593Y-114164496D01*
X200308445Y-114233746D01*
X200221706Y-114251000D01*
X199778294Y-114251000D01*
X199691555Y-114233746D01*
X199343407Y-114164496D01*
X198933751Y-113994811D01*
X198565071Y-113748466D01*
X198251534Y-113434929D01*
X198005189Y-113066249D01*
X197835504Y-112656593D01*
X197749000Y-112221704D01*
X197749000Y-111778296D01*
X197835504Y-111343407D01*
X198005189Y-110933751D01*
X198251534Y-110565071D01*
X198565071Y-110251534D01*
X198933751Y-110005189D01*
X199343407Y-109835504D01*
X199691555Y-109766254D01*
X199778294Y-109749000D01*
X200221706Y-109749000D01*
X200308445Y-109766254D01*
X200308445Y-109766254D01*
G37*
G36*
X108308445Y-109766254D02*
X108656593Y-109835504D01*
X109066249Y-110005189D01*
X109434929Y-110251534D01*
X109748466Y-110565071D01*
X109994811Y-110933751D01*
X110164496Y-111343407D01*
X110251000Y-111778296D01*
X110251000Y-112221704D01*
X110164496Y-112656593D01*
X109994811Y-113066249D01*
X109748466Y-113434929D01*
X109434929Y-113748466D01*
X109066249Y-113994811D01*
X108656593Y-114164496D01*
X108308445Y-114233746D01*
X108221706Y-114251000D01*
X107778294Y-114251000D01*
X107691555Y-114233746D01*
X107343407Y-114164496D01*
X106933751Y-113994811D01*
X106565071Y-113748466D01*
X106251534Y-113434929D01*
X106005189Y-113066249D01*
X105835504Y-112656593D01*
X105749000Y-112221704D01*
X105749000Y-111778296D01*
X105835504Y-111343407D01*
X106005189Y-110933751D01*
X106251534Y-110565071D01*
X106565071Y-110251534D01*
X106933751Y-110005189D01*
X107343407Y-109835504D01*
X107691555Y-109766254D01*
X107778294Y-109749000D01*
X108221706Y-109749000D01*
X108308445Y-109766254D01*
X108308445Y-109766254D01*
G37*
G36*
X152301500Y-108971190D02*
X152301503Y-108971191D01*
X152593844Y-109059871D01*
X152593847Y-109059873D01*
X152593848Y-109059873D01*
X152863266Y-109203879D01*
X153099416Y-109397684D01*
X153293221Y-109633834D01*
X153437227Y-109903252D01*
X153437229Y-109903256D01*
X153468150Y-110005191D01*
X153525910Y-110195600D01*
X153548350Y-110423438D01*
X153548350Y-111576562D01*
X153525910Y-111804400D01*
X153525909Y-111804402D01*
X153525909Y-111804403D01*
X153437229Y-112096744D01*
X153437227Y-112096747D01*
X153437227Y-112096748D01*
X153293221Y-112366166D01*
X153099416Y-112602316D01*
X152863265Y-112796121D01*
X152593847Y-112940127D01*
X152593843Y-112940129D01*
X152331504Y-113019708D01*
X152301499Y-113028810D01*
X151997480Y-113058753D01*
X151693460Y-113028810D01*
X151663455Y-113019708D01*
X151401116Y-112940129D01*
X151401112Y-112940127D01*
X151131694Y-112796121D01*
X150895544Y-112602316D01*
X150701739Y-112366165D01*
X150557733Y-112096747D01*
X150557732Y-112096744D01*
X150557731Y-112096743D01*
X150469051Y-111804402D01*
X150469050Y-111804399D01*
X150446610Y-111576561D01*
X150446610Y-110423438D01*
X150469050Y-110195600D01*
X150526810Y-110005191D01*
X150557731Y-109903256D01*
X150701740Y-109633834D01*
X150895545Y-109397684D01*
X150977985Y-109330027D01*
X151131695Y-109203879D01*
X151401113Y-109059873D01*
X151401114Y-109059873D01*
X151401117Y-109059871D01*
X151693458Y-108971191D01*
X151693461Y-108971190D01*
X151997480Y-108941247D01*
X152301500Y-108971190D01*
X152301500Y-108971190D01*
G37*
G36*
X162304020Y-108971190D02*
X162304023Y-108971191D01*
X162596364Y-109059871D01*
X162596367Y-109059873D01*
X162596368Y-109059873D01*
X162865786Y-109203879D01*
X163101936Y-109397684D01*
X163295741Y-109633834D01*
X163439747Y-109903252D01*
X163439749Y-109903256D01*
X163470670Y-110005191D01*
X163528430Y-110195600D01*
X163550870Y-110423438D01*
X163550870Y-111576562D01*
X163528430Y-111804400D01*
X163528429Y-111804402D01*
X163528429Y-111804403D01*
X163439749Y-112096744D01*
X163439747Y-112096747D01*
X163439747Y-112096748D01*
X163295741Y-112366166D01*
X163101936Y-112602316D01*
X162865785Y-112796121D01*
X162596367Y-112940127D01*
X162596363Y-112940129D01*
X162334024Y-113019708D01*
X162304019Y-113028810D01*
X162000000Y-113058753D01*
X161695980Y-113028810D01*
X161665975Y-113019708D01*
X161403636Y-112940129D01*
X161403632Y-112940127D01*
X161134214Y-112796121D01*
X160898064Y-112602316D01*
X160704259Y-112366165D01*
X160560253Y-112096747D01*
X160560252Y-112096744D01*
X160560251Y-112096743D01*
X160471571Y-111804402D01*
X160471570Y-111804399D01*
X160449130Y-111576561D01*
X160449130Y-110423438D01*
X160471570Y-110195600D01*
X160529330Y-110005191D01*
X160560251Y-109903256D01*
X160704260Y-109633834D01*
X160898065Y-109397684D01*
X160980505Y-109330027D01*
X161134215Y-109203879D01*
X161403633Y-109059873D01*
X161403634Y-109059873D01*
X161403637Y-109059871D01*
X161695978Y-108971191D01*
X161695981Y-108971190D01*
X162000000Y-108941247D01*
X162304020Y-108971190D01*
X162304020Y-108971190D01*
G37*
G36*
X157302760Y-108971190D02*
X157302763Y-108971191D01*
X157595104Y-109059871D01*
X157595107Y-109059873D01*
X157595108Y-109059873D01*
X157864526Y-109203879D01*
X158100676Y-109397684D01*
X158294481Y-109633834D01*
X158438487Y-109903252D01*
X158438489Y-109903256D01*
X158469410Y-110005191D01*
X158527170Y-110195600D01*
X158549610Y-110423438D01*
X158549610Y-111576562D01*
X158527170Y-111804400D01*
X158527169Y-111804402D01*
X158527169Y-111804403D01*
X158438489Y-112096744D01*
X158438487Y-112096747D01*
X158438487Y-112096748D01*
X158294481Y-112366166D01*
X158100676Y-112602316D01*
X157864525Y-112796121D01*
X157595107Y-112940127D01*
X157595103Y-112940129D01*
X157332764Y-113019708D01*
X157302759Y-113028810D01*
X156998740Y-113058753D01*
X156694720Y-113028810D01*
X156664715Y-113019708D01*
X156402376Y-112940129D01*
X156402372Y-112940127D01*
X156132954Y-112796121D01*
X155896804Y-112602316D01*
X155702999Y-112366165D01*
X155558993Y-112096747D01*
X155558992Y-112096744D01*
X155558991Y-112096743D01*
X155470311Y-111804402D01*
X155470310Y-111804399D01*
X155447870Y-111576561D01*
X155447870Y-110423438D01*
X155470310Y-110195600D01*
X155528070Y-110005191D01*
X155558991Y-109903256D01*
X155703000Y-109633834D01*
X155896805Y-109397684D01*
X155979245Y-109330027D01*
X156132955Y-109203879D01*
X156402373Y-109059873D01*
X156402374Y-109059873D01*
X156402377Y-109059871D01*
X156694718Y-108971191D01*
X156694721Y-108971190D01*
X156998740Y-108941247D01*
X157302760Y-108971190D01*
X157302760Y-108971190D01*
G37*
G36*
X143907025Y-110710590D02*
X144058012Y-110756392D01*
X144197165Y-110830770D01*
X144319133Y-110930867D01*
X144419230Y-111052835D01*
X144493608Y-111191988D01*
X144539410Y-111342975D01*
X144554875Y-111500000D01*
X144539410Y-111657025D01*
X144493608Y-111808012D01*
X144419230Y-111947165D01*
X144319133Y-112069133D01*
X144197165Y-112169230D01*
X144058012Y-112243608D01*
X143907025Y-112289410D01*
X143789346Y-112301000D01*
X142210654Y-112301000D01*
X142092975Y-112289410D01*
X141941988Y-112243608D01*
X141802835Y-112169230D01*
X141680867Y-112069133D01*
X141580770Y-111947165D01*
X141506392Y-111808012D01*
X141460590Y-111657025D01*
X141445125Y-111500000D01*
X141460590Y-111342975D01*
X141506392Y-111191988D01*
X141580770Y-111052835D01*
X141680867Y-110930867D01*
X141802835Y-110830770D01*
X141941988Y-110756392D01*
X142092975Y-110710590D01*
X142210654Y-110699000D01*
X143789346Y-110699000D01*
X143907025Y-110710590D01*
X143907025Y-110710590D01*
G37*
G36*
X137907025Y-110710590D02*
X138058012Y-110756392D01*
X138197165Y-110830770D01*
X138319133Y-110930867D01*
X138419230Y-111052835D01*
X138493608Y-111191988D01*
X138539410Y-111342975D01*
X138554875Y-111500000D01*
X138539410Y-111657025D01*
X138493608Y-111808012D01*
X138419230Y-111947165D01*
X138319133Y-112069133D01*
X138197165Y-112169230D01*
X138058012Y-112243608D01*
X137907025Y-112289410D01*
X137789346Y-112301000D01*
X136210654Y-112301000D01*
X136092975Y-112289410D01*
X135941988Y-112243608D01*
X135802835Y-112169230D01*
X135680867Y-112069133D01*
X135580770Y-111947165D01*
X135506392Y-111808012D01*
X135460590Y-111657025D01*
X135445125Y-111500000D01*
X135460590Y-111342975D01*
X135506392Y-111191988D01*
X135580770Y-111052835D01*
X135680867Y-110930867D01*
X135802835Y-110830770D01*
X135941988Y-110756392D01*
X136092975Y-110710590D01*
X136210654Y-110699000D01*
X137789346Y-110699000D01*
X137907025Y-110710590D01*
X137907025Y-110710590D01*
G37*
G36*
X125306565Y-108989389D02*
X125497834Y-109068615D01*
X125669976Y-109183637D01*
X125816363Y-109330024D01*
X125931385Y-109502166D01*
X126010611Y-109693435D01*
X126051000Y-109896484D01*
X126051000Y-110103516D01*
X126010611Y-110306565D01*
X125931385Y-110497834D01*
X125816363Y-110669976D01*
X125669976Y-110816363D01*
X125497834Y-110931385D01*
X125306565Y-111010611D01*
X125103516Y-111051000D01*
X124896484Y-111051000D01*
X124693435Y-111010611D01*
X124502166Y-110931385D01*
X124330024Y-110816363D01*
X124183637Y-110669976D01*
X124068615Y-110497834D01*
X123989389Y-110306565D01*
X123949000Y-110103516D01*
X123949000Y-109896484D01*
X123989389Y-109693435D01*
X124068615Y-109502166D01*
X124183637Y-109330024D01*
X124330024Y-109183637D01*
X124502166Y-109068615D01*
X124693435Y-108989389D01*
X124896484Y-108949000D01*
X125103516Y-108949000D01*
X125306565Y-108989389D01*
X125306565Y-108989389D01*
G37*
G36*
X120306565Y-108989389D02*
X120497834Y-109068615D01*
X120669976Y-109183637D01*
X120816363Y-109330024D01*
X120931385Y-109502166D01*
X121010611Y-109693435D01*
X121051000Y-109896484D01*
X121051000Y-110103516D01*
X121010611Y-110306565D01*
X120931385Y-110497834D01*
X120816363Y-110669976D01*
X120669976Y-110816363D01*
X120497834Y-110931385D01*
X120306565Y-111010611D01*
X120103516Y-111051000D01*
X119896484Y-111051000D01*
X119693435Y-111010611D01*
X119502166Y-110931385D01*
X119330024Y-110816363D01*
X119183637Y-110669976D01*
X119068615Y-110497834D01*
X118989389Y-110306565D01*
X118949000Y-110103516D01*
X118949000Y-109896484D01*
X118989389Y-109693435D01*
X119068615Y-109502166D01*
X119183637Y-109330024D01*
X119330024Y-109183637D01*
X119502166Y-109068615D01*
X119693435Y-108989389D01*
X119896484Y-108949000D01*
X120103516Y-108949000D01*
X120306565Y-108989389D01*
X120306565Y-108989389D01*
G37*
G36*
X113806565Y-108989389D02*
X113997834Y-109068615D01*
X114169976Y-109183637D01*
X114316363Y-109330024D01*
X114431385Y-109502166D01*
X114510611Y-109693435D01*
X114551000Y-109896484D01*
X114551000Y-110103516D01*
X114510611Y-110306565D01*
X114431385Y-110497834D01*
X114316363Y-110669976D01*
X114169976Y-110816363D01*
X113997834Y-110931385D01*
X113806565Y-111010611D01*
X113603516Y-111051000D01*
X113396484Y-111051000D01*
X113193435Y-111010611D01*
X113002166Y-110931385D01*
X112830024Y-110816363D01*
X112683637Y-110669976D01*
X112568615Y-110497834D01*
X112489389Y-110306565D01*
X112449000Y-110103516D01*
X112449000Y-109896484D01*
X112489389Y-109693435D01*
X112568615Y-109502166D01*
X112683637Y-109330024D01*
X112830024Y-109183637D01*
X113002166Y-109068615D01*
X113193435Y-108989389D01*
X113396484Y-108949000D01*
X113603516Y-108949000D01*
X113806565Y-108989389D01*
X113806565Y-108989389D01*
G37*
G36*
X131806565Y-108989389D02*
X131997834Y-109068615D01*
X132169976Y-109183637D01*
X132316363Y-109330024D01*
X132431385Y-109502166D01*
X132510611Y-109693435D01*
X132551000Y-109896484D01*
X132551000Y-110103516D01*
X132510611Y-110306565D01*
X132431385Y-110497834D01*
X132316363Y-110669976D01*
X132169976Y-110816363D01*
X131997834Y-110931385D01*
X131806565Y-111010611D01*
X131603516Y-111051000D01*
X131396484Y-111051000D01*
X131193435Y-111010611D01*
X131002166Y-110931385D01*
X130830024Y-110816363D01*
X130683637Y-110669976D01*
X130568615Y-110497834D01*
X130489389Y-110306565D01*
X130449000Y-110103516D01*
X130449000Y-109896484D01*
X130489389Y-109693435D01*
X130568615Y-109502166D01*
X130683637Y-109330024D01*
X130830024Y-109183637D01*
X131002166Y-109068615D01*
X131193435Y-108989389D01*
X131396484Y-108949000D01*
X131603516Y-108949000D01*
X131806565Y-108989389D01*
X131806565Y-108989389D01*
G37*
G36*
X171813000Y-109813000D02*
X170187000Y-109813000D01*
X170187000Y-106409000D01*
X171813000Y-106409000D01*
X171813000Y-109813000D01*
X171813000Y-109813000D01*
G37*
G36*
X137189890Y-108374017D02*
X137308361Y-108423089D01*
X137414992Y-108494338D01*
X137505662Y-108585008D01*
X137576911Y-108691639D01*
X137625983Y-108810110D01*
X137651000Y-108935881D01*
X137651000Y-109064119D01*
X137625983Y-109189890D01*
X137576911Y-109308361D01*
X137505662Y-109414992D01*
X137414992Y-109505662D01*
X137308361Y-109576911D01*
X137189890Y-109625983D01*
X137064119Y-109651000D01*
X136935881Y-109651000D01*
X136810110Y-109625983D01*
X136691639Y-109576911D01*
X136585008Y-109505662D01*
X136494338Y-109414992D01*
X136423089Y-109308361D01*
X136374017Y-109189890D01*
X136349000Y-109064119D01*
X136349000Y-108935881D01*
X136374017Y-108810110D01*
X136423089Y-108691639D01*
X136494338Y-108585008D01*
X136585008Y-108494338D01*
X136691639Y-108423089D01*
X136810110Y-108374017D01*
X136935881Y-108349000D01*
X137064119Y-108349000D01*
X137189890Y-108374017D01*
X137189890Y-108374017D01*
G37*
G36*
X143189890Y-108374017D02*
X143308361Y-108423089D01*
X143414992Y-108494338D01*
X143505662Y-108585008D01*
X143576911Y-108691639D01*
X143625983Y-108810110D01*
X143651000Y-108935881D01*
X143651000Y-109064119D01*
X143625983Y-109189890D01*
X143576911Y-109308361D01*
X143505662Y-109414992D01*
X143414992Y-109505662D01*
X143308361Y-109576911D01*
X143189890Y-109625983D01*
X143064119Y-109651000D01*
X142935881Y-109651000D01*
X142810110Y-109625983D01*
X142691639Y-109576911D01*
X142585008Y-109505662D01*
X142494338Y-109414992D01*
X142423089Y-109308361D01*
X142374017Y-109189890D01*
X142349000Y-109064119D01*
X142349000Y-108935881D01*
X142374017Y-108810110D01*
X142423089Y-108691639D01*
X142494338Y-108585008D01*
X142585008Y-108494338D01*
X142691639Y-108423089D01*
X142810110Y-108374017D01*
X142935881Y-108349000D01*
X143064119Y-108349000D01*
X143189890Y-108374017D01*
X143189890Y-108374017D01*
G37*
G36*
X182462400Y-106896000D02*
X180860400Y-106896000D01*
X180860400Y-105294000D01*
X182462400Y-105294000D01*
X182462400Y-106896000D01*
X182462400Y-106896000D01*
G37*
G36*
X184435043Y-105324781D02*
X184580815Y-105385162D01*
X184712011Y-105472824D01*
X184823576Y-105584389D01*
X184911238Y-105715585D01*
X184971619Y-105861357D01*
X185002400Y-106016107D01*
X185002400Y-106173893D01*
X184971619Y-106328643D01*
X184911238Y-106474415D01*
X184823576Y-106605611D01*
X184712011Y-106717176D01*
X184580815Y-106804838D01*
X184435043Y-106865219D01*
X184280293Y-106896000D01*
X184122507Y-106896000D01*
X183967757Y-106865219D01*
X183821985Y-106804838D01*
X183690789Y-106717176D01*
X183579224Y-106605611D01*
X183491562Y-106474415D01*
X183431181Y-106328643D01*
X183400400Y-106173893D01*
X183400400Y-106016107D01*
X183431181Y-105861357D01*
X183491562Y-105715585D01*
X183579224Y-105584389D01*
X183690789Y-105472824D01*
X183821985Y-105385162D01*
X183967757Y-105324781D01*
X184122507Y-105294000D01*
X184280293Y-105294000D01*
X184435043Y-105324781D01*
X184435043Y-105324781D01*
G37*
G36*
X189515043Y-105324781D02*
X189660815Y-105385162D01*
X189792011Y-105472824D01*
X189903576Y-105584389D01*
X189991238Y-105715585D01*
X190051619Y-105861357D01*
X190082400Y-106016107D01*
X190082400Y-106173893D01*
X190051619Y-106328643D01*
X189991238Y-106474415D01*
X189903576Y-106605611D01*
X189792011Y-106717176D01*
X189660815Y-106804838D01*
X189515043Y-106865219D01*
X189360293Y-106896000D01*
X189202507Y-106896000D01*
X189047757Y-106865219D01*
X188901985Y-106804838D01*
X188770789Y-106717176D01*
X188659224Y-106605611D01*
X188571562Y-106474415D01*
X188511181Y-106328643D01*
X188480400Y-106173893D01*
X188480400Y-106016107D01*
X188511181Y-105861357D01*
X188571562Y-105715585D01*
X188659224Y-105584389D01*
X188770789Y-105472824D01*
X188901985Y-105385162D01*
X189047757Y-105324781D01*
X189202507Y-105294000D01*
X189360293Y-105294000D01*
X189515043Y-105324781D01*
X189515043Y-105324781D01*
G37*
G36*
X194595043Y-105324781D02*
X194740815Y-105385162D01*
X194872011Y-105472824D01*
X194983576Y-105584389D01*
X195071238Y-105715585D01*
X195131619Y-105861357D01*
X195162400Y-106016107D01*
X195162400Y-106173893D01*
X195131619Y-106328643D01*
X195071238Y-106474415D01*
X194983576Y-106605611D01*
X194872011Y-106717176D01*
X194740815Y-106804838D01*
X194595043Y-106865219D01*
X194440293Y-106896000D01*
X194282507Y-106896000D01*
X194127757Y-106865219D01*
X193981985Y-106804838D01*
X193850789Y-106717176D01*
X193739224Y-106605611D01*
X193651562Y-106474415D01*
X193591181Y-106328643D01*
X193560400Y-106173893D01*
X193560400Y-106016107D01*
X193591181Y-105861357D01*
X193651562Y-105715585D01*
X193739224Y-105584389D01*
X193850789Y-105472824D01*
X193981985Y-105385162D01*
X194127757Y-105324781D01*
X194282507Y-105294000D01*
X194440293Y-105294000D01*
X194595043Y-105324781D01*
X194595043Y-105324781D01*
G37*
G36*
X186975043Y-105324781D02*
X187120815Y-105385162D01*
X187252011Y-105472824D01*
X187363576Y-105584389D01*
X187451238Y-105715585D01*
X187511619Y-105861357D01*
X187542400Y-106016107D01*
X187542400Y-106173893D01*
X187511619Y-106328643D01*
X187451238Y-106474415D01*
X187363576Y-106605611D01*
X187252011Y-106717176D01*
X187120815Y-106804838D01*
X186975043Y-106865219D01*
X186820293Y-106896000D01*
X186662507Y-106896000D01*
X186507757Y-106865219D01*
X186361985Y-106804838D01*
X186230789Y-106717176D01*
X186119224Y-106605611D01*
X186031562Y-106474415D01*
X185971181Y-106328643D01*
X185940400Y-106173893D01*
X185940400Y-106016107D01*
X185971181Y-105861357D01*
X186031562Y-105715585D01*
X186119224Y-105584389D01*
X186230789Y-105472824D01*
X186361985Y-105385162D01*
X186507757Y-105324781D01*
X186662507Y-105294000D01*
X186820293Y-105294000D01*
X186975043Y-105324781D01*
X186975043Y-105324781D01*
G37*
G36*
X192055043Y-105324781D02*
X192200815Y-105385162D01*
X192332011Y-105472824D01*
X192443576Y-105584389D01*
X192531238Y-105715585D01*
X192591619Y-105861357D01*
X192622400Y-106016107D01*
X192622400Y-106173893D01*
X192591619Y-106328643D01*
X192531238Y-106474415D01*
X192443576Y-106605611D01*
X192332011Y-106717176D01*
X192200815Y-106804838D01*
X192055043Y-106865219D01*
X191900293Y-106896000D01*
X191742507Y-106896000D01*
X191587757Y-106865219D01*
X191441985Y-106804838D01*
X191310789Y-106717176D01*
X191199224Y-106605611D01*
X191111562Y-106474415D01*
X191051181Y-106328643D01*
X191020400Y-106173893D01*
X191020400Y-106016107D01*
X191051181Y-105861357D01*
X191111562Y-105715585D01*
X191199224Y-105584389D01*
X191310789Y-105472824D01*
X191441985Y-105385162D01*
X191587757Y-105324781D01*
X191742507Y-105294000D01*
X191900293Y-105294000D01*
X192055043Y-105324781D01*
X192055043Y-105324781D01*
G37*
G36*
X166551000Y-102051000D02*
X164449000Y-102051000D01*
X164449000Y-99949000D01*
X166551000Y-99949000D01*
X166551000Y-102051000D01*
X166551000Y-102051000D01*
G37*
G36*
X124887142Y-98838242D02*
X125035102Y-98899530D01*
X125168258Y-98988502D01*
X125281498Y-99101742D01*
X125370470Y-99234898D01*
X125431758Y-99382858D01*
X125463000Y-99539925D01*
X125463000Y-99700075D01*
X125431758Y-99857142D01*
X125370470Y-100005102D01*
X125281498Y-100138258D01*
X125168258Y-100251498D01*
X125035102Y-100340470D01*
X124887142Y-100401758D01*
X124730075Y-100433000D01*
X124569925Y-100433000D01*
X124412858Y-100401758D01*
X124264898Y-100340470D01*
X124131742Y-100251498D01*
X124018502Y-100138258D01*
X123929530Y-100005102D01*
X123868242Y-99857142D01*
X123837000Y-99700075D01*
X123837000Y-99539925D01*
X123868242Y-99382858D01*
X123929530Y-99234898D01*
X124018502Y-99101742D01*
X124131742Y-98988502D01*
X124264898Y-98899530D01*
X124412858Y-98838242D01*
X124569925Y-98807000D01*
X124730075Y-98807000D01*
X124887142Y-98838242D01*
X124887142Y-98838242D01*
G37*
G36*
X127427142Y-98838242D02*
X127575102Y-98899530D01*
X127708258Y-98988502D01*
X127821498Y-99101742D01*
X127910470Y-99234898D01*
X127971758Y-99382858D01*
X128003000Y-99539925D01*
X128003000Y-99700075D01*
X127971758Y-99857142D01*
X127910470Y-100005102D01*
X127821498Y-100138258D01*
X127708258Y-100251498D01*
X127575102Y-100340470D01*
X127427142Y-100401758D01*
X127270075Y-100433000D01*
X127109925Y-100433000D01*
X126952858Y-100401758D01*
X126804898Y-100340470D01*
X126671742Y-100251498D01*
X126558502Y-100138258D01*
X126469530Y-100005102D01*
X126408242Y-99857142D01*
X126377000Y-99700075D01*
X126377000Y-99539925D01*
X126408242Y-99382858D01*
X126469530Y-99234898D01*
X126558502Y-99101742D01*
X126671742Y-98988502D01*
X126804898Y-98899530D01*
X126952858Y-98838242D01*
X127109925Y-98807000D01*
X127270075Y-98807000D01*
X127427142Y-98838242D01*
X127427142Y-98838242D01*
G37*
G36*
X122347142Y-98838242D02*
X122495102Y-98899530D01*
X122628258Y-98988502D01*
X122741498Y-99101742D01*
X122830470Y-99234898D01*
X122891758Y-99382858D01*
X122923000Y-99539925D01*
X122923000Y-99700075D01*
X122891758Y-99857142D01*
X122830470Y-100005102D01*
X122741498Y-100138258D01*
X122628258Y-100251498D01*
X122495102Y-100340470D01*
X122347142Y-100401758D01*
X122190075Y-100433000D01*
X122029925Y-100433000D01*
X121872858Y-100401758D01*
X121724898Y-100340470D01*
X121591742Y-100251498D01*
X121478502Y-100138258D01*
X121389530Y-100005102D01*
X121328242Y-99857142D01*
X121297000Y-99700075D01*
X121297000Y-99539925D01*
X121328242Y-99382858D01*
X121389530Y-99234898D01*
X121478502Y-99101742D01*
X121591742Y-98988502D01*
X121724898Y-98899530D01*
X121872858Y-98838242D01*
X122029925Y-98807000D01*
X122190075Y-98807000D01*
X122347142Y-98838242D01*
X122347142Y-98838242D01*
G37*
G36*
X119807142Y-98838242D02*
X119955102Y-98899530D01*
X120088258Y-98988502D01*
X120201498Y-99101742D01*
X120290470Y-99234898D01*
X120351758Y-99382858D01*
X120383000Y-99539925D01*
X120383000Y-99700075D01*
X120351758Y-99857142D01*
X120290470Y-100005102D01*
X120201498Y-100138258D01*
X120088258Y-100251498D01*
X119955102Y-100340470D01*
X119807142Y-100401758D01*
X119650075Y-100433000D01*
X119489925Y-100433000D01*
X119332858Y-100401758D01*
X119184898Y-100340470D01*
X119051742Y-100251498D01*
X118938502Y-100138258D01*
X118849530Y-100005102D01*
X118788242Y-99857142D01*
X118757000Y-99700075D01*
X118757000Y-99539925D01*
X118788242Y-99382858D01*
X118849530Y-99234898D01*
X118938502Y-99101742D01*
X119051742Y-98988502D01*
X119184898Y-98899530D01*
X119332858Y-98838242D01*
X119489925Y-98807000D01*
X119650075Y-98807000D01*
X119807142Y-98838242D01*
X119807142Y-98838242D01*
G37*
G36*
X117267142Y-98838242D02*
X117415102Y-98899530D01*
X117548258Y-98988502D01*
X117661498Y-99101742D01*
X117750470Y-99234898D01*
X117811758Y-99382858D01*
X117843000Y-99539925D01*
X117843000Y-99700075D01*
X117811758Y-99857142D01*
X117750470Y-100005102D01*
X117661498Y-100138258D01*
X117548258Y-100251498D01*
X117415102Y-100340470D01*
X117267142Y-100401758D01*
X117110075Y-100433000D01*
X116949925Y-100433000D01*
X116792858Y-100401758D01*
X116644898Y-100340470D01*
X116511742Y-100251498D01*
X116398502Y-100138258D01*
X116309530Y-100005102D01*
X116248242Y-99857142D01*
X116217000Y-99700075D01*
X116217000Y-99539925D01*
X116248242Y-99382858D01*
X116309530Y-99234898D01*
X116398502Y-99101742D01*
X116511742Y-98988502D01*
X116644898Y-98899530D01*
X116792858Y-98838242D01*
X116949925Y-98807000D01*
X117110075Y-98807000D01*
X117267142Y-98838242D01*
X117267142Y-98838242D01*
G37*
G36*
X112187142Y-98838242D02*
X112335102Y-98899530D01*
X112468258Y-98988502D01*
X112581498Y-99101742D01*
X112670470Y-99234898D01*
X112731758Y-99382858D01*
X112763000Y-99539925D01*
X112763000Y-99700075D01*
X112731758Y-99857142D01*
X112670470Y-100005102D01*
X112581498Y-100138258D01*
X112468258Y-100251498D01*
X112335102Y-100340470D01*
X112187142Y-100401758D01*
X112030075Y-100433000D01*
X111869925Y-100433000D01*
X111712858Y-100401758D01*
X111564898Y-100340470D01*
X111431742Y-100251498D01*
X111318502Y-100138258D01*
X111229530Y-100005102D01*
X111168242Y-99857142D01*
X111137000Y-99700075D01*
X111137000Y-99539925D01*
X111168242Y-99382858D01*
X111229530Y-99234898D01*
X111318502Y-99101742D01*
X111431742Y-98988502D01*
X111564898Y-98899530D01*
X111712858Y-98838242D01*
X111869925Y-98807000D01*
X112030075Y-98807000D01*
X112187142Y-98838242D01*
X112187142Y-98838242D01*
G37*
G36*
X109647142Y-98838242D02*
X109795102Y-98899530D01*
X109928258Y-98988502D01*
X110041498Y-99101742D01*
X110130470Y-99234898D01*
X110191758Y-99382858D01*
X110223000Y-99539925D01*
X110223000Y-99700075D01*
X110191758Y-99857142D01*
X110130470Y-100005102D01*
X110041498Y-100138258D01*
X109928258Y-100251498D01*
X109795102Y-100340470D01*
X109647142Y-100401758D01*
X109490075Y-100433000D01*
X109329925Y-100433000D01*
X109172858Y-100401758D01*
X109024898Y-100340470D01*
X108891742Y-100251498D01*
X108778502Y-100138258D01*
X108689530Y-100005102D01*
X108628242Y-99857142D01*
X108597000Y-99700075D01*
X108597000Y-99539925D01*
X108628242Y-99382858D01*
X108689530Y-99234898D01*
X108778502Y-99101742D01*
X108891742Y-98988502D01*
X109024898Y-98899530D01*
X109172858Y-98838242D01*
X109329925Y-98807000D01*
X109490075Y-98807000D01*
X109647142Y-98838242D01*
X109647142Y-98838242D01*
G37*
G36*
X107107142Y-98838242D02*
X107255102Y-98899530D01*
X107388258Y-98988502D01*
X107501498Y-99101742D01*
X107590470Y-99234898D01*
X107651758Y-99382858D01*
X107683000Y-99539925D01*
X107683000Y-99700075D01*
X107651758Y-99857142D01*
X107590470Y-100005102D01*
X107501498Y-100138258D01*
X107388258Y-100251498D01*
X107255102Y-100340470D01*
X107107142Y-100401758D01*
X106950075Y-100433000D01*
X106789925Y-100433000D01*
X106632858Y-100401758D01*
X106484898Y-100340470D01*
X106351742Y-100251498D01*
X106238502Y-100138258D01*
X106149530Y-100005102D01*
X106088242Y-99857142D01*
X106057000Y-99700075D01*
X106057000Y-99539925D01*
X106088242Y-99382858D01*
X106149530Y-99234898D01*
X106238502Y-99101742D01*
X106351742Y-98988502D01*
X106484898Y-98899530D01*
X106632858Y-98838242D01*
X106789925Y-98807000D01*
X106950075Y-98807000D01*
X107107142Y-98838242D01*
X107107142Y-98838242D01*
G37*
G36*
X114727142Y-98838242D02*
X114875102Y-98899530D01*
X115008258Y-98988502D01*
X115121498Y-99101742D01*
X115210470Y-99234898D01*
X115271758Y-99382858D01*
X115303000Y-99539925D01*
X115303000Y-99700075D01*
X115271758Y-99857142D01*
X115210470Y-100005102D01*
X115121498Y-100138258D01*
X115008258Y-100251498D01*
X114875102Y-100340470D01*
X114727142Y-100401758D01*
X114570075Y-100433000D01*
X114409925Y-100433000D01*
X114252858Y-100401758D01*
X114104898Y-100340470D01*
X113971742Y-100251498D01*
X113858502Y-100138258D01*
X113769530Y-100005102D01*
X113708242Y-99857142D01*
X113677000Y-99700075D01*
X113677000Y-99539925D01*
X113708242Y-99382858D01*
X113769530Y-99234898D01*
X113858502Y-99101742D01*
X113971742Y-98988502D01*
X114104898Y-98899530D01*
X114252858Y-98838242D01*
X114409925Y-98807000D01*
X114570075Y-98807000D01*
X114727142Y-98838242D01*
X114727142Y-98838242D01*
G37*
G36*
X155367142Y-98838242D02*
X155515102Y-98899530D01*
X155648258Y-98988502D01*
X155761498Y-99101742D01*
X155850470Y-99234898D01*
X155911758Y-99382858D01*
X155943000Y-99539925D01*
X155943000Y-99700075D01*
X155911758Y-99857142D01*
X155850470Y-100005102D01*
X155761498Y-100138258D01*
X155648258Y-100251498D01*
X155515102Y-100340470D01*
X155367142Y-100401758D01*
X155210075Y-100433000D01*
X155049925Y-100433000D01*
X154892858Y-100401758D01*
X154744898Y-100340470D01*
X154611742Y-100251498D01*
X154498502Y-100138258D01*
X154409530Y-100005102D01*
X154348242Y-99857142D01*
X154317000Y-99700075D01*
X154317000Y-99539925D01*
X154348242Y-99382858D01*
X154409530Y-99234898D01*
X154498502Y-99101742D01*
X154611742Y-98988502D01*
X154744898Y-98899530D01*
X154892858Y-98838242D01*
X155049925Y-98807000D01*
X155210075Y-98807000D01*
X155367142Y-98838242D01*
X155367142Y-98838242D01*
G37*
G36*
X152827142Y-98838242D02*
X152975102Y-98899530D01*
X153108258Y-98988502D01*
X153221498Y-99101742D01*
X153310470Y-99234898D01*
X153371758Y-99382858D01*
X153403000Y-99539925D01*
X153403000Y-99700075D01*
X153371758Y-99857142D01*
X153310470Y-100005102D01*
X153221498Y-100138258D01*
X153108258Y-100251498D01*
X152975102Y-100340470D01*
X152827142Y-100401758D01*
X152670075Y-100433000D01*
X152509925Y-100433000D01*
X152352858Y-100401758D01*
X152204898Y-100340470D01*
X152071742Y-100251498D01*
X151958502Y-100138258D01*
X151869530Y-100005102D01*
X151808242Y-99857142D01*
X151777000Y-99700075D01*
X151777000Y-99539925D01*
X151808242Y-99382858D01*
X151869530Y-99234898D01*
X151958502Y-99101742D01*
X152071742Y-98988502D01*
X152204898Y-98899530D01*
X152352858Y-98838242D01*
X152509925Y-98807000D01*
X152670075Y-98807000D01*
X152827142Y-98838242D01*
X152827142Y-98838242D01*
G37*
G36*
X150287142Y-98838242D02*
X150435102Y-98899530D01*
X150568258Y-98988502D01*
X150681498Y-99101742D01*
X150770470Y-99234898D01*
X150831758Y-99382858D01*
X150863000Y-99539925D01*
X150863000Y-99700075D01*
X150831758Y-99857142D01*
X150770470Y-100005102D01*
X150681498Y-100138258D01*
X150568258Y-100251498D01*
X150435102Y-100340470D01*
X150287142Y-100401758D01*
X150130075Y-100433000D01*
X149969925Y-100433000D01*
X149812858Y-100401758D01*
X149664898Y-100340470D01*
X149531742Y-100251498D01*
X149418502Y-100138258D01*
X149329530Y-100005102D01*
X149268242Y-99857142D01*
X149237000Y-99700075D01*
X149237000Y-99539925D01*
X149268242Y-99382858D01*
X149329530Y-99234898D01*
X149418502Y-99101742D01*
X149531742Y-98988502D01*
X149664898Y-98899530D01*
X149812858Y-98838242D01*
X149969925Y-98807000D01*
X150130075Y-98807000D01*
X150287142Y-98838242D01*
X150287142Y-98838242D01*
G37*
G36*
X132507142Y-98838242D02*
X132655102Y-98899530D01*
X132788258Y-98988502D01*
X132901498Y-99101742D01*
X132990470Y-99234898D01*
X133051758Y-99382858D01*
X133083000Y-99539925D01*
X133083000Y-99700075D01*
X133051758Y-99857142D01*
X132990470Y-100005102D01*
X132901498Y-100138258D01*
X132788258Y-100251498D01*
X132655102Y-100340470D01*
X132507142Y-100401758D01*
X132350075Y-100433000D01*
X132189925Y-100433000D01*
X132032858Y-100401758D01*
X131884898Y-100340470D01*
X131751742Y-100251498D01*
X131638502Y-100138258D01*
X131549530Y-100005102D01*
X131488242Y-99857142D01*
X131457000Y-99700075D01*
X131457000Y-99539925D01*
X131488242Y-99382858D01*
X131549530Y-99234898D01*
X131638502Y-99101742D01*
X131751742Y-98988502D01*
X131884898Y-98899530D01*
X132032858Y-98838242D01*
X132189925Y-98807000D01*
X132350075Y-98807000D01*
X132507142Y-98838242D01*
X132507142Y-98838242D01*
G37*
G36*
X135047142Y-98838242D02*
X135195102Y-98899530D01*
X135328258Y-98988502D01*
X135441498Y-99101742D01*
X135530470Y-99234898D01*
X135591758Y-99382858D01*
X135623000Y-99539925D01*
X135623000Y-99700075D01*
X135591758Y-99857142D01*
X135530470Y-100005102D01*
X135441498Y-100138258D01*
X135328258Y-100251498D01*
X135195102Y-100340470D01*
X135047142Y-100401758D01*
X134890075Y-100433000D01*
X134729925Y-100433000D01*
X134572858Y-100401758D01*
X134424898Y-100340470D01*
X134291742Y-100251498D01*
X134178502Y-100138258D01*
X134089530Y-100005102D01*
X134028242Y-99857142D01*
X133997000Y-99700075D01*
X133997000Y-99539925D01*
X134028242Y-99382858D01*
X134089530Y-99234898D01*
X134178502Y-99101742D01*
X134291742Y-98988502D01*
X134424898Y-98899530D01*
X134572858Y-98838242D01*
X134729925Y-98807000D01*
X134890075Y-98807000D01*
X135047142Y-98838242D01*
X135047142Y-98838242D01*
G37*
G36*
X137587142Y-98838242D02*
X137735102Y-98899530D01*
X137868258Y-98988502D01*
X137981498Y-99101742D01*
X138070470Y-99234898D01*
X138131758Y-99382858D01*
X138163000Y-99539925D01*
X138163000Y-99700075D01*
X138131758Y-99857142D01*
X138070470Y-100005102D01*
X137981498Y-100138258D01*
X137868258Y-100251498D01*
X137735102Y-100340470D01*
X137587142Y-100401758D01*
X137430075Y-100433000D01*
X137269925Y-100433000D01*
X137112858Y-100401758D01*
X136964898Y-100340470D01*
X136831742Y-100251498D01*
X136718502Y-100138258D01*
X136629530Y-100005102D01*
X136568242Y-99857142D01*
X136537000Y-99700075D01*
X136537000Y-99539925D01*
X136568242Y-99382858D01*
X136629530Y-99234898D01*
X136718502Y-99101742D01*
X136831742Y-98988502D01*
X136964898Y-98899530D01*
X137112858Y-98838242D01*
X137269925Y-98807000D01*
X137430075Y-98807000D01*
X137587142Y-98838242D01*
X137587142Y-98838242D01*
G37*
G36*
X140127142Y-98838242D02*
X140275102Y-98899530D01*
X140408258Y-98988502D01*
X140521498Y-99101742D01*
X140610470Y-99234898D01*
X140671758Y-99382858D01*
X140703000Y-99539925D01*
X140703000Y-99700075D01*
X140671758Y-99857142D01*
X140610470Y-100005102D01*
X140521498Y-100138258D01*
X140408258Y-100251498D01*
X140275102Y-100340470D01*
X140127142Y-100401758D01*
X139970075Y-100433000D01*
X139809925Y-100433000D01*
X139652858Y-100401758D01*
X139504898Y-100340470D01*
X139371742Y-100251498D01*
X139258502Y-100138258D01*
X139169530Y-100005102D01*
X139108242Y-99857142D01*
X139077000Y-99700075D01*
X139077000Y-99539925D01*
X139108242Y-99382858D01*
X139169530Y-99234898D01*
X139258502Y-99101742D01*
X139371742Y-98988502D01*
X139504898Y-98899530D01*
X139652858Y-98838242D01*
X139809925Y-98807000D01*
X139970075Y-98807000D01*
X140127142Y-98838242D01*
X140127142Y-98838242D01*
G37*
G36*
X142667142Y-98838242D02*
X142815102Y-98899530D01*
X142948258Y-98988502D01*
X143061498Y-99101742D01*
X143150470Y-99234898D01*
X143211758Y-99382858D01*
X143243000Y-99539925D01*
X143243000Y-99700075D01*
X143211758Y-99857142D01*
X143150470Y-100005102D01*
X143061498Y-100138258D01*
X142948258Y-100251498D01*
X142815102Y-100340470D01*
X142667142Y-100401758D01*
X142510075Y-100433000D01*
X142349925Y-100433000D01*
X142192858Y-100401758D01*
X142044898Y-100340470D01*
X141911742Y-100251498D01*
X141798502Y-100138258D01*
X141709530Y-100005102D01*
X141648242Y-99857142D01*
X141617000Y-99700075D01*
X141617000Y-99539925D01*
X141648242Y-99382858D01*
X141709530Y-99234898D01*
X141798502Y-99101742D01*
X141911742Y-98988502D01*
X142044898Y-98899530D01*
X142192858Y-98838242D01*
X142349925Y-98807000D01*
X142510075Y-98807000D01*
X142667142Y-98838242D01*
X142667142Y-98838242D01*
G37*
G36*
X145207142Y-98838242D02*
X145355102Y-98899530D01*
X145488258Y-98988502D01*
X145601498Y-99101742D01*
X145690470Y-99234898D01*
X145751758Y-99382858D01*
X145783000Y-99539925D01*
X145783000Y-99700075D01*
X145751758Y-99857142D01*
X145690470Y-100005102D01*
X145601498Y-100138258D01*
X145488258Y-100251498D01*
X145355102Y-100340470D01*
X145207142Y-100401758D01*
X145050075Y-100433000D01*
X144889925Y-100433000D01*
X144732858Y-100401758D01*
X144584898Y-100340470D01*
X144451742Y-100251498D01*
X144338502Y-100138258D01*
X144249530Y-100005102D01*
X144188242Y-99857142D01*
X144157000Y-99700075D01*
X144157000Y-99539925D01*
X144188242Y-99382858D01*
X144249530Y-99234898D01*
X144338502Y-99101742D01*
X144451742Y-98988502D01*
X144584898Y-98899530D01*
X144732858Y-98838242D01*
X144889925Y-98807000D01*
X145050075Y-98807000D01*
X145207142Y-98838242D01*
X145207142Y-98838242D01*
G37*
G36*
X129967142Y-98838242D02*
X130115102Y-98899530D01*
X130248258Y-98988502D01*
X130361498Y-99101742D01*
X130450470Y-99234898D01*
X130511758Y-99382858D01*
X130543000Y-99539925D01*
X130543000Y-99700075D01*
X130511758Y-99857142D01*
X130450470Y-100005102D01*
X130361498Y-100138258D01*
X130248258Y-100251498D01*
X130115102Y-100340470D01*
X129967142Y-100401758D01*
X129810075Y-100433000D01*
X129649925Y-100433000D01*
X129492858Y-100401758D01*
X129344898Y-100340470D01*
X129211742Y-100251498D01*
X129098502Y-100138258D01*
X129009530Y-100005102D01*
X128948242Y-99857142D01*
X128917000Y-99700075D01*
X128917000Y-99539925D01*
X128948242Y-99382858D01*
X129009530Y-99234898D01*
X129098502Y-99101742D01*
X129211742Y-98988502D01*
X129344898Y-98899530D01*
X129492858Y-98838242D01*
X129649925Y-98807000D01*
X129810075Y-98807000D01*
X129967142Y-98838242D01*
X129967142Y-98838242D01*
G37*
G36*
X147747142Y-98838242D02*
X147895102Y-98899530D01*
X148028258Y-98988502D01*
X148141498Y-99101742D01*
X148230470Y-99234898D01*
X148291758Y-99382858D01*
X148323000Y-99539925D01*
X148323000Y-99700075D01*
X148291758Y-99857142D01*
X148230470Y-100005102D01*
X148141498Y-100138258D01*
X148028258Y-100251498D01*
X147895102Y-100340470D01*
X147747142Y-100401758D01*
X147590075Y-100433000D01*
X147429925Y-100433000D01*
X147272858Y-100401758D01*
X147124898Y-100340470D01*
X146991742Y-100251498D01*
X146878502Y-100138258D01*
X146789530Y-100005102D01*
X146728242Y-99857142D01*
X146697000Y-99700075D01*
X146697000Y-99539925D01*
X146728242Y-99382858D01*
X146789530Y-99234898D01*
X146878502Y-99101742D01*
X146991742Y-98988502D01*
X147124898Y-98899530D01*
X147272858Y-98838242D01*
X147429925Y-98807000D01*
X147590075Y-98807000D01*
X147747142Y-98838242D01*
X147747142Y-98838242D01*
G37*
G36*
X155251000Y-97431000D02*
X153149000Y-97431000D01*
X153149000Y-96729000D01*
X155251000Y-96729000D01*
X155251000Y-97431000D01*
X155251000Y-97431000D01*
G37*
G36*
X145851000Y-97431000D02*
X143749000Y-97431000D01*
X143749000Y-96729000D01*
X145851000Y-96729000D01*
X145851000Y-97431000D01*
X145851000Y-97431000D01*
G37*
G36*
X181975100Y-95164781D02*
X182120872Y-95225162D01*
X182252068Y-95312824D01*
X182363633Y-95424389D01*
X182451295Y-95555585D01*
X182511676Y-95701357D01*
X182542457Y-95856107D01*
X182542457Y-96013893D01*
X182511676Y-96168643D01*
X182451295Y-96314415D01*
X182363633Y-96445611D01*
X182252068Y-96557176D01*
X182120872Y-96644838D01*
X181975100Y-96705219D01*
X181820350Y-96736000D01*
X181662564Y-96736000D01*
X181507814Y-96705219D01*
X181362042Y-96644838D01*
X181230846Y-96557176D01*
X181119281Y-96445611D01*
X181031619Y-96314415D01*
X180971238Y-96168643D01*
X180940457Y-96013893D01*
X180940457Y-95856107D01*
X180971238Y-95701357D01*
X181031619Y-95555585D01*
X181119281Y-95424389D01*
X181230846Y-95312824D01*
X181362042Y-95225162D01*
X181507814Y-95164781D01*
X181662564Y-95134000D01*
X181820350Y-95134000D01*
X181975100Y-95164781D01*
X181975100Y-95164781D01*
G37*
G36*
X194595043Y-95164781D02*
X194740815Y-95225162D01*
X194872011Y-95312824D01*
X194983576Y-95424389D01*
X195071238Y-95555585D01*
X195131619Y-95701357D01*
X195162400Y-95856107D01*
X195162400Y-96013893D01*
X195131619Y-96168643D01*
X195071238Y-96314415D01*
X194983576Y-96445611D01*
X194872011Y-96557176D01*
X194740815Y-96644838D01*
X194595043Y-96705219D01*
X194440293Y-96736000D01*
X194282507Y-96736000D01*
X194127757Y-96705219D01*
X193981985Y-96644838D01*
X193850789Y-96557176D01*
X193739224Y-96445611D01*
X193651562Y-96314415D01*
X193591181Y-96168643D01*
X193560400Y-96013893D01*
X193560400Y-95856107D01*
X193591181Y-95701357D01*
X193651562Y-95555585D01*
X193739224Y-95424389D01*
X193850789Y-95312824D01*
X193981985Y-95225162D01*
X194127757Y-95164781D01*
X194282507Y-95134000D01*
X194440293Y-95134000D01*
X194595043Y-95164781D01*
X194595043Y-95164781D01*
G37*
G36*
X192055043Y-95164781D02*
X192200815Y-95225162D01*
X192332011Y-95312824D01*
X192443576Y-95424389D01*
X192531238Y-95555585D01*
X192591619Y-95701357D01*
X192622400Y-95856107D01*
X192622400Y-96013893D01*
X192591619Y-96168643D01*
X192531238Y-96314415D01*
X192443576Y-96445611D01*
X192332011Y-96557176D01*
X192200815Y-96644838D01*
X192055043Y-96705219D01*
X191900293Y-96736000D01*
X191742507Y-96736000D01*
X191587757Y-96705219D01*
X191441985Y-96644838D01*
X191310789Y-96557176D01*
X191199224Y-96445611D01*
X191111562Y-96314415D01*
X191051181Y-96168643D01*
X191020400Y-96013893D01*
X191020400Y-95856107D01*
X191051181Y-95701357D01*
X191111562Y-95555585D01*
X191199224Y-95424389D01*
X191310789Y-95312824D01*
X191441985Y-95225162D01*
X191587757Y-95164781D01*
X191742507Y-95134000D01*
X191900293Y-95134000D01*
X192055043Y-95164781D01*
X192055043Y-95164781D01*
G37*
G36*
X186975043Y-95164781D02*
X187120815Y-95225162D01*
X187252011Y-95312824D01*
X187363576Y-95424389D01*
X187451238Y-95555585D01*
X187511619Y-95701357D01*
X187542400Y-95856107D01*
X187542400Y-96013893D01*
X187511619Y-96168643D01*
X187451238Y-96314415D01*
X187363576Y-96445611D01*
X187252011Y-96557176D01*
X187120815Y-96644838D01*
X186975043Y-96705219D01*
X186820293Y-96736000D01*
X186662507Y-96736000D01*
X186507757Y-96705219D01*
X186361985Y-96644838D01*
X186230789Y-96557176D01*
X186119224Y-96445611D01*
X186031562Y-96314415D01*
X185971181Y-96168643D01*
X185940400Y-96013893D01*
X185940400Y-95856107D01*
X185971181Y-95701357D01*
X186031562Y-95555585D01*
X186119224Y-95424389D01*
X186230789Y-95312824D01*
X186361985Y-95225162D01*
X186507757Y-95164781D01*
X186662507Y-95134000D01*
X186820293Y-95134000D01*
X186975043Y-95164781D01*
X186975043Y-95164781D01*
G37*
G36*
X184435043Y-95164781D02*
X184580815Y-95225162D01*
X184712011Y-95312824D01*
X184823576Y-95424389D01*
X184911238Y-95555585D01*
X184971619Y-95701357D01*
X185002400Y-95856107D01*
X185002400Y-96013893D01*
X184971619Y-96168643D01*
X184911238Y-96314415D01*
X184823576Y-96445611D01*
X184712011Y-96557176D01*
X184580815Y-96644838D01*
X184435043Y-96705219D01*
X184280293Y-96736000D01*
X184122507Y-96736000D01*
X183967757Y-96705219D01*
X183821985Y-96644838D01*
X183690789Y-96557176D01*
X183579224Y-96445611D01*
X183491562Y-96314415D01*
X183431181Y-96168643D01*
X183400400Y-96013893D01*
X183400400Y-95856107D01*
X183431181Y-95701357D01*
X183491562Y-95555585D01*
X183579224Y-95424389D01*
X183690789Y-95312824D01*
X183821985Y-95225162D01*
X183967757Y-95164781D01*
X184122507Y-95134000D01*
X184280293Y-95134000D01*
X184435043Y-95164781D01*
X184435043Y-95164781D01*
G37*
G36*
X189515043Y-95164781D02*
X189660815Y-95225162D01*
X189792011Y-95312824D01*
X189903576Y-95424389D01*
X189991238Y-95555585D01*
X190051619Y-95701357D01*
X190082400Y-95856107D01*
X190082400Y-96013893D01*
X190051619Y-96168643D01*
X189991238Y-96314415D01*
X189903576Y-96445611D01*
X189792011Y-96557176D01*
X189660815Y-96644838D01*
X189515043Y-96705219D01*
X189360293Y-96736000D01*
X189202507Y-96736000D01*
X189047757Y-96705219D01*
X188901985Y-96644838D01*
X188770789Y-96557176D01*
X188659224Y-96445611D01*
X188571562Y-96314415D01*
X188511181Y-96168643D01*
X188480400Y-96013893D01*
X188480400Y-95856107D01*
X188511181Y-95701357D01*
X188571562Y-95555585D01*
X188659224Y-95424389D01*
X188770789Y-95312824D01*
X188901985Y-95225162D01*
X189047757Y-95164781D01*
X189202507Y-95134000D01*
X189360293Y-95134000D01*
X189515043Y-95164781D01*
X189515043Y-95164781D01*
G37*
G36*
X155251000Y-96161000D02*
X153149000Y-96161000D01*
X153149000Y-95459000D01*
X155251000Y-95459000D01*
X155251000Y-96161000D01*
X155251000Y-96161000D01*
G37*
G36*
X145851000Y-96161000D02*
X143749000Y-96161000D01*
X143749000Y-95459000D01*
X145851000Y-95459000D01*
X145851000Y-96161000D01*
X145851000Y-96161000D01*
G37*
G36*
X123313000Y-95313000D02*
X119909000Y-95313000D01*
X119909000Y-93687000D01*
X123313000Y-93687000D01*
X123313000Y-95313000D01*
X123313000Y-95313000D01*
G37*
G36*
X155251000Y-94891000D02*
X153149000Y-94891000D01*
X153149000Y-94189000D01*
X155251000Y-94189000D01*
X155251000Y-94891000D01*
X155251000Y-94891000D01*
G37*
G36*
X145851000Y-94891000D02*
X143749000Y-94891000D01*
X143749000Y-94189000D01*
X145851000Y-94189000D01*
X145851000Y-94891000D01*
X145851000Y-94891000D01*
G37*
G36*
X117756000Y-94626000D02*
X117054000Y-94626000D01*
X117054000Y-92974000D01*
X117756000Y-92974000D01*
X117756000Y-94626000D01*
X117756000Y-94626000D01*
G37*
G36*
X115216000Y-94626000D02*
X114514000Y-94626000D01*
X114514000Y-92974000D01*
X115216000Y-92974000D01*
X115216000Y-94626000D01*
X115216000Y-94626000D01*
G37*
G36*
X116486000Y-94626000D02*
X115784000Y-94626000D01*
X115784000Y-92974000D01*
X116486000Y-92974000D01*
X116486000Y-94626000D01*
X116486000Y-94626000D01*
G37*
G36*
X113946000Y-94626000D02*
X113244000Y-94626000D01*
X113244000Y-92974000D01*
X113946000Y-92974000D01*
X113946000Y-94626000D01*
X113946000Y-94626000D01*
G37*
G36*
X165806565Y-92389389D02*
X165997834Y-92468615D01*
X166169976Y-92583637D01*
X166316363Y-92730024D01*
X166431385Y-92902166D01*
X166510611Y-93093435D01*
X166551000Y-93296484D01*
X166551000Y-93503516D01*
X166510611Y-93706565D01*
X166431385Y-93897834D01*
X166316363Y-94069976D01*
X166169976Y-94216363D01*
X165997834Y-94331385D01*
X165806565Y-94410611D01*
X165603516Y-94451000D01*
X165396484Y-94451000D01*
X165193435Y-94410611D01*
X165002166Y-94331385D01*
X164830024Y-94216363D01*
X164683637Y-94069976D01*
X164568615Y-93897834D01*
X164489389Y-93706565D01*
X164449000Y-93503516D01*
X164449000Y-93296484D01*
X164489389Y-93093435D01*
X164568615Y-92902166D01*
X164683637Y-92730024D01*
X164830024Y-92583637D01*
X165002166Y-92468615D01*
X165193435Y-92389389D01*
X165396484Y-92349000D01*
X165603516Y-92349000D01*
X165806565Y-92389389D01*
X165806565Y-92389389D01*
G37*
G36*
X155251000Y-93621000D02*
X153149000Y-93621000D01*
X153149000Y-92919000D01*
X155251000Y-92919000D01*
X155251000Y-93621000D01*
X155251000Y-93621000D01*
G37*
G36*
X145851000Y-93621000D02*
X143749000Y-93621000D01*
X143749000Y-92919000D01*
X145851000Y-92919000D01*
X145851000Y-93621000D01*
X145851000Y-93621000D01*
G37*
G36*
X123313000Y-92713000D02*
X119909000Y-92713000D01*
X119909000Y-91087000D01*
X123313000Y-91087000D01*
X123313000Y-92713000D01*
X123313000Y-92713000D01*
G37*
G36*
X155251000Y-92351000D02*
X153149000Y-92351000D01*
X153149000Y-91649000D01*
X155251000Y-91649000D01*
X155251000Y-92351000D01*
X155251000Y-92351000D01*
G37*
G36*
X145851000Y-92351000D02*
X143749000Y-92351000D01*
X143749000Y-91649000D01*
X145851000Y-91649000D01*
X145851000Y-92351000D01*
X145851000Y-92351000D01*
G37*
G36*
X145851000Y-91081000D02*
X143749000Y-91081000D01*
X143749000Y-90379000D01*
X145851000Y-90379000D01*
X145851000Y-91081000D01*
X145851000Y-91081000D01*
G37*
G36*
X155251000Y-91081000D02*
X153149000Y-91081000D01*
X153149000Y-90379000D01*
X155251000Y-90379000D01*
X155251000Y-91081000D01*
X155251000Y-91081000D01*
G37*
G36*
X145851000Y-89811000D02*
X143749000Y-89811000D01*
X143749000Y-89109000D01*
X145851000Y-89109000D01*
X145851000Y-89811000D01*
X145851000Y-89811000D01*
G37*
G36*
X155251000Y-89811000D02*
X153149000Y-89811000D01*
X153149000Y-89109000D01*
X155251000Y-89109000D01*
X155251000Y-89811000D01*
X155251000Y-89811000D01*
G37*
G36*
X123313000Y-89313000D02*
X119909000Y-89313000D01*
X119909000Y-87687000D01*
X123313000Y-87687000D01*
X123313000Y-89313000D01*
X123313000Y-89313000D01*
G37*
G36*
X113946000Y-89226000D02*
X113244000Y-89226000D01*
X113244000Y-87574000D01*
X113946000Y-87574000D01*
X113946000Y-89226000D01*
X113946000Y-89226000D01*
G37*
G36*
X115216000Y-89226000D02*
X114514000Y-89226000D01*
X114514000Y-87574000D01*
X115216000Y-87574000D01*
X115216000Y-89226000D01*
X115216000Y-89226000D01*
G37*
G36*
X116486000Y-89226000D02*
X115784000Y-89226000D01*
X115784000Y-87574000D01*
X116486000Y-87574000D01*
X116486000Y-89226000D01*
X116486000Y-89226000D01*
G37*
G36*
X117756000Y-89226000D02*
X117054000Y-89226000D01*
X117054000Y-87574000D01*
X117756000Y-87574000D01*
X117756000Y-89226000D01*
X117756000Y-89226000D01*
G37*
G36*
X203301000Y-88801000D02*
X200699000Y-88801000D01*
X200699000Y-87199000D01*
X203301000Y-87199000D01*
X203301000Y-88801000D01*
X203301000Y-88801000D01*
G37*
G36*
X145851000Y-88541000D02*
X143749000Y-88541000D01*
X143749000Y-87839000D01*
X145851000Y-87839000D01*
X145851000Y-88541000D01*
X145851000Y-88541000D01*
G37*
G36*
X155251000Y-88541000D02*
X153149000Y-88541000D01*
X153149000Y-87839000D01*
X155251000Y-87839000D01*
X155251000Y-88541000D01*
X155251000Y-88541000D01*
G37*
G36*
X145851000Y-87271000D02*
X143749000Y-87271000D01*
X143749000Y-86569000D01*
X145851000Y-86569000D01*
X145851000Y-87271000D01*
X145851000Y-87271000D01*
G37*
G36*
X155251000Y-87271000D02*
X153149000Y-87271000D01*
X153149000Y-86569000D01*
X155251000Y-86569000D01*
X155251000Y-87271000D01*
X155251000Y-87271000D01*
G37*
G36*
X202407025Y-84670590D02*
X202558012Y-84716392D01*
X202697165Y-84790770D01*
X202819133Y-84890867D01*
X202919230Y-85012835D01*
X202993608Y-85151988D01*
X203039410Y-85302975D01*
X203054875Y-85460000D01*
X203039410Y-85617025D01*
X202993608Y-85768012D01*
X202919230Y-85907165D01*
X202819133Y-86029133D01*
X202697165Y-86129230D01*
X202558012Y-86203608D01*
X202407025Y-86249410D01*
X202289346Y-86261000D01*
X201710654Y-86261000D01*
X201592975Y-86249410D01*
X201441988Y-86203608D01*
X201302835Y-86129230D01*
X201180867Y-86029133D01*
X201080770Y-85907165D01*
X201006392Y-85768012D01*
X200960590Y-85617025D01*
X200945125Y-85460000D01*
X200960590Y-85302975D01*
X201006392Y-85151988D01*
X201080770Y-85012835D01*
X201180867Y-84890867D01*
X201302835Y-84790770D01*
X201441988Y-84716392D01*
X201592975Y-84670590D01*
X201710654Y-84659000D01*
X202289346Y-84659000D01*
X202407025Y-84670590D01*
X202407025Y-84670590D01*
G37*
G36*
X145207142Y-83598242D02*
X145355102Y-83659530D01*
X145361205Y-83663608D01*
X145447099Y-83721000D01*
X145488258Y-83748502D01*
X145601498Y-83861742D01*
X145690470Y-83994898D01*
X145751758Y-84142858D01*
X145783000Y-84299925D01*
X145783000Y-84460075D01*
X145751758Y-84617142D01*
X145690470Y-84765102D01*
X145645683Y-84832130D01*
X145601499Y-84898257D01*
X145488257Y-85011499D01*
X145422130Y-85055683D01*
X145355102Y-85100470D01*
X145207142Y-85161758D01*
X145050075Y-85193000D01*
X144889925Y-85193000D01*
X144732858Y-85161758D01*
X144584898Y-85100470D01*
X144517870Y-85055683D01*
X144451743Y-85011499D01*
X144338501Y-84898257D01*
X144294317Y-84832130D01*
X144249530Y-84765102D01*
X144188242Y-84617142D01*
X144157000Y-84460075D01*
X144157000Y-84299925D01*
X144188242Y-84142858D01*
X144249530Y-83994898D01*
X144338502Y-83861742D01*
X144451742Y-83748502D01*
X144492902Y-83721000D01*
X144578795Y-83663608D01*
X144584898Y-83659530D01*
X144732858Y-83598242D01*
X144889925Y-83567000D01*
X145050075Y-83567000D01*
X145207142Y-83598242D01*
X145207142Y-83598242D01*
G37*
G36*
X147747142Y-83598242D02*
X147895102Y-83659530D01*
X147901205Y-83663608D01*
X147987099Y-83721000D01*
X148028258Y-83748502D01*
X148141498Y-83861742D01*
X148230470Y-83994898D01*
X148291758Y-84142858D01*
X148323000Y-84299925D01*
X148323000Y-84460075D01*
X148291758Y-84617142D01*
X148230470Y-84765102D01*
X148185683Y-84832130D01*
X148141499Y-84898257D01*
X148028257Y-85011499D01*
X147962130Y-85055683D01*
X147895102Y-85100470D01*
X147747142Y-85161758D01*
X147590075Y-85193000D01*
X147429925Y-85193000D01*
X147272858Y-85161758D01*
X147124898Y-85100470D01*
X147057870Y-85055683D01*
X146991743Y-85011499D01*
X146878501Y-84898257D01*
X146834317Y-84832130D01*
X146789530Y-84765102D01*
X146728242Y-84617142D01*
X146697000Y-84460075D01*
X146697000Y-84299925D01*
X146728242Y-84142858D01*
X146789530Y-83994898D01*
X146878502Y-83861742D01*
X146991742Y-83748502D01*
X147032902Y-83721000D01*
X147118795Y-83663608D01*
X147124898Y-83659530D01*
X147272858Y-83598242D01*
X147429925Y-83567000D01*
X147590075Y-83567000D01*
X147747142Y-83598242D01*
X147747142Y-83598242D01*
G37*
G36*
X150287142Y-83598242D02*
X150435102Y-83659530D01*
X150441205Y-83663608D01*
X150527099Y-83721000D01*
X150568258Y-83748502D01*
X150681498Y-83861742D01*
X150770470Y-83994898D01*
X150831758Y-84142858D01*
X150863000Y-84299925D01*
X150863000Y-84460075D01*
X150831758Y-84617142D01*
X150770470Y-84765102D01*
X150725683Y-84832130D01*
X150681499Y-84898257D01*
X150568257Y-85011499D01*
X150502130Y-85055683D01*
X150435102Y-85100470D01*
X150287142Y-85161758D01*
X150130075Y-85193000D01*
X149969925Y-85193000D01*
X149812858Y-85161758D01*
X149664898Y-85100470D01*
X149597870Y-85055683D01*
X149531743Y-85011499D01*
X149418501Y-84898257D01*
X149374317Y-84832130D01*
X149329530Y-84765102D01*
X149268242Y-84617142D01*
X149237000Y-84460075D01*
X149237000Y-84299925D01*
X149268242Y-84142858D01*
X149329530Y-83994898D01*
X149418502Y-83861742D01*
X149531742Y-83748502D01*
X149572902Y-83721000D01*
X149658795Y-83663608D01*
X149664898Y-83659530D01*
X149812858Y-83598242D01*
X149969925Y-83567000D01*
X150130075Y-83567000D01*
X150287142Y-83598242D01*
X150287142Y-83598242D01*
G37*
G36*
X155367142Y-83598242D02*
X155515102Y-83659530D01*
X155521205Y-83663608D01*
X155607099Y-83721000D01*
X155648258Y-83748502D01*
X155761498Y-83861742D01*
X155850470Y-83994898D01*
X155911758Y-84142858D01*
X155943000Y-84299925D01*
X155943000Y-84460075D01*
X155911758Y-84617142D01*
X155850470Y-84765102D01*
X155805683Y-84832130D01*
X155761499Y-84898257D01*
X155648257Y-85011499D01*
X155582130Y-85055683D01*
X155515102Y-85100470D01*
X155367142Y-85161758D01*
X155210075Y-85193000D01*
X155049925Y-85193000D01*
X154892858Y-85161758D01*
X154744898Y-85100470D01*
X154677870Y-85055683D01*
X154611743Y-85011499D01*
X154498501Y-84898257D01*
X154454317Y-84832130D01*
X154409530Y-84765102D01*
X154348242Y-84617142D01*
X154317000Y-84460075D01*
X154317000Y-84299925D01*
X154348242Y-84142858D01*
X154409530Y-83994898D01*
X154498502Y-83861742D01*
X154611742Y-83748502D01*
X154652902Y-83721000D01*
X154738795Y-83663608D01*
X154744898Y-83659530D01*
X154892858Y-83598242D01*
X155049925Y-83567000D01*
X155210075Y-83567000D01*
X155367142Y-83598242D01*
X155367142Y-83598242D01*
G37*
G36*
X137587142Y-83598242D02*
X137735102Y-83659530D01*
X137741205Y-83663608D01*
X137827099Y-83721000D01*
X137868258Y-83748502D01*
X137981498Y-83861742D01*
X138070470Y-83994898D01*
X138131758Y-84142858D01*
X138163000Y-84299925D01*
X138163000Y-84460075D01*
X138131758Y-84617142D01*
X138070470Y-84765102D01*
X138025683Y-84832130D01*
X137981499Y-84898257D01*
X137868257Y-85011499D01*
X137802130Y-85055683D01*
X137735102Y-85100470D01*
X137587142Y-85161758D01*
X137430075Y-85193000D01*
X137269925Y-85193000D01*
X137112858Y-85161758D01*
X136964898Y-85100470D01*
X136897870Y-85055683D01*
X136831743Y-85011499D01*
X136718501Y-84898257D01*
X136674317Y-84832130D01*
X136629530Y-84765102D01*
X136568242Y-84617142D01*
X136537000Y-84460075D01*
X136537000Y-84299925D01*
X136568242Y-84142858D01*
X136629530Y-83994898D01*
X136718502Y-83861742D01*
X136831742Y-83748502D01*
X136872902Y-83721000D01*
X136958795Y-83663608D01*
X136964898Y-83659530D01*
X137112858Y-83598242D01*
X137269925Y-83567000D01*
X137430075Y-83567000D01*
X137587142Y-83598242D01*
X137587142Y-83598242D01*
G37*
G36*
X140127142Y-83598242D02*
X140275102Y-83659530D01*
X140281205Y-83663608D01*
X140367099Y-83721000D01*
X140408258Y-83748502D01*
X140521498Y-83861742D01*
X140610470Y-83994898D01*
X140671758Y-84142858D01*
X140703000Y-84299925D01*
X140703000Y-84460075D01*
X140671758Y-84617142D01*
X140610470Y-84765102D01*
X140565683Y-84832130D01*
X140521499Y-84898257D01*
X140408257Y-85011499D01*
X140342130Y-85055683D01*
X140275102Y-85100470D01*
X140127142Y-85161758D01*
X139970075Y-85193000D01*
X139809925Y-85193000D01*
X139652858Y-85161758D01*
X139504898Y-85100470D01*
X139437870Y-85055683D01*
X139371743Y-85011499D01*
X139258501Y-84898257D01*
X139214317Y-84832130D01*
X139169530Y-84765102D01*
X139108242Y-84617142D01*
X139077000Y-84460075D01*
X139077000Y-84299925D01*
X139108242Y-84142858D01*
X139169530Y-83994898D01*
X139258502Y-83861742D01*
X139371742Y-83748502D01*
X139412902Y-83721000D01*
X139498795Y-83663608D01*
X139504898Y-83659530D01*
X139652858Y-83598242D01*
X139809925Y-83567000D01*
X139970075Y-83567000D01*
X140127142Y-83598242D01*
X140127142Y-83598242D01*
G37*
G36*
X142667142Y-83598242D02*
X142815102Y-83659530D01*
X142821205Y-83663608D01*
X142907099Y-83721000D01*
X142948258Y-83748502D01*
X143061498Y-83861742D01*
X143150470Y-83994898D01*
X143211758Y-84142858D01*
X143243000Y-84299925D01*
X143243000Y-84460075D01*
X143211758Y-84617142D01*
X143150470Y-84765102D01*
X143105683Y-84832130D01*
X143061499Y-84898257D01*
X142948257Y-85011499D01*
X142882130Y-85055683D01*
X142815102Y-85100470D01*
X142667142Y-85161758D01*
X142510075Y-85193000D01*
X142349925Y-85193000D01*
X142192858Y-85161758D01*
X142044898Y-85100470D01*
X141977870Y-85055683D01*
X141911743Y-85011499D01*
X141798501Y-84898257D01*
X141754317Y-84832130D01*
X141709530Y-84765102D01*
X141648242Y-84617142D01*
X141617000Y-84460075D01*
X141617000Y-84299925D01*
X141648242Y-84142858D01*
X141709530Y-83994898D01*
X141798502Y-83861742D01*
X141911742Y-83748502D01*
X141952902Y-83721000D01*
X142038795Y-83663608D01*
X142044898Y-83659530D01*
X142192858Y-83598242D01*
X142349925Y-83567000D01*
X142510075Y-83567000D01*
X142667142Y-83598242D01*
X142667142Y-83598242D01*
G37*
G36*
X132507142Y-83598242D02*
X132655102Y-83659530D01*
X132661205Y-83663608D01*
X132747099Y-83721000D01*
X132788258Y-83748502D01*
X132901498Y-83861742D01*
X132990470Y-83994898D01*
X133051758Y-84142858D01*
X133083000Y-84299925D01*
X133083000Y-84460075D01*
X133051758Y-84617142D01*
X132990470Y-84765102D01*
X132945683Y-84832130D01*
X132901499Y-84898257D01*
X132788257Y-85011499D01*
X132722130Y-85055683D01*
X132655102Y-85100470D01*
X132507142Y-85161758D01*
X132350075Y-85193000D01*
X132189925Y-85193000D01*
X132032858Y-85161758D01*
X131884898Y-85100470D01*
X131817870Y-85055683D01*
X131751743Y-85011499D01*
X131638501Y-84898257D01*
X131594317Y-84832130D01*
X131549530Y-84765102D01*
X131488242Y-84617142D01*
X131457000Y-84460075D01*
X131457000Y-84299925D01*
X131488242Y-84142858D01*
X131549530Y-83994898D01*
X131638502Y-83861742D01*
X131751742Y-83748502D01*
X131792902Y-83721000D01*
X131878795Y-83663608D01*
X131884898Y-83659530D01*
X132032858Y-83598242D01*
X132189925Y-83567000D01*
X132350075Y-83567000D01*
X132507142Y-83598242D01*
X132507142Y-83598242D01*
G37*
G36*
X129967142Y-83598242D02*
X130115102Y-83659530D01*
X130121205Y-83663608D01*
X130207099Y-83721000D01*
X130248258Y-83748502D01*
X130361498Y-83861742D01*
X130450470Y-83994898D01*
X130511758Y-84142858D01*
X130543000Y-84299925D01*
X130543000Y-84460075D01*
X130511758Y-84617142D01*
X130450470Y-84765102D01*
X130405683Y-84832130D01*
X130361499Y-84898257D01*
X130248257Y-85011499D01*
X130182130Y-85055683D01*
X130115102Y-85100470D01*
X129967142Y-85161758D01*
X129810075Y-85193000D01*
X129649925Y-85193000D01*
X129492858Y-85161758D01*
X129344898Y-85100470D01*
X129277870Y-85055683D01*
X129211743Y-85011499D01*
X129098501Y-84898257D01*
X129054317Y-84832130D01*
X129009530Y-84765102D01*
X128948242Y-84617142D01*
X128917000Y-84460075D01*
X128917000Y-84299925D01*
X128948242Y-84142858D01*
X129009530Y-83994898D01*
X129098502Y-83861742D01*
X129211742Y-83748502D01*
X129252902Y-83721000D01*
X129338795Y-83663608D01*
X129344898Y-83659530D01*
X129492858Y-83598242D01*
X129649925Y-83567000D01*
X129810075Y-83567000D01*
X129967142Y-83598242D01*
X129967142Y-83598242D01*
G37*
G36*
X127427142Y-83598242D02*
X127575102Y-83659530D01*
X127581205Y-83663608D01*
X127667099Y-83721000D01*
X127708258Y-83748502D01*
X127821498Y-83861742D01*
X127910470Y-83994898D01*
X127971758Y-84142858D01*
X128003000Y-84299925D01*
X128003000Y-84460075D01*
X127971758Y-84617142D01*
X127910470Y-84765102D01*
X127865683Y-84832130D01*
X127821499Y-84898257D01*
X127708257Y-85011499D01*
X127642130Y-85055683D01*
X127575102Y-85100470D01*
X127427142Y-85161758D01*
X127270075Y-85193000D01*
X127109925Y-85193000D01*
X126952858Y-85161758D01*
X126804898Y-85100470D01*
X126737870Y-85055683D01*
X126671743Y-85011499D01*
X126558501Y-84898257D01*
X126514317Y-84832130D01*
X126469530Y-84765102D01*
X126408242Y-84617142D01*
X126377000Y-84460075D01*
X126377000Y-84299925D01*
X126408242Y-84142858D01*
X126469530Y-83994898D01*
X126558502Y-83861742D01*
X126671742Y-83748502D01*
X126712902Y-83721000D01*
X126798795Y-83663608D01*
X126804898Y-83659530D01*
X126952858Y-83598242D01*
X127109925Y-83567000D01*
X127270075Y-83567000D01*
X127427142Y-83598242D01*
X127427142Y-83598242D01*
G37*
G36*
X122347142Y-83598242D02*
X122495102Y-83659530D01*
X122501205Y-83663608D01*
X122587099Y-83721000D01*
X122628258Y-83748502D01*
X122741498Y-83861742D01*
X122830470Y-83994898D01*
X122891758Y-84142858D01*
X122923000Y-84299925D01*
X122923000Y-84460075D01*
X122891758Y-84617142D01*
X122830470Y-84765102D01*
X122785683Y-84832130D01*
X122741499Y-84898257D01*
X122628257Y-85011499D01*
X122562130Y-85055683D01*
X122495102Y-85100470D01*
X122347142Y-85161758D01*
X122190075Y-85193000D01*
X122029925Y-85193000D01*
X121872858Y-85161758D01*
X121724898Y-85100470D01*
X121657870Y-85055683D01*
X121591743Y-85011499D01*
X121478501Y-84898257D01*
X121434317Y-84832130D01*
X121389530Y-84765102D01*
X121328242Y-84617142D01*
X121297000Y-84460075D01*
X121297000Y-84299925D01*
X121328242Y-84142858D01*
X121389530Y-83994898D01*
X121478502Y-83861742D01*
X121591742Y-83748502D01*
X121632902Y-83721000D01*
X121718795Y-83663608D01*
X121724898Y-83659530D01*
X121872858Y-83598242D01*
X122029925Y-83567000D01*
X122190075Y-83567000D01*
X122347142Y-83598242D01*
X122347142Y-83598242D01*
G37*
G36*
X124887142Y-83598242D02*
X125035102Y-83659530D01*
X125041205Y-83663608D01*
X125127099Y-83721000D01*
X125168258Y-83748502D01*
X125281498Y-83861742D01*
X125370470Y-83994898D01*
X125431758Y-84142858D01*
X125463000Y-84299925D01*
X125463000Y-84460075D01*
X125431758Y-84617142D01*
X125370470Y-84765102D01*
X125325683Y-84832130D01*
X125281499Y-84898257D01*
X125168257Y-85011499D01*
X125102130Y-85055683D01*
X125035102Y-85100470D01*
X124887142Y-85161758D01*
X124730075Y-85193000D01*
X124569925Y-85193000D01*
X124412858Y-85161758D01*
X124264898Y-85100470D01*
X124197870Y-85055683D01*
X124131743Y-85011499D01*
X124018501Y-84898257D01*
X123974317Y-84832130D01*
X123929530Y-84765102D01*
X123868242Y-84617142D01*
X123837000Y-84460075D01*
X123837000Y-84299925D01*
X123868242Y-84142858D01*
X123929530Y-83994898D01*
X124018502Y-83861742D01*
X124131742Y-83748502D01*
X124172902Y-83721000D01*
X124258795Y-83663608D01*
X124264898Y-83659530D01*
X124412858Y-83598242D01*
X124569925Y-83567000D01*
X124730075Y-83567000D01*
X124887142Y-83598242D01*
X124887142Y-83598242D01*
G37*
G36*
X135047142Y-83598242D02*
X135195102Y-83659530D01*
X135201205Y-83663608D01*
X135287099Y-83721000D01*
X135328258Y-83748502D01*
X135441498Y-83861742D01*
X135530470Y-83994898D01*
X135591758Y-84142858D01*
X135623000Y-84299925D01*
X135623000Y-84460075D01*
X135591758Y-84617142D01*
X135530470Y-84765102D01*
X135485683Y-84832130D01*
X135441499Y-84898257D01*
X135328257Y-85011499D01*
X135262130Y-85055683D01*
X135195102Y-85100470D01*
X135047142Y-85161758D01*
X134890075Y-85193000D01*
X134729925Y-85193000D01*
X134572858Y-85161758D01*
X134424898Y-85100470D01*
X134357870Y-85055683D01*
X134291743Y-85011499D01*
X134178501Y-84898257D01*
X134134317Y-84832130D01*
X134089530Y-84765102D01*
X134028242Y-84617142D01*
X133997000Y-84460075D01*
X133997000Y-84299925D01*
X134028242Y-84142858D01*
X134089530Y-83994898D01*
X134178502Y-83861742D01*
X134291742Y-83748502D01*
X134332902Y-83721000D01*
X134418795Y-83663608D01*
X134424898Y-83659530D01*
X134572858Y-83598242D01*
X134729925Y-83567000D01*
X134890075Y-83567000D01*
X135047142Y-83598242D01*
X135047142Y-83598242D01*
G37*
G36*
X107107142Y-83598242D02*
X107255102Y-83659530D01*
X107261205Y-83663608D01*
X107347099Y-83721000D01*
X107388258Y-83748502D01*
X107501498Y-83861742D01*
X107590470Y-83994898D01*
X107651758Y-84142858D01*
X107683000Y-84299925D01*
X107683000Y-84460075D01*
X107651758Y-84617142D01*
X107590470Y-84765102D01*
X107545683Y-84832130D01*
X107501499Y-84898257D01*
X107388257Y-85011499D01*
X107322130Y-85055683D01*
X107255102Y-85100470D01*
X107107142Y-85161758D01*
X106950075Y-85193000D01*
X106789925Y-85193000D01*
X106632858Y-85161758D01*
X106484898Y-85100470D01*
X106417870Y-85055683D01*
X106351743Y-85011499D01*
X106238501Y-84898257D01*
X106194317Y-84832130D01*
X106149530Y-84765102D01*
X106088242Y-84617142D01*
X106057000Y-84460075D01*
X106057000Y-84299925D01*
X106088242Y-84142858D01*
X106149530Y-83994898D01*
X106238502Y-83861742D01*
X106351742Y-83748502D01*
X106392902Y-83721000D01*
X106478795Y-83663608D01*
X106484898Y-83659530D01*
X106632858Y-83598242D01*
X106789925Y-83567000D01*
X106950075Y-83567000D01*
X107107142Y-83598242D01*
X107107142Y-83598242D01*
G37*
G36*
X109647142Y-83598242D02*
X109795102Y-83659530D01*
X109801205Y-83663608D01*
X109887099Y-83721000D01*
X109928258Y-83748502D01*
X110041498Y-83861742D01*
X110130470Y-83994898D01*
X110191758Y-84142858D01*
X110223000Y-84299925D01*
X110223000Y-84460075D01*
X110191758Y-84617142D01*
X110130470Y-84765102D01*
X110085683Y-84832130D01*
X110041499Y-84898257D01*
X109928257Y-85011499D01*
X109862130Y-85055683D01*
X109795102Y-85100470D01*
X109647142Y-85161758D01*
X109490075Y-85193000D01*
X109329925Y-85193000D01*
X109172858Y-85161758D01*
X109024898Y-85100470D01*
X108957870Y-85055683D01*
X108891743Y-85011499D01*
X108778501Y-84898257D01*
X108734317Y-84832130D01*
X108689530Y-84765102D01*
X108628242Y-84617142D01*
X108597000Y-84460075D01*
X108597000Y-84299925D01*
X108628242Y-84142858D01*
X108689530Y-83994898D01*
X108778502Y-83861742D01*
X108891742Y-83748502D01*
X108932902Y-83721000D01*
X109018795Y-83663608D01*
X109024898Y-83659530D01*
X109172858Y-83598242D01*
X109329925Y-83567000D01*
X109490075Y-83567000D01*
X109647142Y-83598242D01*
X109647142Y-83598242D01*
G37*
G36*
X112187142Y-83598242D02*
X112335102Y-83659530D01*
X112341205Y-83663608D01*
X112427099Y-83721000D01*
X112468258Y-83748502D01*
X112581498Y-83861742D01*
X112670470Y-83994898D01*
X112731758Y-84142858D01*
X112763000Y-84299925D01*
X112763000Y-84460075D01*
X112731758Y-84617142D01*
X112670470Y-84765102D01*
X112625683Y-84832130D01*
X112581499Y-84898257D01*
X112468257Y-85011499D01*
X112402130Y-85055683D01*
X112335102Y-85100470D01*
X112187142Y-85161758D01*
X112030075Y-85193000D01*
X111869925Y-85193000D01*
X111712858Y-85161758D01*
X111564898Y-85100470D01*
X111497870Y-85055683D01*
X111431743Y-85011499D01*
X111318501Y-84898257D01*
X111274317Y-84832130D01*
X111229530Y-84765102D01*
X111168242Y-84617142D01*
X111137000Y-84460075D01*
X111137000Y-84299925D01*
X111168242Y-84142858D01*
X111229530Y-83994898D01*
X111318502Y-83861742D01*
X111431742Y-83748502D01*
X111472902Y-83721000D01*
X111558795Y-83663608D01*
X111564898Y-83659530D01*
X111712858Y-83598242D01*
X111869925Y-83567000D01*
X112030075Y-83567000D01*
X112187142Y-83598242D01*
X112187142Y-83598242D01*
G37*
G36*
X152827142Y-83598242D02*
X152975102Y-83659530D01*
X152981205Y-83663608D01*
X153067099Y-83721000D01*
X153108258Y-83748502D01*
X153221498Y-83861742D01*
X153310470Y-83994898D01*
X153371758Y-84142858D01*
X153403000Y-84299925D01*
X153403000Y-84460075D01*
X153371758Y-84617142D01*
X153310470Y-84765102D01*
X153265683Y-84832130D01*
X153221499Y-84898257D01*
X153108257Y-85011499D01*
X153042130Y-85055683D01*
X152975102Y-85100470D01*
X152827142Y-85161758D01*
X152670075Y-85193000D01*
X152509925Y-85193000D01*
X152352858Y-85161758D01*
X152204898Y-85100470D01*
X152137870Y-85055683D01*
X152071743Y-85011499D01*
X151958501Y-84898257D01*
X151914317Y-84832130D01*
X151869530Y-84765102D01*
X151808242Y-84617142D01*
X151777000Y-84460075D01*
X151777000Y-84299925D01*
X151808242Y-84142858D01*
X151869530Y-83994898D01*
X151958502Y-83861742D01*
X152071742Y-83748502D01*
X152112902Y-83721000D01*
X152198795Y-83663608D01*
X152204898Y-83659530D01*
X152352858Y-83598242D01*
X152509925Y-83567000D01*
X152670075Y-83567000D01*
X152827142Y-83598242D01*
X152827142Y-83598242D01*
G37*
G36*
X117267142Y-83598242D02*
X117415102Y-83659530D01*
X117421205Y-83663608D01*
X117507099Y-83721000D01*
X117548258Y-83748502D01*
X117661498Y-83861742D01*
X117750470Y-83994898D01*
X117811758Y-84142858D01*
X117843000Y-84299925D01*
X117843000Y-84460075D01*
X117811758Y-84617142D01*
X117750470Y-84765102D01*
X117705683Y-84832130D01*
X117661499Y-84898257D01*
X117548257Y-85011499D01*
X117482130Y-85055683D01*
X117415102Y-85100470D01*
X117267142Y-85161758D01*
X117110075Y-85193000D01*
X116949925Y-85193000D01*
X116792858Y-85161758D01*
X116644898Y-85100470D01*
X116577870Y-85055683D01*
X116511743Y-85011499D01*
X116398501Y-84898257D01*
X116354317Y-84832130D01*
X116309530Y-84765102D01*
X116248242Y-84617142D01*
X116217000Y-84460075D01*
X116217000Y-84299925D01*
X116248242Y-84142858D01*
X116309530Y-83994898D01*
X116398502Y-83861742D01*
X116511742Y-83748502D01*
X116552902Y-83721000D01*
X116638795Y-83663608D01*
X116644898Y-83659530D01*
X116792858Y-83598242D01*
X116949925Y-83567000D01*
X117110075Y-83567000D01*
X117267142Y-83598242D01*
X117267142Y-83598242D01*
G37*
G36*
X119807142Y-83598242D02*
X119955102Y-83659530D01*
X119961205Y-83663608D01*
X120047099Y-83721000D01*
X120088258Y-83748502D01*
X120201498Y-83861742D01*
X120290470Y-83994898D01*
X120351758Y-84142858D01*
X120383000Y-84299925D01*
X120383000Y-84460075D01*
X120351758Y-84617142D01*
X120290470Y-84765102D01*
X120245683Y-84832130D01*
X120201499Y-84898257D01*
X120088257Y-85011499D01*
X120022130Y-85055683D01*
X119955102Y-85100470D01*
X119807142Y-85161758D01*
X119650075Y-85193000D01*
X119489925Y-85193000D01*
X119332858Y-85161758D01*
X119184898Y-85100470D01*
X119117870Y-85055683D01*
X119051743Y-85011499D01*
X118938501Y-84898257D01*
X118894317Y-84832130D01*
X118849530Y-84765102D01*
X118788242Y-84617142D01*
X118757000Y-84460075D01*
X118757000Y-84299925D01*
X118788242Y-84142858D01*
X118849530Y-83994898D01*
X118938502Y-83861742D01*
X119051742Y-83748502D01*
X119092902Y-83721000D01*
X119178795Y-83663608D01*
X119184898Y-83659530D01*
X119332858Y-83598242D01*
X119489925Y-83567000D01*
X119650075Y-83567000D01*
X119807142Y-83598242D01*
X119807142Y-83598242D01*
G37*
G36*
X114727142Y-83598242D02*
X114875102Y-83659530D01*
X114881205Y-83663608D01*
X114967099Y-83721000D01*
X115008258Y-83748502D01*
X115121498Y-83861742D01*
X115210470Y-83994898D01*
X115271758Y-84142858D01*
X115303000Y-84299925D01*
X115303000Y-84460075D01*
X115271758Y-84617142D01*
X115210470Y-84765102D01*
X115165683Y-84832130D01*
X115121499Y-84898257D01*
X115008257Y-85011499D01*
X114942130Y-85055683D01*
X114875102Y-85100470D01*
X114727142Y-85161758D01*
X114570075Y-85193000D01*
X114409925Y-85193000D01*
X114252858Y-85161758D01*
X114104898Y-85100470D01*
X114037870Y-85055683D01*
X113971743Y-85011499D01*
X113858501Y-84898257D01*
X113814317Y-84832130D01*
X113769530Y-84765102D01*
X113708242Y-84617142D01*
X113677000Y-84460075D01*
X113677000Y-84299925D01*
X113708242Y-84142858D01*
X113769530Y-83994898D01*
X113858502Y-83861742D01*
X113971742Y-83748502D01*
X114012902Y-83721000D01*
X114098795Y-83663608D01*
X114104898Y-83659530D01*
X114252858Y-83598242D01*
X114409925Y-83567000D01*
X114570075Y-83567000D01*
X114727142Y-83598242D01*
X114727142Y-83598242D01*
G37*
G36*
X202407025Y-82130590D02*
X202558012Y-82176392D01*
X202697165Y-82250770D01*
X202819133Y-82350867D01*
X202919230Y-82472835D01*
X202993608Y-82611988D01*
X203039410Y-82762975D01*
X203054875Y-82920000D01*
X203039410Y-83077025D01*
X202993608Y-83228012D01*
X202919230Y-83367165D01*
X202819133Y-83489133D01*
X202697165Y-83589230D01*
X202558012Y-83663608D01*
X202407025Y-83709410D01*
X202289346Y-83721000D01*
X201710654Y-83721000D01*
X201592975Y-83709410D01*
X201441988Y-83663608D01*
X201302835Y-83589230D01*
X201180867Y-83489133D01*
X201080770Y-83367165D01*
X201006392Y-83228012D01*
X200960590Y-83077025D01*
X200945125Y-82920000D01*
X200960590Y-82762975D01*
X201006392Y-82611988D01*
X201080770Y-82472835D01*
X201180867Y-82350867D01*
X201302835Y-82250770D01*
X201441988Y-82176392D01*
X201592975Y-82130590D01*
X201710654Y-82119000D01*
X202289346Y-82119000D01*
X202407025Y-82130590D01*
X202407025Y-82130590D01*
G37*
G36*
X109588677Y-81403465D02*
X109626364Y-81414898D01*
X109661103Y-81433466D01*
X109691548Y-81458452D01*
X109716534Y-81488897D01*
X109735102Y-81523636D01*
X109746535Y-81561323D01*
X109751000Y-81606661D01*
X109751000Y-82443339D01*
X109746535Y-82488677D01*
X109735102Y-82526364D01*
X109716534Y-82561103D01*
X109691548Y-82591548D01*
X109661103Y-82616534D01*
X109626364Y-82635102D01*
X109588677Y-82646535D01*
X109543339Y-82651000D01*
X108456661Y-82651000D01*
X108411323Y-82646535D01*
X108373636Y-82635102D01*
X108338897Y-82616534D01*
X108308452Y-82591548D01*
X108283466Y-82561103D01*
X108264898Y-82526364D01*
X108253465Y-82488677D01*
X108249000Y-82443339D01*
X108249000Y-81606661D01*
X108253465Y-81561323D01*
X108264898Y-81523636D01*
X108283466Y-81488897D01*
X108308452Y-81458452D01*
X108338897Y-81433466D01*
X108373636Y-81414898D01*
X108411323Y-81403465D01*
X108456661Y-81399000D01*
X109543339Y-81399000D01*
X109588677Y-81403465D01*
X109588677Y-81403465D01*
G37*
G36*
X202407025Y-79590590D02*
X202558012Y-79636392D01*
X202697165Y-79710770D01*
X202819133Y-79810867D01*
X202919230Y-79932835D01*
X202993608Y-80071988D01*
X203039410Y-80222975D01*
X203054875Y-80380000D01*
X203039410Y-80537025D01*
X202993608Y-80688012D01*
X202919230Y-80827165D01*
X202819133Y-80949133D01*
X202697165Y-81049230D01*
X202558012Y-81123608D01*
X202407025Y-81169410D01*
X202289346Y-81181000D01*
X201710654Y-81181000D01*
X201592975Y-81169410D01*
X201441988Y-81123608D01*
X201302835Y-81049230D01*
X201180867Y-80949133D01*
X201080770Y-80827165D01*
X201006392Y-80688012D01*
X200960590Y-80537025D01*
X200945125Y-80380000D01*
X200960590Y-80222975D01*
X201006392Y-80071988D01*
X201080770Y-79932835D01*
X201180867Y-79810867D01*
X201302835Y-79710770D01*
X201441988Y-79636392D01*
X201592975Y-79590590D01*
X201710654Y-79579000D01*
X202289346Y-79579000D01*
X202407025Y-79590590D01*
X202407025Y-79590590D01*
G37*
G36*
X116988677Y-79253465D02*
X117026364Y-79264898D01*
X117061103Y-79283466D01*
X117091548Y-79308452D01*
X117116534Y-79338897D01*
X117135102Y-79373636D01*
X117146535Y-79411323D01*
X117151000Y-79456661D01*
X117151000Y-80543339D01*
X117146535Y-80588677D01*
X117135102Y-80626364D01*
X117116534Y-80661103D01*
X117091548Y-80691548D01*
X117061103Y-80716534D01*
X117026364Y-80735102D01*
X116988677Y-80746535D01*
X116943339Y-80751000D01*
X116106661Y-80751000D01*
X116061323Y-80746535D01*
X116023636Y-80735102D01*
X115988897Y-80716534D01*
X115958452Y-80691548D01*
X115933466Y-80661103D01*
X115914898Y-80626364D01*
X115903465Y-80588677D01*
X115899000Y-80543339D01*
X115899000Y-79456661D01*
X115903465Y-79411323D01*
X115914898Y-79373636D01*
X115933466Y-79338897D01*
X115958452Y-79308452D01*
X115988897Y-79283466D01*
X116023636Y-79264898D01*
X116061323Y-79253465D01*
X116106661Y-79249000D01*
X116943339Y-79249000D01*
X116988677Y-79253465D01*
X116988677Y-79253465D01*
G37*
G36*
X114938677Y-79253465D02*
X114976364Y-79264898D01*
X115011103Y-79283466D01*
X115041548Y-79308452D01*
X115066534Y-79338897D01*
X115085102Y-79373636D01*
X115096535Y-79411323D01*
X115101000Y-79456661D01*
X115101000Y-80543339D01*
X115096535Y-80588677D01*
X115085102Y-80626364D01*
X115066534Y-80661103D01*
X115041548Y-80691548D01*
X115011103Y-80716534D01*
X114976364Y-80735102D01*
X114938677Y-80746535D01*
X114893339Y-80751000D01*
X114056661Y-80751000D01*
X114011323Y-80746535D01*
X113973636Y-80735102D01*
X113938897Y-80716534D01*
X113908452Y-80691548D01*
X113883466Y-80661103D01*
X113864898Y-80626364D01*
X113853465Y-80588677D01*
X113849000Y-80543339D01*
X113849000Y-79456661D01*
X113853465Y-79411323D01*
X113864898Y-79373636D01*
X113883466Y-79338897D01*
X113908452Y-79308452D01*
X113938897Y-79283466D01*
X113973636Y-79264898D01*
X114011323Y-79253465D01*
X114056661Y-79249000D01*
X114893339Y-79249000D01*
X114938677Y-79253465D01*
X114938677Y-79253465D01*
G37*
G36*
X109588677Y-79353465D02*
X109626364Y-79364898D01*
X109661103Y-79383466D01*
X109691548Y-79408452D01*
X109716534Y-79438897D01*
X109735102Y-79473636D01*
X109746535Y-79511323D01*
X109751000Y-79556661D01*
X109751000Y-80393339D01*
X109746535Y-80438677D01*
X109735102Y-80476364D01*
X109716534Y-80511103D01*
X109691548Y-80541548D01*
X109661103Y-80566534D01*
X109626364Y-80585102D01*
X109588677Y-80596535D01*
X109543339Y-80601000D01*
X108456661Y-80601000D01*
X108411323Y-80596535D01*
X108373636Y-80585102D01*
X108338897Y-80566534D01*
X108308452Y-80541548D01*
X108283466Y-80511103D01*
X108264898Y-80476364D01*
X108253465Y-80438677D01*
X108249000Y-80393339D01*
X108249000Y-79556661D01*
X108253465Y-79511323D01*
X108264898Y-79473636D01*
X108283466Y-79438897D01*
X108308452Y-79408452D01*
X108338897Y-79383466D01*
X108373636Y-79364898D01*
X108411323Y-79353465D01*
X108456661Y-79349000D01*
X109543339Y-79349000D01*
X109588677Y-79353465D01*
X109588677Y-79353465D01*
G37*
G36*
X202407025Y-77050590D02*
X202558012Y-77096392D01*
X202697165Y-77170770D01*
X202819133Y-77270867D01*
X202919230Y-77392835D01*
X202993608Y-77531988D01*
X203039410Y-77682975D01*
X203054875Y-77840000D01*
X203039410Y-77997025D01*
X202993608Y-78148012D01*
X202919230Y-78287165D01*
X202819133Y-78409133D01*
X202697165Y-78509230D01*
X202558012Y-78583608D01*
X202407025Y-78629410D01*
X202289346Y-78641000D01*
X201710654Y-78641000D01*
X201592975Y-78629410D01*
X201441988Y-78583608D01*
X201302835Y-78509230D01*
X201180867Y-78409133D01*
X201080770Y-78287165D01*
X201006392Y-78148012D01*
X200960590Y-77997025D01*
X200945125Y-77840000D01*
X200960590Y-77682975D01*
X201006392Y-77531988D01*
X201080770Y-77392835D01*
X201180867Y-77270867D01*
X201302835Y-77170770D01*
X201441988Y-77096392D01*
X201592975Y-77050590D01*
X201710654Y-77039000D01*
X202289346Y-77039000D01*
X202407025Y-77050590D01*
X202407025Y-77050590D01*
G37*
G36*
X140070442Y-76605518D02*
X140136627Y-76612037D01*
X140249853Y-76646384D01*
X140306467Y-76663557D01*
X140445087Y-76737652D01*
X140462991Y-76747222D01*
X140498729Y-76776552D01*
X140600186Y-76859814D01*
X140683448Y-76961271D01*
X140712778Y-76997009D01*
X140712779Y-76997011D01*
X140796443Y-77153533D01*
X140801672Y-77170771D01*
X140847963Y-77323373D01*
X140865359Y-77500000D01*
X140847963Y-77676627D01*
X140813616Y-77789853D01*
X140796443Y-77846467D01*
X140722348Y-77985087D01*
X140712778Y-78002991D01*
X140683448Y-78038729D01*
X140600186Y-78140186D01*
X140498729Y-78223448D01*
X140462991Y-78252778D01*
X140462989Y-78252779D01*
X140306467Y-78336443D01*
X140249853Y-78353616D01*
X140136627Y-78387963D01*
X140070443Y-78394481D01*
X140004260Y-78401000D01*
X139915740Y-78401000D01*
X139849557Y-78394481D01*
X139783373Y-78387963D01*
X139670147Y-78353616D01*
X139613533Y-78336443D01*
X139457011Y-78252779D01*
X139457009Y-78252778D01*
X139421271Y-78223448D01*
X139319814Y-78140186D01*
X139236552Y-78038729D01*
X139207222Y-78002991D01*
X139197652Y-77985087D01*
X139123557Y-77846467D01*
X139106384Y-77789853D01*
X139072037Y-77676627D01*
X139054641Y-77500000D01*
X139072037Y-77323373D01*
X139118328Y-77170771D01*
X139123557Y-77153533D01*
X139207221Y-76997011D01*
X139207222Y-76997009D01*
X139236552Y-76961271D01*
X139319814Y-76859814D01*
X139421271Y-76776552D01*
X139457009Y-76747222D01*
X139474913Y-76737652D01*
X139613533Y-76663557D01*
X139670147Y-76646384D01*
X139783373Y-76612037D01*
X139849558Y-76605518D01*
X139915740Y-76599000D01*
X140004260Y-76599000D01*
X140070442Y-76605518D01*
X140070442Y-76605518D01*
G37*
G36*
X143401000Y-78401000D02*
X141599000Y-78401000D01*
X141599000Y-76599000D01*
X143401000Y-76599000D01*
X143401000Y-78401000D01*
X143401000Y-78401000D01*
G37*
G36*
X134990442Y-76605518D02*
X135056627Y-76612037D01*
X135169853Y-76646384D01*
X135226467Y-76663557D01*
X135365087Y-76737652D01*
X135382991Y-76747222D01*
X135418729Y-76776552D01*
X135520186Y-76859814D01*
X135603448Y-76961271D01*
X135632778Y-76997009D01*
X135632779Y-76997011D01*
X135716443Y-77153533D01*
X135721672Y-77170771D01*
X135767963Y-77323373D01*
X135785359Y-77500000D01*
X135767963Y-77676627D01*
X135733616Y-77789853D01*
X135716443Y-77846467D01*
X135642348Y-77985087D01*
X135632778Y-78002991D01*
X135603448Y-78038729D01*
X135520186Y-78140186D01*
X135418729Y-78223448D01*
X135382991Y-78252778D01*
X135382989Y-78252779D01*
X135226467Y-78336443D01*
X135169853Y-78353616D01*
X135056627Y-78387963D01*
X134990443Y-78394481D01*
X134924260Y-78401000D01*
X134835740Y-78401000D01*
X134769557Y-78394481D01*
X134703373Y-78387963D01*
X134590147Y-78353616D01*
X134533533Y-78336443D01*
X134377011Y-78252779D01*
X134377009Y-78252778D01*
X134341271Y-78223448D01*
X134239814Y-78140186D01*
X134156552Y-78038729D01*
X134127222Y-78002991D01*
X134117652Y-77985087D01*
X134043557Y-77846467D01*
X134026384Y-77789853D01*
X133992037Y-77676627D01*
X133974641Y-77500000D01*
X133992037Y-77323373D01*
X134038328Y-77170771D01*
X134043557Y-77153533D01*
X134127221Y-76997011D01*
X134127222Y-76997009D01*
X134156552Y-76961271D01*
X134239814Y-76859814D01*
X134341271Y-76776552D01*
X134377009Y-76747222D01*
X134394913Y-76737652D01*
X134533533Y-76663557D01*
X134590147Y-76646384D01*
X134703373Y-76612037D01*
X134769558Y-76605518D01*
X134835740Y-76599000D01*
X134924260Y-76599000D01*
X134990442Y-76605518D01*
X134990442Y-76605518D01*
G37*
G36*
X137530442Y-76605518D02*
X137596627Y-76612037D01*
X137709853Y-76646384D01*
X137766467Y-76663557D01*
X137905087Y-76737652D01*
X137922991Y-76747222D01*
X137958729Y-76776552D01*
X138060186Y-76859814D01*
X138143448Y-76961271D01*
X138172778Y-76997009D01*
X138172779Y-76997011D01*
X138256443Y-77153533D01*
X138261672Y-77170771D01*
X138307963Y-77323373D01*
X138325359Y-77500000D01*
X138307963Y-77676627D01*
X138273616Y-77789853D01*
X138256443Y-77846467D01*
X138182348Y-77985087D01*
X138172778Y-78002991D01*
X138143448Y-78038729D01*
X138060186Y-78140186D01*
X137958729Y-78223448D01*
X137922991Y-78252778D01*
X137922989Y-78252779D01*
X137766467Y-78336443D01*
X137709853Y-78353616D01*
X137596627Y-78387963D01*
X137530443Y-78394481D01*
X137464260Y-78401000D01*
X137375740Y-78401000D01*
X137309557Y-78394481D01*
X137243373Y-78387963D01*
X137130147Y-78353616D01*
X137073533Y-78336443D01*
X136917011Y-78252779D01*
X136917009Y-78252778D01*
X136881271Y-78223448D01*
X136779814Y-78140186D01*
X136696552Y-78038729D01*
X136667222Y-78002991D01*
X136657652Y-77985087D01*
X136583557Y-77846467D01*
X136566384Y-77789853D01*
X136532037Y-77676627D01*
X136514641Y-77500000D01*
X136532037Y-77323373D01*
X136578328Y-77170771D01*
X136583557Y-77153533D01*
X136667221Y-76997011D01*
X136667222Y-76997009D01*
X136696552Y-76961271D01*
X136779814Y-76859814D01*
X136881271Y-76776552D01*
X136917009Y-76747222D01*
X136934913Y-76737652D01*
X137073533Y-76663557D01*
X137130147Y-76646384D01*
X137243373Y-76612037D01*
X137309558Y-76605518D01*
X137375740Y-76599000D01*
X137464260Y-76599000D01*
X137530442Y-76605518D01*
X137530442Y-76605518D01*
G37*
G36*
X160800547Y-74862326D02*
X160916286Y-74897435D01*
X160974157Y-74914990D01*
X160995718Y-74926515D01*
X161134155Y-75000511D01*
X161274396Y-75115604D01*
X161389489Y-75255844D01*
X161413091Y-75300000D01*
X161475010Y-75415842D01*
X161491858Y-75471384D01*
X161527674Y-75589452D01*
X161541000Y-75724756D01*
X161541000Y-76275243D01*
X161527674Y-76410548D01*
X161475010Y-76584157D01*
X161389489Y-76744156D01*
X161274396Y-76884396D01*
X161134156Y-76999489D01*
X161115314Y-77009560D01*
X160974158Y-77085010D01*
X160936636Y-77096392D01*
X160800548Y-77137674D01*
X160620000Y-77155456D01*
X160439453Y-77137674D01*
X160303365Y-77096392D01*
X160265843Y-77085010D01*
X160124687Y-77009560D01*
X160105845Y-76999489D01*
X159965605Y-76884396D01*
X159850512Y-76744156D01*
X159779892Y-76612037D01*
X159764990Y-76584158D01*
X159747435Y-76526287D01*
X159712326Y-76410548D01*
X159699000Y-76275244D01*
X159699000Y-75724757D01*
X159712326Y-75589453D01*
X159764990Y-75415844D01*
X159764990Y-75415843D01*
X159826910Y-75300000D01*
X159850511Y-75255845D01*
X159965604Y-75115604D01*
X160105844Y-75000511D01*
X160242685Y-74927368D01*
X160265842Y-74914990D01*
X160323713Y-74897435D01*
X160439452Y-74862326D01*
X160620000Y-74844544D01*
X160800547Y-74862326D01*
X160800547Y-74862326D01*
G37*
G36*
X155720547Y-74862326D02*
X155836286Y-74897435D01*
X155894157Y-74914990D01*
X155915718Y-74926515D01*
X156054155Y-75000511D01*
X156194396Y-75115604D01*
X156309489Y-75255844D01*
X156333091Y-75300000D01*
X156395010Y-75415842D01*
X156411858Y-75471384D01*
X156447674Y-75589452D01*
X156461000Y-75724756D01*
X156461000Y-76275243D01*
X156447674Y-76410548D01*
X156395010Y-76584157D01*
X156309489Y-76744156D01*
X156194396Y-76884396D01*
X156054156Y-76999489D01*
X156035314Y-77009560D01*
X155894158Y-77085010D01*
X155856636Y-77096392D01*
X155720548Y-77137674D01*
X155540000Y-77155456D01*
X155359453Y-77137674D01*
X155223365Y-77096392D01*
X155185843Y-77085010D01*
X155044687Y-77009560D01*
X155025845Y-76999489D01*
X154885605Y-76884396D01*
X154770512Y-76744156D01*
X154699892Y-76612037D01*
X154684990Y-76584158D01*
X154667435Y-76526287D01*
X154632326Y-76410548D01*
X154619000Y-76275244D01*
X154619000Y-75724757D01*
X154632326Y-75589453D01*
X154684990Y-75415844D01*
X154684990Y-75415843D01*
X154746910Y-75300000D01*
X154770511Y-75255845D01*
X154885604Y-75115604D01*
X155025844Y-75000511D01*
X155162685Y-74927368D01*
X155185842Y-74914990D01*
X155243713Y-74897435D01*
X155359452Y-74862326D01*
X155540000Y-74844544D01*
X155720547Y-74862326D01*
X155720547Y-74862326D01*
G37*
G36*
X158260547Y-74862326D02*
X158376286Y-74897435D01*
X158434157Y-74914990D01*
X158455718Y-74926515D01*
X158594155Y-75000511D01*
X158734396Y-75115604D01*
X158849489Y-75255844D01*
X158873091Y-75300000D01*
X158935010Y-75415842D01*
X158951858Y-75471384D01*
X158987674Y-75589452D01*
X159001000Y-75724756D01*
X159001000Y-76275243D01*
X158987674Y-76410548D01*
X158935010Y-76584157D01*
X158849489Y-76744156D01*
X158734396Y-76884396D01*
X158594156Y-76999489D01*
X158575314Y-77009560D01*
X158434158Y-77085010D01*
X158396636Y-77096392D01*
X158260548Y-77137674D01*
X158080000Y-77155456D01*
X157899453Y-77137674D01*
X157763365Y-77096392D01*
X157725843Y-77085010D01*
X157584687Y-77009560D01*
X157565845Y-76999489D01*
X157425605Y-76884396D01*
X157310512Y-76744156D01*
X157239892Y-76612037D01*
X157224990Y-76584158D01*
X157207435Y-76526287D01*
X157172326Y-76410548D01*
X157159000Y-76275244D01*
X157159000Y-75724757D01*
X157172326Y-75589453D01*
X157224990Y-75415844D01*
X157224990Y-75415843D01*
X157286910Y-75300000D01*
X157310511Y-75255845D01*
X157425604Y-75115604D01*
X157565844Y-75000511D01*
X157702685Y-74927368D01*
X157725842Y-74914990D01*
X157783713Y-74897435D01*
X157899452Y-74862326D01*
X158080000Y-74844544D01*
X158260547Y-74862326D01*
X158260547Y-74862326D01*
G37*
G36*
X153779560Y-74852966D02*
X153812383Y-74862923D01*
X153842632Y-74879092D01*
X153869148Y-74900852D01*
X153890908Y-74927368D01*
X153907077Y-74957617D01*
X153917034Y-74990440D01*
X153921000Y-75030712D01*
X153921000Y-76969288D01*
X153917034Y-77009560D01*
X153907077Y-77042383D01*
X153890908Y-77072632D01*
X153869148Y-77099148D01*
X153842632Y-77120908D01*
X153812383Y-77137077D01*
X153779560Y-77147034D01*
X153739288Y-77151000D01*
X152260712Y-77151000D01*
X152220440Y-77147034D01*
X152187617Y-77137077D01*
X152157368Y-77120908D01*
X152130852Y-77099148D01*
X152109092Y-77072632D01*
X152092923Y-77042383D01*
X152082966Y-77009560D01*
X152079000Y-76969288D01*
X152079000Y-75030712D01*
X152082966Y-74990440D01*
X152092923Y-74957617D01*
X152109092Y-74927368D01*
X152130852Y-74900852D01*
X152157368Y-74879092D01*
X152187617Y-74862923D01*
X152220440Y-74852966D01*
X152260712Y-74849000D01*
X153739288Y-74849000D01*
X153779560Y-74852966D01*
X153779560Y-74852966D01*
G37*
G36*
X202407025Y-74510590D02*
X202558012Y-74556392D01*
X202697165Y-74630770D01*
X202819133Y-74730867D01*
X202919230Y-74852835D01*
X202993608Y-74991988D01*
X203039410Y-75142975D01*
X203054875Y-75300000D01*
X203039410Y-75457025D01*
X202993608Y-75608012D01*
X202919230Y-75747165D01*
X202819133Y-75869133D01*
X202697165Y-75969230D01*
X202558012Y-76043608D01*
X202407025Y-76089410D01*
X202289346Y-76101000D01*
X201710654Y-76101000D01*
X201592975Y-76089410D01*
X201441988Y-76043608D01*
X201302835Y-75969230D01*
X201180867Y-75869133D01*
X201080770Y-75747165D01*
X201006392Y-75608012D01*
X200960590Y-75457025D01*
X200945125Y-75300000D01*
X200960590Y-75142975D01*
X201006392Y-74991988D01*
X201080770Y-74852835D01*
X201180867Y-74730867D01*
X201302835Y-74630770D01*
X201441988Y-74556392D01*
X201592975Y-74510590D01*
X201710654Y-74499000D01*
X202289346Y-74499000D01*
X202407025Y-74510590D01*
X202407025Y-74510590D01*
G37*
G36*
X114926565Y-73529389D02*
X115117834Y-73608615D01*
X115289976Y-73723637D01*
X115436363Y-73870024D01*
X115551385Y-74042166D01*
X115630611Y-74233435D01*
X115671000Y-74436484D01*
X115671000Y-74643516D01*
X115630611Y-74846565D01*
X115551385Y-75037834D01*
X115436363Y-75209976D01*
X115289976Y-75356363D01*
X115117834Y-75471385D01*
X114926565Y-75550611D01*
X114723516Y-75591000D01*
X114516484Y-75591000D01*
X114313435Y-75550611D01*
X114122166Y-75471385D01*
X113950024Y-75356363D01*
X113803637Y-75209976D01*
X113688615Y-75037834D01*
X113609389Y-74846565D01*
X113569000Y-74643516D01*
X113569000Y-74436484D01*
X113609389Y-74233435D01*
X113688615Y-74042166D01*
X113803637Y-73870024D01*
X113950024Y-73723637D01*
X114122166Y-73608615D01*
X114313435Y-73529389D01*
X114516484Y-73489000D01*
X114723516Y-73489000D01*
X114926565Y-73529389D01*
X114926565Y-73529389D01*
G37*
G36*
X112386565Y-73529389D02*
X112577834Y-73608615D01*
X112749976Y-73723637D01*
X112896363Y-73870024D01*
X113011385Y-74042166D01*
X113090611Y-74233435D01*
X113131000Y-74436484D01*
X113131000Y-74643516D01*
X113090611Y-74846565D01*
X113011385Y-75037834D01*
X112896363Y-75209976D01*
X112749976Y-75356363D01*
X112577834Y-75471385D01*
X112386565Y-75550611D01*
X112183516Y-75591000D01*
X111976484Y-75591000D01*
X111773435Y-75550611D01*
X111582166Y-75471385D01*
X111410024Y-75356363D01*
X111263637Y-75209976D01*
X111148615Y-75037834D01*
X111069389Y-74846565D01*
X111029000Y-74643516D01*
X111029000Y-74436484D01*
X111069389Y-74233435D01*
X111148615Y-74042166D01*
X111263637Y-73870024D01*
X111410024Y-73723637D01*
X111582166Y-73608615D01*
X111773435Y-73529389D01*
X111976484Y-73489000D01*
X112183516Y-73489000D01*
X112386565Y-73529389D01*
X112386565Y-73529389D01*
G37*
G36*
X109846565Y-73529389D02*
X110037834Y-73608615D01*
X110209976Y-73723637D01*
X110356363Y-73870024D01*
X110471385Y-74042166D01*
X110550611Y-74233435D01*
X110591000Y-74436484D01*
X110591000Y-74643516D01*
X110550611Y-74846565D01*
X110471385Y-75037834D01*
X110356363Y-75209976D01*
X110209976Y-75356363D01*
X110037834Y-75471385D01*
X109846565Y-75550611D01*
X109643516Y-75591000D01*
X109436484Y-75591000D01*
X109233435Y-75550611D01*
X109042166Y-75471385D01*
X108870024Y-75356363D01*
X108723637Y-75209976D01*
X108608615Y-75037834D01*
X108529389Y-74846565D01*
X108489000Y-74643516D01*
X108489000Y-74436484D01*
X108529389Y-74233435D01*
X108608615Y-74042166D01*
X108723637Y-73870024D01*
X108870024Y-73723637D01*
X109042166Y-73608615D01*
X109233435Y-73529389D01*
X109436484Y-73489000D01*
X109643516Y-73489000D01*
X109846565Y-73529389D01*
X109846565Y-73529389D01*
G37*
G36*
X107306565Y-73529389D02*
X107497834Y-73608615D01*
X107669976Y-73723637D01*
X107816363Y-73870024D01*
X107931385Y-74042166D01*
X108010611Y-74233435D01*
X108051000Y-74436484D01*
X108051000Y-74643516D01*
X108010611Y-74846565D01*
X107931385Y-75037834D01*
X107816363Y-75209976D01*
X107669976Y-75356363D01*
X107497834Y-75471385D01*
X107306565Y-75550611D01*
X107103516Y-75591000D01*
X106896484Y-75591000D01*
X106693435Y-75550611D01*
X106502166Y-75471385D01*
X106330024Y-75356363D01*
X106183637Y-75209976D01*
X106068615Y-75037834D01*
X105989389Y-74846565D01*
X105949000Y-74643516D01*
X105949000Y-74436484D01*
X105989389Y-74233435D01*
X106068615Y-74042166D01*
X106183637Y-73870024D01*
X106330024Y-73723637D01*
X106502166Y-73608615D01*
X106693435Y-73529389D01*
X106896484Y-73489000D01*
X107103516Y-73489000D01*
X107306565Y-73529389D01*
X107306565Y-73529389D01*
G37*
G36*
X146190443Y-71605519D02*
X146256627Y-71612037D01*
X146369853Y-71646384D01*
X146426467Y-71663557D01*
X146536519Y-71722382D01*
X146582991Y-71747222D01*
X146618729Y-71776552D01*
X146720186Y-71859814D01*
X146803448Y-71961271D01*
X146832778Y-71997009D01*
X146832779Y-71997011D01*
X146916443Y-72153533D01*
X146916443Y-72153534D01*
X146967963Y-72323373D01*
X146985359Y-72500000D01*
X146967963Y-72676627D01*
X146933616Y-72789853D01*
X146916443Y-72846467D01*
X146842348Y-72985087D01*
X146832778Y-73002991D01*
X146826525Y-73010610D01*
X146720186Y-73140186D01*
X146618729Y-73223448D01*
X146582991Y-73252778D01*
X146582989Y-73252779D01*
X146426467Y-73336443D01*
X146369853Y-73353616D01*
X146256627Y-73387963D01*
X146190443Y-73394481D01*
X146124260Y-73401000D01*
X146035740Y-73401000D01*
X145969557Y-73394481D01*
X145903373Y-73387963D01*
X145790147Y-73353616D01*
X145733533Y-73336443D01*
X145577011Y-73252779D01*
X145577009Y-73252778D01*
X145541271Y-73223448D01*
X145439814Y-73140186D01*
X145333475Y-73010610D01*
X145327222Y-73002991D01*
X145317652Y-72985087D01*
X145243557Y-72846467D01*
X145226384Y-72789853D01*
X145192037Y-72676627D01*
X145174641Y-72500000D01*
X145192037Y-72323373D01*
X145243557Y-72153534D01*
X145243557Y-72153533D01*
X145327221Y-71997011D01*
X145327222Y-71997009D01*
X145356552Y-71961271D01*
X145439814Y-71859814D01*
X145541271Y-71776552D01*
X145577009Y-71747222D01*
X145623481Y-71722382D01*
X145733533Y-71663557D01*
X145790147Y-71646384D01*
X145903373Y-71612037D01*
X145969557Y-71605519D01*
X146035740Y-71599000D01*
X146124260Y-71599000D01*
X146190443Y-71605519D01*
X146190443Y-71605519D01*
G37*
G36*
X143650443Y-71605519D02*
X143716627Y-71612037D01*
X143829853Y-71646384D01*
X143886467Y-71663557D01*
X143996519Y-71722382D01*
X144042991Y-71747222D01*
X144078729Y-71776552D01*
X144180186Y-71859814D01*
X144263448Y-71961271D01*
X144292778Y-71997009D01*
X144292779Y-71997011D01*
X144376443Y-72153533D01*
X144376443Y-72153534D01*
X144427963Y-72323373D01*
X144445359Y-72500000D01*
X144427963Y-72676627D01*
X144393616Y-72789853D01*
X144376443Y-72846467D01*
X144302348Y-72985087D01*
X144292778Y-73002991D01*
X144286525Y-73010610D01*
X144180186Y-73140186D01*
X144078729Y-73223448D01*
X144042991Y-73252778D01*
X144042989Y-73252779D01*
X143886467Y-73336443D01*
X143829853Y-73353616D01*
X143716627Y-73387963D01*
X143650443Y-73394481D01*
X143584260Y-73401000D01*
X143495740Y-73401000D01*
X143429557Y-73394481D01*
X143363373Y-73387963D01*
X143250147Y-73353616D01*
X143193533Y-73336443D01*
X143037011Y-73252779D01*
X143037009Y-73252778D01*
X143001271Y-73223448D01*
X142899814Y-73140186D01*
X142793475Y-73010610D01*
X142787222Y-73002991D01*
X142777652Y-72985087D01*
X142703557Y-72846467D01*
X142686384Y-72789853D01*
X142652037Y-72676627D01*
X142634641Y-72500000D01*
X142652037Y-72323373D01*
X142703557Y-72153534D01*
X142703557Y-72153533D01*
X142787221Y-71997011D01*
X142787222Y-71997009D01*
X142816552Y-71961271D01*
X142899814Y-71859814D01*
X143001271Y-71776552D01*
X143037009Y-71747222D01*
X143083481Y-71722382D01*
X143193533Y-71663557D01*
X143250147Y-71646384D01*
X143363373Y-71612037D01*
X143429557Y-71605519D01*
X143495740Y-71599000D01*
X143584260Y-71599000D01*
X143650443Y-71605519D01*
X143650443Y-71605519D01*
G37*
G36*
X141901000Y-73401000D02*
X140099000Y-73401000D01*
X140099000Y-71599000D01*
X141901000Y-71599000D01*
X141901000Y-73401000D01*
X141901000Y-73401000D01*
G37*
G36*
X114926565Y-70989389D02*
X115117834Y-71068615D01*
X115289976Y-71183637D01*
X115436363Y-71330024D01*
X115551385Y-71502166D01*
X115630611Y-71693435D01*
X115671000Y-71896484D01*
X115671000Y-72103516D01*
X115630611Y-72306565D01*
X115551385Y-72497834D01*
X115436363Y-72669976D01*
X115289976Y-72816363D01*
X115117834Y-72931385D01*
X114926565Y-73010611D01*
X114723516Y-73051000D01*
X114516484Y-73051000D01*
X114313435Y-73010611D01*
X114122166Y-72931385D01*
X113950024Y-72816363D01*
X113803637Y-72669976D01*
X113688615Y-72497834D01*
X113609389Y-72306565D01*
X113569000Y-72103516D01*
X113569000Y-71896484D01*
X113609389Y-71693435D01*
X113688615Y-71502166D01*
X113803637Y-71330024D01*
X113950024Y-71183637D01*
X114122166Y-71068615D01*
X114313435Y-70989389D01*
X114516484Y-70949000D01*
X114723516Y-70949000D01*
X114926565Y-70989389D01*
X114926565Y-70989389D01*
G37*
G36*
X107306565Y-70989389D02*
X107497834Y-71068615D01*
X107669976Y-71183637D01*
X107816363Y-71330024D01*
X107931385Y-71502166D01*
X108010611Y-71693435D01*
X108051000Y-71896484D01*
X108051000Y-72103516D01*
X108010611Y-72306565D01*
X107931385Y-72497834D01*
X107816363Y-72669976D01*
X107669976Y-72816363D01*
X107497834Y-72931385D01*
X107306565Y-73010611D01*
X107103516Y-73051000D01*
X106896484Y-73051000D01*
X106693435Y-73010611D01*
X106502166Y-72931385D01*
X106330024Y-72816363D01*
X106183637Y-72669976D01*
X106068615Y-72497834D01*
X105989389Y-72306565D01*
X105949000Y-72103516D01*
X105949000Y-71896484D01*
X105989389Y-71693435D01*
X106068615Y-71502166D01*
X106183637Y-71330024D01*
X106330024Y-71183637D01*
X106502166Y-71068615D01*
X106693435Y-70989389D01*
X106896484Y-70949000D01*
X107103516Y-70949000D01*
X107306565Y-70989389D01*
X107306565Y-70989389D01*
G37*
G36*
X112207617Y-71208420D02*
X112289426Y-71233237D01*
X112330332Y-71245645D01*
X112390782Y-71277957D01*
X112443425Y-71306095D01*
X112542553Y-71387447D01*
X112623905Y-71486574D01*
X112623906Y-71486576D01*
X112684355Y-71599667D01*
X112688107Y-71612037D01*
X112721580Y-71722382D01*
X112731000Y-71818027D01*
X112731000Y-72181972D01*
X112721580Y-72277617D01*
X112696763Y-72359427D01*
X112684355Y-72400333D01*
X112632239Y-72497834D01*
X112623905Y-72513426D01*
X112542553Y-72612553D01*
X112443426Y-72693905D01*
X112443424Y-72693906D01*
X112330333Y-72754355D01*
X112289427Y-72766763D01*
X112207618Y-72791580D01*
X112080000Y-72804149D01*
X111952383Y-72791580D01*
X111870574Y-72766763D01*
X111829668Y-72754355D01*
X111769218Y-72722043D01*
X111716575Y-72693905D01*
X111695519Y-72676625D01*
X111617449Y-72612555D01*
X111576772Y-72562990D01*
X111536095Y-72513426D01*
X111527761Y-72497834D01*
X111475645Y-72400333D01*
X111463237Y-72359427D01*
X111438420Y-72277618D01*
X111429000Y-72181973D01*
X111429000Y-71818028D01*
X111438420Y-71722383D01*
X111475645Y-71599669D01*
X111475645Y-71599668D01*
X111507957Y-71539218D01*
X111536095Y-71486575D01*
X111617447Y-71387447D01*
X111716574Y-71306095D01*
X111729509Y-71299181D01*
X111829667Y-71245645D01*
X111870573Y-71233237D01*
X111952382Y-71208420D01*
X112080000Y-71195851D01*
X112207617Y-71208420D01*
X112207617Y-71208420D01*
G37*
G36*
X109667617Y-71208420D02*
X109749426Y-71233237D01*
X109790332Y-71245645D01*
X109850782Y-71277957D01*
X109903425Y-71306095D01*
X110002553Y-71387447D01*
X110083905Y-71486574D01*
X110083906Y-71486576D01*
X110144355Y-71599667D01*
X110148107Y-71612037D01*
X110181580Y-71722382D01*
X110191000Y-71818027D01*
X110191000Y-72181972D01*
X110181580Y-72277617D01*
X110156763Y-72359427D01*
X110144355Y-72400333D01*
X110092239Y-72497834D01*
X110083905Y-72513426D01*
X110002553Y-72612553D01*
X109903426Y-72693905D01*
X109903424Y-72693906D01*
X109790333Y-72754355D01*
X109749427Y-72766763D01*
X109667618Y-72791580D01*
X109540000Y-72804149D01*
X109412383Y-72791580D01*
X109330574Y-72766763D01*
X109289668Y-72754355D01*
X109229218Y-72722043D01*
X109176575Y-72693905D01*
X109155519Y-72676625D01*
X109077449Y-72612555D01*
X109036772Y-72562990D01*
X108996095Y-72513426D01*
X108987761Y-72497834D01*
X108935645Y-72400333D01*
X108923237Y-72359427D01*
X108898420Y-72277618D01*
X108889000Y-72181973D01*
X108889000Y-71818028D01*
X108898420Y-71722383D01*
X108935645Y-71599669D01*
X108935645Y-71599668D01*
X108967957Y-71539218D01*
X108996095Y-71486575D01*
X109077447Y-71387447D01*
X109176574Y-71306095D01*
X109189509Y-71299181D01*
X109289667Y-71245645D01*
X109330573Y-71233237D01*
X109412382Y-71208420D01*
X109540000Y-71195851D01*
X109667617Y-71208420D01*
X109667617Y-71208420D01*
G37*
G36*
X130641000Y-68275000D02*
X126539000Y-68275000D01*
X126539000Y-60173000D01*
X130641000Y-60173000D01*
X130641000Y-68275000D01*
X130641000Y-68275000D01*
G37*
G36*
X158260547Y-65862326D02*
X158376286Y-65897435D01*
X158434157Y-65914990D01*
X158455718Y-65926515D01*
X158594155Y-66000511D01*
X158734396Y-66115604D01*
X158849489Y-66255844D01*
X158889298Y-66330321D01*
X158935010Y-66415842D01*
X158952565Y-66473713D01*
X158987674Y-66589452D01*
X159001000Y-66724756D01*
X159001000Y-67275243D01*
X158987674Y-67410548D01*
X158935010Y-67584157D01*
X158849489Y-67744156D01*
X158734396Y-67884396D01*
X158594156Y-67999489D01*
X158530750Y-68033380D01*
X158434158Y-68085010D01*
X158387551Y-68099148D01*
X158260548Y-68137674D01*
X158080000Y-68155456D01*
X157899453Y-68137674D01*
X157772450Y-68099148D01*
X157725843Y-68085010D01*
X157629251Y-68033380D01*
X157565845Y-67999489D01*
X157425605Y-67884396D01*
X157310512Y-67744156D01*
X157270703Y-67669680D01*
X157224990Y-67584158D01*
X157207435Y-67526287D01*
X157172326Y-67410548D01*
X157159000Y-67275244D01*
X157159000Y-66724757D01*
X157172326Y-66589453D01*
X157224990Y-66415844D01*
X157224990Y-66415843D01*
X157256183Y-66357486D01*
X157310511Y-66255845D01*
X157425604Y-66115604D01*
X157565844Y-66000511D01*
X157702685Y-65927368D01*
X157725842Y-65914990D01*
X157783713Y-65897435D01*
X157899452Y-65862326D01*
X158080000Y-65844544D01*
X158260547Y-65862326D01*
X158260547Y-65862326D01*
G37*
G36*
X136720547Y-65862326D02*
X136836286Y-65897435D01*
X136894157Y-65914990D01*
X136915718Y-65926515D01*
X137054155Y-66000511D01*
X137194396Y-66115604D01*
X137309489Y-66255844D01*
X137349298Y-66330321D01*
X137395010Y-66415842D01*
X137412565Y-66473713D01*
X137447674Y-66589452D01*
X137461000Y-66724756D01*
X137461000Y-67275243D01*
X137447674Y-67410548D01*
X137395010Y-67584157D01*
X137309489Y-67744156D01*
X137194396Y-67884396D01*
X137054156Y-67999489D01*
X136990750Y-68033380D01*
X136894158Y-68085010D01*
X136847551Y-68099148D01*
X136720548Y-68137674D01*
X136540000Y-68155456D01*
X136359453Y-68137674D01*
X136232450Y-68099148D01*
X136185843Y-68085010D01*
X136089251Y-68033380D01*
X136025845Y-67999489D01*
X135885605Y-67884396D01*
X135770512Y-67744156D01*
X135730703Y-67669680D01*
X135684990Y-67584158D01*
X135667435Y-67526287D01*
X135632326Y-67410548D01*
X135619000Y-67275244D01*
X135619000Y-66724757D01*
X135632326Y-66589453D01*
X135684990Y-66415844D01*
X135684990Y-66415843D01*
X135716183Y-66357486D01*
X135770511Y-66255845D01*
X135885604Y-66115604D01*
X136025844Y-66000511D01*
X136162685Y-65927368D01*
X136185842Y-65914990D01*
X136243713Y-65897435D01*
X136359452Y-65862326D01*
X136540000Y-65844544D01*
X136720547Y-65862326D01*
X136720547Y-65862326D01*
G37*
G36*
X160800547Y-65862326D02*
X160916286Y-65897435D01*
X160974157Y-65914990D01*
X160995718Y-65926515D01*
X161134155Y-66000511D01*
X161274396Y-66115604D01*
X161389489Y-66255844D01*
X161429298Y-66330321D01*
X161475010Y-66415842D01*
X161492565Y-66473713D01*
X161527674Y-66589452D01*
X161541000Y-66724756D01*
X161541000Y-67275243D01*
X161527674Y-67410548D01*
X161475010Y-67584157D01*
X161389489Y-67744156D01*
X161274396Y-67884396D01*
X161134156Y-67999489D01*
X161070750Y-68033380D01*
X160974158Y-68085010D01*
X160927551Y-68099148D01*
X160800548Y-68137674D01*
X160620000Y-68155456D01*
X160439453Y-68137674D01*
X160312450Y-68099148D01*
X160265843Y-68085010D01*
X160169251Y-68033380D01*
X160105845Y-67999489D01*
X159965605Y-67884396D01*
X159850512Y-67744156D01*
X159810703Y-67669680D01*
X159764990Y-67584158D01*
X159747435Y-67526287D01*
X159712326Y-67410548D01*
X159699000Y-67275244D01*
X159699000Y-66724757D01*
X159712326Y-66589453D01*
X159764990Y-66415844D01*
X159764990Y-66415843D01*
X159796183Y-66357486D01*
X159850511Y-66255845D01*
X159965604Y-66115604D01*
X160105844Y-66000511D01*
X160242685Y-65927368D01*
X160265842Y-65914990D01*
X160323713Y-65897435D01*
X160439452Y-65862326D01*
X160620000Y-65844544D01*
X160800547Y-65862326D01*
X160800547Y-65862326D01*
G37*
G36*
X155720547Y-65862326D02*
X155836286Y-65897435D01*
X155894157Y-65914990D01*
X155915718Y-65926515D01*
X156054155Y-66000511D01*
X156194396Y-66115604D01*
X156309489Y-66255844D01*
X156349298Y-66330321D01*
X156395010Y-66415842D01*
X156412565Y-66473713D01*
X156447674Y-66589452D01*
X156461000Y-66724756D01*
X156461000Y-67275243D01*
X156447674Y-67410548D01*
X156395010Y-67584157D01*
X156309489Y-67744156D01*
X156194396Y-67884396D01*
X156054156Y-67999489D01*
X155990750Y-68033380D01*
X155894158Y-68085010D01*
X155847551Y-68099148D01*
X155720548Y-68137674D01*
X155540000Y-68155456D01*
X155359453Y-68137674D01*
X155232450Y-68099148D01*
X155185843Y-68085010D01*
X155089251Y-68033380D01*
X155025845Y-67999489D01*
X154885605Y-67884396D01*
X154770512Y-67744156D01*
X154730703Y-67669680D01*
X154684990Y-67584158D01*
X154667435Y-67526287D01*
X154632326Y-67410548D01*
X154619000Y-67275244D01*
X154619000Y-66724757D01*
X154632326Y-66589453D01*
X154684990Y-66415844D01*
X154684990Y-66415843D01*
X154716183Y-66357486D01*
X154770511Y-66255845D01*
X154885604Y-66115604D01*
X155025844Y-66000511D01*
X155162685Y-65927368D01*
X155185842Y-65914990D01*
X155243713Y-65897435D01*
X155359452Y-65862326D01*
X155540000Y-65844544D01*
X155720547Y-65862326D01*
X155720547Y-65862326D01*
G37*
G36*
X144340547Y-65862326D02*
X144456286Y-65897435D01*
X144514157Y-65914990D01*
X144535718Y-65926515D01*
X144674155Y-66000511D01*
X144814396Y-66115604D01*
X144929489Y-66255844D01*
X144969298Y-66330321D01*
X145015010Y-66415842D01*
X145032565Y-66473713D01*
X145067674Y-66589452D01*
X145081000Y-66724756D01*
X145081000Y-67275243D01*
X145067674Y-67410548D01*
X145015010Y-67584157D01*
X144929489Y-67744156D01*
X144814396Y-67884396D01*
X144674156Y-67999489D01*
X144610750Y-68033380D01*
X144514158Y-68085010D01*
X144467551Y-68099148D01*
X144340548Y-68137674D01*
X144160000Y-68155456D01*
X143979453Y-68137674D01*
X143852450Y-68099148D01*
X143805843Y-68085010D01*
X143709251Y-68033380D01*
X143645845Y-67999489D01*
X143505605Y-67884396D01*
X143390512Y-67744156D01*
X143350703Y-67669680D01*
X143304990Y-67584158D01*
X143287435Y-67526287D01*
X143252326Y-67410548D01*
X143239000Y-67275244D01*
X143239000Y-66724757D01*
X143252326Y-66589453D01*
X143304990Y-66415844D01*
X143304990Y-66415843D01*
X143336183Y-66357486D01*
X143390511Y-66255845D01*
X143505604Y-66115604D01*
X143645844Y-66000511D01*
X143782685Y-65927368D01*
X143805842Y-65914990D01*
X143863713Y-65897435D01*
X143979452Y-65862326D01*
X144160000Y-65844544D01*
X144340547Y-65862326D01*
X144340547Y-65862326D01*
G37*
G36*
X141800547Y-65862326D02*
X141916286Y-65897435D01*
X141974157Y-65914990D01*
X141995718Y-65926515D01*
X142134155Y-66000511D01*
X142274396Y-66115604D01*
X142389489Y-66255844D01*
X142429298Y-66330321D01*
X142475010Y-66415842D01*
X142492565Y-66473713D01*
X142527674Y-66589452D01*
X142541000Y-66724756D01*
X142541000Y-67275243D01*
X142527674Y-67410548D01*
X142475010Y-67584157D01*
X142389489Y-67744156D01*
X142274396Y-67884396D01*
X142134156Y-67999489D01*
X142070750Y-68033380D01*
X141974158Y-68085010D01*
X141927551Y-68099148D01*
X141800548Y-68137674D01*
X141620000Y-68155456D01*
X141439453Y-68137674D01*
X141312450Y-68099148D01*
X141265843Y-68085010D01*
X141169251Y-68033380D01*
X141105845Y-67999489D01*
X140965605Y-67884396D01*
X140850512Y-67744156D01*
X140810703Y-67669680D01*
X140764990Y-67584158D01*
X140747435Y-67526287D01*
X140712326Y-67410548D01*
X140699000Y-67275244D01*
X140699000Y-66724757D01*
X140712326Y-66589453D01*
X140764990Y-66415844D01*
X140764990Y-66415843D01*
X140796183Y-66357486D01*
X140850511Y-66255845D01*
X140965604Y-66115604D01*
X141105844Y-66000511D01*
X141242685Y-65927368D01*
X141265842Y-65914990D01*
X141323713Y-65897435D01*
X141439452Y-65862326D01*
X141620000Y-65844544D01*
X141800547Y-65862326D01*
X141800547Y-65862326D01*
G37*
G36*
X146880547Y-65862326D02*
X146996286Y-65897435D01*
X147054157Y-65914990D01*
X147075718Y-65926515D01*
X147214155Y-66000511D01*
X147354396Y-66115604D01*
X147469489Y-66255844D01*
X147509298Y-66330321D01*
X147555010Y-66415842D01*
X147572565Y-66473713D01*
X147607674Y-66589452D01*
X147621000Y-66724756D01*
X147621000Y-67275243D01*
X147607674Y-67410548D01*
X147555010Y-67584157D01*
X147469489Y-67744156D01*
X147354396Y-67884396D01*
X147214156Y-67999489D01*
X147150750Y-68033380D01*
X147054158Y-68085010D01*
X147007551Y-68099148D01*
X146880548Y-68137674D01*
X146700000Y-68155456D01*
X146519453Y-68137674D01*
X146392450Y-68099148D01*
X146345843Y-68085010D01*
X146249251Y-68033380D01*
X146185845Y-67999489D01*
X146045605Y-67884396D01*
X145930512Y-67744156D01*
X145890703Y-67669680D01*
X145844990Y-67584158D01*
X145827435Y-67526287D01*
X145792326Y-67410548D01*
X145779000Y-67275244D01*
X145779000Y-66724757D01*
X145792326Y-66589453D01*
X145844990Y-66415844D01*
X145844990Y-66415843D01*
X145876183Y-66357486D01*
X145930511Y-66255845D01*
X146045604Y-66115604D01*
X146185844Y-66000511D01*
X146322685Y-65927368D01*
X146345842Y-65914990D01*
X146403713Y-65897435D01*
X146519452Y-65862326D01*
X146700000Y-65844544D01*
X146880547Y-65862326D01*
X146880547Y-65862326D01*
G37*
G36*
X139260547Y-65862326D02*
X139376286Y-65897435D01*
X139434157Y-65914990D01*
X139455718Y-65926515D01*
X139594155Y-66000511D01*
X139734396Y-66115604D01*
X139849489Y-66255844D01*
X139889298Y-66330321D01*
X139935010Y-66415842D01*
X139952565Y-66473713D01*
X139987674Y-66589452D01*
X140001000Y-66724756D01*
X140001000Y-67275243D01*
X139987674Y-67410548D01*
X139935010Y-67584157D01*
X139849489Y-67744156D01*
X139734396Y-67884396D01*
X139594156Y-67999489D01*
X139530750Y-68033380D01*
X139434158Y-68085010D01*
X139387551Y-68099148D01*
X139260548Y-68137674D01*
X139080000Y-68155456D01*
X138899453Y-68137674D01*
X138772450Y-68099148D01*
X138725843Y-68085010D01*
X138629251Y-68033380D01*
X138565845Y-67999489D01*
X138425605Y-67884396D01*
X138310512Y-67744156D01*
X138270703Y-67669680D01*
X138224990Y-67584158D01*
X138207435Y-67526287D01*
X138172326Y-67410548D01*
X138159000Y-67275244D01*
X138159000Y-66724757D01*
X138172326Y-66589453D01*
X138224990Y-66415844D01*
X138224990Y-66415843D01*
X138256183Y-66357486D01*
X138310511Y-66255845D01*
X138425604Y-66115604D01*
X138565844Y-66000511D01*
X138702685Y-65927368D01*
X138725842Y-65914990D01*
X138783713Y-65897435D01*
X138899452Y-65862326D01*
X139080000Y-65844544D01*
X139260547Y-65862326D01*
X139260547Y-65862326D01*
G37*
G36*
X153779560Y-65852966D02*
X153812383Y-65862923D01*
X153842632Y-65879092D01*
X153869148Y-65900852D01*
X153890908Y-65927368D01*
X153907077Y-65957617D01*
X153917034Y-65990440D01*
X153921000Y-66030712D01*
X153921000Y-67969288D01*
X153917034Y-68009560D01*
X153907077Y-68042383D01*
X153890908Y-68072632D01*
X153869148Y-68099148D01*
X153842632Y-68120908D01*
X153812383Y-68137077D01*
X153779560Y-68147034D01*
X153739288Y-68151000D01*
X152260712Y-68151000D01*
X152220440Y-68147034D01*
X152187617Y-68137077D01*
X152157368Y-68120908D01*
X152130852Y-68099148D01*
X152109092Y-68072632D01*
X152092923Y-68042383D01*
X152082966Y-68009560D01*
X152079000Y-67969288D01*
X152079000Y-66030712D01*
X152082966Y-65990440D01*
X152092923Y-65957617D01*
X152109092Y-65927368D01*
X152130852Y-65900852D01*
X152157368Y-65879092D01*
X152187617Y-65862923D01*
X152220440Y-65852966D01*
X152260712Y-65849000D01*
X153739288Y-65849000D01*
X153779560Y-65852966D01*
X153779560Y-65852966D01*
G37*
G36*
X134779560Y-65852966D02*
X134812383Y-65862923D01*
X134842632Y-65879092D01*
X134869148Y-65900852D01*
X134890908Y-65927368D01*
X134907077Y-65957617D01*
X134917034Y-65990440D01*
X134921000Y-66030712D01*
X134921000Y-67969288D01*
X134917034Y-68009560D01*
X134907077Y-68042383D01*
X134890908Y-68072632D01*
X134869148Y-68099148D01*
X134842632Y-68120908D01*
X134812383Y-68137077D01*
X134779560Y-68147034D01*
X134739288Y-68151000D01*
X133260712Y-68151000D01*
X133220440Y-68147034D01*
X133187617Y-68137077D01*
X133157368Y-68120908D01*
X133130852Y-68099148D01*
X133109092Y-68072632D01*
X133092923Y-68042383D01*
X133082966Y-68009560D01*
X133079000Y-67969288D01*
X133079000Y-66030712D01*
X133082966Y-65990440D01*
X133092923Y-65957617D01*
X133109092Y-65927368D01*
X133130852Y-65900852D01*
X133157368Y-65879092D01*
X133187617Y-65862923D01*
X133220440Y-65852966D01*
X133260712Y-65849000D01*
X134739288Y-65849000D01*
X134779560Y-65852966D01*
X134779560Y-65852966D01*
G37*
G36*
X109813000Y-68021000D02*
X105711000Y-68021000D01*
X105711000Y-59919000D01*
X109813000Y-59919000D01*
X109813000Y-68021000D01*
X109813000Y-68021000D01*
G37*
G36*
X202407025Y-61810590D02*
X202558012Y-61856392D01*
X202697165Y-61930770D01*
X202819133Y-62030867D01*
X202919230Y-62152835D01*
X202993608Y-62291988D01*
X203039410Y-62442975D01*
X203054875Y-62600000D01*
X203039410Y-62757025D01*
X202993608Y-62908012D01*
X202919230Y-63047165D01*
X202819133Y-63169133D01*
X202697165Y-63269230D01*
X202558012Y-63343608D01*
X202407025Y-63389410D01*
X202289346Y-63401000D01*
X201710654Y-63401000D01*
X201592975Y-63389410D01*
X201441988Y-63343608D01*
X201302835Y-63269230D01*
X201180867Y-63169133D01*
X201080770Y-63047165D01*
X201006392Y-62908012D01*
X200960590Y-62757025D01*
X200945125Y-62600000D01*
X200960590Y-62442975D01*
X201006392Y-62291988D01*
X201080770Y-62152835D01*
X201180867Y-62030867D01*
X201302835Y-61930770D01*
X201441988Y-61856392D01*
X201592975Y-61810590D01*
X201710654Y-61799000D01*
X202289346Y-61799000D01*
X202407025Y-61810590D01*
X202407025Y-61810590D01*
G37*
G36*
X133551000Y-61051000D02*
X132449000Y-61051000D01*
X132449000Y-58949000D01*
X133551000Y-58949000D01*
X133551000Y-61051000D01*
X133551000Y-61051000D01*
G37*
G36*
X135551000Y-61051000D02*
X134449000Y-61051000D01*
X134449000Y-58949000D01*
X135551000Y-58949000D01*
X135551000Y-61051000D01*
X135551000Y-61051000D01*
G37*
G36*
X137551000Y-61051000D02*
X136449000Y-61051000D01*
X136449000Y-58949000D01*
X137551000Y-58949000D01*
X137551000Y-61051000D01*
X137551000Y-61051000D01*
G37*
G36*
X139551000Y-61051000D02*
X138449000Y-61051000D01*
X138449000Y-58949000D01*
X139551000Y-58949000D01*
X139551000Y-61051000D01*
X139551000Y-61051000D01*
G37*
G36*
X145551000Y-61051000D02*
X144449000Y-61051000D01*
X144449000Y-58949000D01*
X145551000Y-58949000D01*
X145551000Y-61051000D01*
X145551000Y-61051000D01*
G37*
G36*
X147551000Y-61051000D02*
X146449000Y-61051000D01*
X146449000Y-58949000D01*
X147551000Y-58949000D01*
X147551000Y-61051000D01*
X147551000Y-61051000D01*
G37*
G36*
X143551000Y-61051000D02*
X142449000Y-61051000D01*
X142449000Y-58949000D01*
X143551000Y-58949000D01*
X143551000Y-61051000D01*
X143551000Y-61051000D01*
G37*
G36*
X141551000Y-61051000D02*
X140449000Y-61051000D01*
X140449000Y-58949000D01*
X141551000Y-58949000D01*
X141551000Y-61051000D01*
X141551000Y-61051000D01*
G37*
G36*
X202407025Y-59270590D02*
X202558012Y-59316392D01*
X202697165Y-59390770D01*
X202819133Y-59490867D01*
X202919230Y-59612835D01*
X202993608Y-59751988D01*
X203039410Y-59902975D01*
X203054875Y-60060000D01*
X203039410Y-60217025D01*
X202993608Y-60368012D01*
X202919230Y-60507165D01*
X202819133Y-60629133D01*
X202697165Y-60729230D01*
X202558012Y-60803608D01*
X202407025Y-60849410D01*
X202289346Y-60861000D01*
X201710654Y-60861000D01*
X201592975Y-60849410D01*
X201441988Y-60803608D01*
X201302835Y-60729230D01*
X201180867Y-60629133D01*
X201080770Y-60507165D01*
X201006392Y-60368012D01*
X200960590Y-60217025D01*
X200945125Y-60060000D01*
X200960590Y-59902975D01*
X201006392Y-59751988D01*
X201080770Y-59612835D01*
X201180867Y-59490867D01*
X201302835Y-59390770D01*
X201441988Y-59316392D01*
X201592975Y-59270590D01*
X201710654Y-59259000D01*
X202289346Y-59259000D01*
X202407025Y-59270590D01*
X202407025Y-59270590D01*
G37*
G36*
X202407025Y-56730590D02*
X202558012Y-56776392D01*
X202697165Y-56850770D01*
X202819133Y-56950867D01*
X202919230Y-57072835D01*
X202993608Y-57211988D01*
X203039410Y-57362975D01*
X203054875Y-57520000D01*
X203039410Y-57677025D01*
X202993608Y-57828012D01*
X202919230Y-57967165D01*
X202819133Y-58089133D01*
X202697165Y-58189230D01*
X202558012Y-58263608D01*
X202407025Y-58309410D01*
X202289346Y-58321000D01*
X201710654Y-58321000D01*
X201592975Y-58309410D01*
X201441988Y-58263608D01*
X201302835Y-58189230D01*
X201180867Y-58089133D01*
X201080770Y-57967165D01*
X201006392Y-57828012D01*
X200960590Y-57677025D01*
X200945125Y-57520000D01*
X200960590Y-57362975D01*
X201006392Y-57211988D01*
X201080770Y-57072835D01*
X201180867Y-56950867D01*
X201302835Y-56850770D01*
X201441988Y-56776392D01*
X201592975Y-56730590D01*
X201710654Y-56719000D01*
X202289346Y-56719000D01*
X202407025Y-56730590D01*
X202407025Y-56730590D01*
G37*
G36*
X158260547Y-55862326D02*
X158376286Y-55897435D01*
X158434157Y-55914990D01*
X158455718Y-55926515D01*
X158594155Y-56000511D01*
X158734396Y-56115604D01*
X158849489Y-56255844D01*
X158889298Y-56330321D01*
X158935010Y-56415842D01*
X158952565Y-56473713D01*
X158987674Y-56589452D01*
X159001000Y-56724756D01*
X159001000Y-57275243D01*
X158987674Y-57410548D01*
X158935010Y-57584157D01*
X158849489Y-57744156D01*
X158734396Y-57884396D01*
X158594156Y-57999489D01*
X158575314Y-58009560D01*
X158434158Y-58085010D01*
X158387551Y-58099148D01*
X158260548Y-58137674D01*
X158080000Y-58155456D01*
X157899453Y-58137674D01*
X157772450Y-58099148D01*
X157725843Y-58085010D01*
X157584687Y-58009560D01*
X157565845Y-57999489D01*
X157425605Y-57884396D01*
X157310512Y-57744156D01*
X157270703Y-57669680D01*
X157224990Y-57584158D01*
X157205528Y-57520000D01*
X157172326Y-57410548D01*
X157159000Y-57275244D01*
X157159000Y-56724757D01*
X157172326Y-56589453D01*
X157224990Y-56415844D01*
X157224990Y-56415843D01*
X157256183Y-56357486D01*
X157310511Y-56255845D01*
X157425604Y-56115604D01*
X157565844Y-56000511D01*
X157702685Y-55927368D01*
X157725842Y-55914990D01*
X157783713Y-55897435D01*
X157899452Y-55862326D01*
X158080000Y-55844544D01*
X158260547Y-55862326D01*
X158260547Y-55862326D01*
G37*
G36*
X160800547Y-55862326D02*
X160916286Y-55897435D01*
X160974157Y-55914990D01*
X160995718Y-55926515D01*
X161134155Y-56000511D01*
X161274396Y-56115604D01*
X161389489Y-56255844D01*
X161429298Y-56330321D01*
X161475010Y-56415842D01*
X161492565Y-56473713D01*
X161527674Y-56589452D01*
X161541000Y-56724756D01*
X161541000Y-57275243D01*
X161527674Y-57410548D01*
X161475010Y-57584157D01*
X161389489Y-57744156D01*
X161274396Y-57884396D01*
X161134156Y-57999489D01*
X161115314Y-58009560D01*
X160974158Y-58085010D01*
X160927551Y-58099148D01*
X160800548Y-58137674D01*
X160620000Y-58155456D01*
X160439453Y-58137674D01*
X160312450Y-58099148D01*
X160265843Y-58085010D01*
X160124687Y-58009560D01*
X160105845Y-57999489D01*
X159965605Y-57884396D01*
X159850512Y-57744156D01*
X159810703Y-57669680D01*
X159764990Y-57584158D01*
X159745528Y-57520000D01*
X159712326Y-57410548D01*
X159699000Y-57275244D01*
X159699000Y-56724757D01*
X159712326Y-56589453D01*
X159764990Y-56415844D01*
X159764990Y-56415843D01*
X159796183Y-56357486D01*
X159850511Y-56255845D01*
X159965604Y-56115604D01*
X160105844Y-56000511D01*
X160242685Y-55927368D01*
X160265842Y-55914990D01*
X160323713Y-55897435D01*
X160439452Y-55862326D01*
X160620000Y-55844544D01*
X160800547Y-55862326D01*
X160800547Y-55862326D01*
G37*
G36*
X193880547Y-55862326D02*
X193996286Y-55897435D01*
X194054157Y-55914990D01*
X194075718Y-55926515D01*
X194214155Y-56000511D01*
X194354396Y-56115604D01*
X194469489Y-56255844D01*
X194509298Y-56330321D01*
X194555010Y-56415842D01*
X194572565Y-56473713D01*
X194607674Y-56589452D01*
X194621000Y-56724756D01*
X194621000Y-57275243D01*
X194607674Y-57410548D01*
X194555010Y-57584157D01*
X194469489Y-57744156D01*
X194354396Y-57884396D01*
X194214156Y-57999489D01*
X194195314Y-58009560D01*
X194054158Y-58085010D01*
X194007551Y-58099148D01*
X193880548Y-58137674D01*
X193700000Y-58155456D01*
X193519453Y-58137674D01*
X193392450Y-58099148D01*
X193345843Y-58085010D01*
X193204687Y-58009560D01*
X193185845Y-57999489D01*
X193045605Y-57884396D01*
X192930512Y-57744156D01*
X192890703Y-57669680D01*
X192844990Y-57584158D01*
X192825528Y-57520000D01*
X192792326Y-57410548D01*
X192779000Y-57275244D01*
X192779000Y-56724757D01*
X192792326Y-56589453D01*
X192844990Y-56415844D01*
X192844990Y-56415843D01*
X192876183Y-56357486D01*
X192930511Y-56255845D01*
X193045604Y-56115604D01*
X193185844Y-56000511D01*
X193322685Y-55927368D01*
X193345842Y-55914990D01*
X193403713Y-55897435D01*
X193519452Y-55862326D01*
X193700000Y-55844544D01*
X193880547Y-55862326D01*
X193880547Y-55862326D01*
G37*
G36*
X191340547Y-55862326D02*
X191456286Y-55897435D01*
X191514157Y-55914990D01*
X191535718Y-55926515D01*
X191674155Y-56000511D01*
X191814396Y-56115604D01*
X191929489Y-56255844D01*
X191969298Y-56330321D01*
X192015010Y-56415842D01*
X192032565Y-56473713D01*
X192067674Y-56589452D01*
X192081000Y-56724756D01*
X192081000Y-57275243D01*
X192067674Y-57410548D01*
X192015010Y-57584157D01*
X191929489Y-57744156D01*
X191814396Y-57884396D01*
X191674156Y-57999489D01*
X191655314Y-58009560D01*
X191514158Y-58085010D01*
X191467551Y-58099148D01*
X191340548Y-58137674D01*
X191160000Y-58155456D01*
X190979453Y-58137674D01*
X190852450Y-58099148D01*
X190805843Y-58085010D01*
X190664687Y-58009560D01*
X190645845Y-57999489D01*
X190505605Y-57884396D01*
X190390512Y-57744156D01*
X190350703Y-57669680D01*
X190304990Y-57584158D01*
X190285528Y-57520000D01*
X190252326Y-57410548D01*
X190239000Y-57275244D01*
X190239000Y-56724757D01*
X190252326Y-56589453D01*
X190304990Y-56415844D01*
X190304990Y-56415843D01*
X190336183Y-56357486D01*
X190390511Y-56255845D01*
X190505604Y-56115604D01*
X190645844Y-56000511D01*
X190782685Y-55927368D01*
X190805842Y-55914990D01*
X190863713Y-55897435D01*
X190979452Y-55862326D01*
X191160000Y-55844544D01*
X191340547Y-55862326D01*
X191340547Y-55862326D01*
G37*
G36*
X188800547Y-55862326D02*
X188916286Y-55897435D01*
X188974157Y-55914990D01*
X188995718Y-55926515D01*
X189134155Y-56000511D01*
X189274396Y-56115604D01*
X189389489Y-56255844D01*
X189429298Y-56330321D01*
X189475010Y-56415842D01*
X189492565Y-56473713D01*
X189527674Y-56589452D01*
X189541000Y-56724756D01*
X189541000Y-57275243D01*
X189527674Y-57410548D01*
X189475010Y-57584157D01*
X189389489Y-57744156D01*
X189274396Y-57884396D01*
X189134156Y-57999489D01*
X189115314Y-58009560D01*
X188974158Y-58085010D01*
X188927551Y-58099148D01*
X188800548Y-58137674D01*
X188620000Y-58155456D01*
X188439453Y-58137674D01*
X188312450Y-58099148D01*
X188265843Y-58085010D01*
X188124687Y-58009560D01*
X188105845Y-57999489D01*
X187965605Y-57884396D01*
X187850512Y-57744156D01*
X187810703Y-57669680D01*
X187764990Y-57584158D01*
X187745528Y-57520000D01*
X187712326Y-57410548D01*
X187699000Y-57275244D01*
X187699000Y-56724757D01*
X187712326Y-56589453D01*
X187764990Y-56415844D01*
X187764990Y-56415843D01*
X187796183Y-56357486D01*
X187850511Y-56255845D01*
X187965604Y-56115604D01*
X188105844Y-56000511D01*
X188242685Y-55927368D01*
X188265842Y-55914990D01*
X188323713Y-55897435D01*
X188439452Y-55862326D01*
X188620000Y-55844544D01*
X188800547Y-55862326D01*
X188800547Y-55862326D01*
G37*
G36*
X183720547Y-55862326D02*
X183836286Y-55897435D01*
X183894157Y-55914990D01*
X183915718Y-55926515D01*
X184054155Y-56000511D01*
X184194396Y-56115604D01*
X184309489Y-56255844D01*
X184349298Y-56330321D01*
X184395010Y-56415842D01*
X184412565Y-56473713D01*
X184447674Y-56589452D01*
X184461000Y-56724756D01*
X184461000Y-57275243D01*
X184447674Y-57410548D01*
X184395010Y-57584157D01*
X184309489Y-57744156D01*
X184194396Y-57884396D01*
X184054156Y-57999489D01*
X184035314Y-58009560D01*
X183894158Y-58085010D01*
X183847551Y-58099148D01*
X183720548Y-58137674D01*
X183540000Y-58155456D01*
X183359453Y-58137674D01*
X183232450Y-58099148D01*
X183185843Y-58085010D01*
X183044687Y-58009560D01*
X183025845Y-57999489D01*
X182885605Y-57884396D01*
X182770512Y-57744156D01*
X182730703Y-57669680D01*
X182684990Y-57584158D01*
X182665528Y-57520000D01*
X182632326Y-57410548D01*
X182619000Y-57275244D01*
X182619000Y-56724757D01*
X182632326Y-56589453D01*
X182684990Y-56415844D01*
X182684990Y-56415843D01*
X182716183Y-56357486D01*
X182770511Y-56255845D01*
X182885604Y-56115604D01*
X183025844Y-56000511D01*
X183162685Y-55927368D01*
X183185842Y-55914990D01*
X183243713Y-55897435D01*
X183359452Y-55862326D01*
X183540000Y-55844544D01*
X183720547Y-55862326D01*
X183720547Y-55862326D01*
G37*
G36*
X174800547Y-55862326D02*
X174916286Y-55897435D01*
X174974157Y-55914990D01*
X174995718Y-55926515D01*
X175134155Y-56000511D01*
X175274396Y-56115604D01*
X175389489Y-56255844D01*
X175429298Y-56330321D01*
X175475010Y-56415842D01*
X175492565Y-56473713D01*
X175527674Y-56589452D01*
X175541000Y-56724756D01*
X175541000Y-57275243D01*
X175527674Y-57410548D01*
X175475010Y-57584157D01*
X175389489Y-57744156D01*
X175274396Y-57884396D01*
X175134156Y-57999489D01*
X175115314Y-58009560D01*
X174974158Y-58085010D01*
X174927551Y-58099148D01*
X174800548Y-58137674D01*
X174620000Y-58155456D01*
X174439453Y-58137674D01*
X174312450Y-58099148D01*
X174265843Y-58085010D01*
X174124687Y-58009560D01*
X174105845Y-57999489D01*
X173965605Y-57884396D01*
X173850512Y-57744156D01*
X173810703Y-57669680D01*
X173764990Y-57584158D01*
X173745528Y-57520000D01*
X173712326Y-57410548D01*
X173699000Y-57275244D01*
X173699000Y-56724757D01*
X173712326Y-56589453D01*
X173764990Y-56415844D01*
X173764990Y-56415843D01*
X173796183Y-56357486D01*
X173850511Y-56255845D01*
X173965604Y-56115604D01*
X174105844Y-56000511D01*
X174242685Y-55927368D01*
X174265842Y-55914990D01*
X174323713Y-55897435D01*
X174439452Y-55862326D01*
X174620000Y-55844544D01*
X174800547Y-55862326D01*
X174800547Y-55862326D01*
G37*
G36*
X172260547Y-55862326D02*
X172376286Y-55897435D01*
X172434157Y-55914990D01*
X172455718Y-55926515D01*
X172594155Y-56000511D01*
X172734396Y-56115604D01*
X172849489Y-56255844D01*
X172889298Y-56330321D01*
X172935010Y-56415842D01*
X172952565Y-56473713D01*
X172987674Y-56589452D01*
X173001000Y-56724756D01*
X173001000Y-57275243D01*
X172987674Y-57410548D01*
X172935010Y-57584157D01*
X172849489Y-57744156D01*
X172734396Y-57884396D01*
X172594156Y-57999489D01*
X172575314Y-58009560D01*
X172434158Y-58085010D01*
X172387551Y-58099148D01*
X172260548Y-58137674D01*
X172080000Y-58155456D01*
X171899453Y-58137674D01*
X171772450Y-58099148D01*
X171725843Y-58085010D01*
X171584687Y-58009560D01*
X171565845Y-57999489D01*
X171425605Y-57884396D01*
X171310512Y-57744156D01*
X171270703Y-57669680D01*
X171224990Y-57584158D01*
X171205528Y-57520000D01*
X171172326Y-57410548D01*
X171159000Y-57275244D01*
X171159000Y-56724757D01*
X171172326Y-56589453D01*
X171224990Y-56415844D01*
X171224990Y-56415843D01*
X171256183Y-56357486D01*
X171310511Y-56255845D01*
X171425604Y-56115604D01*
X171565844Y-56000511D01*
X171702685Y-55927368D01*
X171725842Y-55914990D01*
X171783713Y-55897435D01*
X171899452Y-55862326D01*
X172080000Y-55844544D01*
X172260547Y-55862326D01*
X172260547Y-55862326D01*
G37*
G36*
X169720547Y-55862326D02*
X169836286Y-55897435D01*
X169894157Y-55914990D01*
X169915718Y-55926515D01*
X170054155Y-56000511D01*
X170194396Y-56115604D01*
X170309489Y-56255844D01*
X170349298Y-56330321D01*
X170395010Y-56415842D01*
X170412565Y-56473713D01*
X170447674Y-56589452D01*
X170461000Y-56724756D01*
X170461000Y-57275243D01*
X170447674Y-57410548D01*
X170395010Y-57584157D01*
X170309489Y-57744156D01*
X170194396Y-57884396D01*
X170054156Y-57999489D01*
X170035314Y-58009560D01*
X169894158Y-58085010D01*
X169847551Y-58099148D01*
X169720548Y-58137674D01*
X169540000Y-58155456D01*
X169359453Y-58137674D01*
X169232450Y-58099148D01*
X169185843Y-58085010D01*
X169044687Y-58009560D01*
X169025845Y-57999489D01*
X168885605Y-57884396D01*
X168770512Y-57744156D01*
X168730703Y-57669680D01*
X168684990Y-57584158D01*
X168665528Y-57520000D01*
X168632326Y-57410548D01*
X168619000Y-57275244D01*
X168619000Y-56724757D01*
X168632326Y-56589453D01*
X168684990Y-56415844D01*
X168684990Y-56415843D01*
X168716183Y-56357486D01*
X168770511Y-56255845D01*
X168885604Y-56115604D01*
X169025844Y-56000511D01*
X169162685Y-55927368D01*
X169185842Y-55914990D01*
X169243713Y-55897435D01*
X169359452Y-55862326D01*
X169540000Y-55844544D01*
X169720547Y-55862326D01*
X169720547Y-55862326D01*
G37*
G36*
X155720547Y-55862326D02*
X155836286Y-55897435D01*
X155894157Y-55914990D01*
X155915718Y-55926515D01*
X156054155Y-56000511D01*
X156194396Y-56115604D01*
X156309489Y-56255844D01*
X156349298Y-56330321D01*
X156395010Y-56415842D01*
X156412565Y-56473713D01*
X156447674Y-56589452D01*
X156461000Y-56724756D01*
X156461000Y-57275243D01*
X156447674Y-57410548D01*
X156395010Y-57584157D01*
X156309489Y-57744156D01*
X156194396Y-57884396D01*
X156054156Y-57999489D01*
X156035314Y-58009560D01*
X155894158Y-58085010D01*
X155847551Y-58099148D01*
X155720548Y-58137674D01*
X155540000Y-58155456D01*
X155359453Y-58137674D01*
X155232450Y-58099148D01*
X155185843Y-58085010D01*
X155044687Y-58009560D01*
X155025845Y-57999489D01*
X154885605Y-57884396D01*
X154770512Y-57744156D01*
X154730703Y-57669680D01*
X154684990Y-57584158D01*
X154665528Y-57520000D01*
X154632326Y-57410548D01*
X154619000Y-57275244D01*
X154619000Y-56724757D01*
X154632326Y-56589453D01*
X154684990Y-56415844D01*
X154684990Y-56415843D01*
X154716183Y-56357486D01*
X154770511Y-56255845D01*
X154885604Y-56115604D01*
X155025844Y-56000511D01*
X155162685Y-55927368D01*
X155185842Y-55914990D01*
X155243713Y-55897435D01*
X155359452Y-55862326D01*
X155540000Y-55844544D01*
X155720547Y-55862326D01*
X155720547Y-55862326D01*
G37*
G36*
X186260547Y-55862326D02*
X186376286Y-55897435D01*
X186434157Y-55914990D01*
X186455718Y-55926515D01*
X186594155Y-56000511D01*
X186734396Y-56115604D01*
X186849489Y-56255844D01*
X186889298Y-56330321D01*
X186935010Y-56415842D01*
X186952565Y-56473713D01*
X186987674Y-56589452D01*
X187001000Y-56724756D01*
X187001000Y-57275243D01*
X186987674Y-57410548D01*
X186935010Y-57584157D01*
X186849489Y-57744156D01*
X186734396Y-57884396D01*
X186594156Y-57999489D01*
X186575314Y-58009560D01*
X186434158Y-58085010D01*
X186387551Y-58099148D01*
X186260548Y-58137674D01*
X186080000Y-58155456D01*
X185899453Y-58137674D01*
X185772450Y-58099148D01*
X185725843Y-58085010D01*
X185584687Y-58009560D01*
X185565845Y-57999489D01*
X185425605Y-57884396D01*
X185310512Y-57744156D01*
X185270703Y-57669680D01*
X185224990Y-57584158D01*
X185205528Y-57520000D01*
X185172326Y-57410548D01*
X185159000Y-57275244D01*
X185159000Y-56724757D01*
X185172326Y-56589453D01*
X185224990Y-56415844D01*
X185224990Y-56415843D01*
X185256183Y-56357486D01*
X185310511Y-56255845D01*
X185425604Y-56115604D01*
X185565844Y-56000511D01*
X185702685Y-55927368D01*
X185725842Y-55914990D01*
X185783713Y-55897435D01*
X185899452Y-55862326D01*
X186080000Y-55844544D01*
X186260547Y-55862326D01*
X186260547Y-55862326D01*
G37*
G36*
X181779560Y-55852966D02*
X181812383Y-55862923D01*
X181842632Y-55879092D01*
X181869148Y-55900852D01*
X181890908Y-55927368D01*
X181907077Y-55957617D01*
X181917034Y-55990440D01*
X181921000Y-56030712D01*
X181921000Y-57969288D01*
X181917034Y-58009560D01*
X181907077Y-58042383D01*
X181890908Y-58072632D01*
X181869148Y-58099148D01*
X181842632Y-58120908D01*
X181812383Y-58137077D01*
X181779560Y-58147034D01*
X181739288Y-58151000D01*
X180260712Y-58151000D01*
X180220440Y-58147034D01*
X180187617Y-58137077D01*
X180157368Y-58120908D01*
X180130852Y-58099148D01*
X180109092Y-58072632D01*
X180092923Y-58042383D01*
X180082966Y-58009560D01*
X180079000Y-57969288D01*
X180079000Y-56030712D01*
X180082966Y-55990440D01*
X180092923Y-55957617D01*
X180109092Y-55927368D01*
X180130852Y-55900852D01*
X180157368Y-55879092D01*
X180187617Y-55862923D01*
X180220440Y-55852966D01*
X180260712Y-55849000D01*
X181739288Y-55849000D01*
X181779560Y-55852966D01*
X181779560Y-55852966D01*
G37*
G36*
X153779560Y-55852966D02*
X153812383Y-55862923D01*
X153842632Y-55879092D01*
X153869148Y-55900852D01*
X153890908Y-55927368D01*
X153907077Y-55957617D01*
X153917034Y-55990440D01*
X153921000Y-56030712D01*
X153921000Y-57969288D01*
X153917034Y-58009560D01*
X153907077Y-58042383D01*
X153890908Y-58072632D01*
X153869148Y-58099148D01*
X153842632Y-58120908D01*
X153812383Y-58137077D01*
X153779560Y-58147034D01*
X153739288Y-58151000D01*
X152260712Y-58151000D01*
X152220440Y-58147034D01*
X152187617Y-58137077D01*
X152157368Y-58120908D01*
X152130852Y-58099148D01*
X152109092Y-58072632D01*
X152092923Y-58042383D01*
X152082966Y-58009560D01*
X152079000Y-57969288D01*
X152079000Y-56030712D01*
X152082966Y-55990440D01*
X152092923Y-55957617D01*
X152109092Y-55927368D01*
X152130852Y-55900852D01*
X152157368Y-55879092D01*
X152187617Y-55862923D01*
X152220440Y-55852966D01*
X152260712Y-55849000D01*
X153739288Y-55849000D01*
X153779560Y-55852966D01*
X153779560Y-55852966D01*
G37*
G36*
X167779560Y-55852966D02*
X167812383Y-55862923D01*
X167842632Y-55879092D01*
X167869148Y-55900852D01*
X167890908Y-55927368D01*
X167907077Y-55957617D01*
X167917034Y-55990440D01*
X167921000Y-56030712D01*
X167921000Y-57969288D01*
X167917034Y-58009560D01*
X167907077Y-58042383D01*
X167890908Y-58072632D01*
X167869148Y-58099148D01*
X167842632Y-58120908D01*
X167812383Y-58137077D01*
X167779560Y-58147034D01*
X167739288Y-58151000D01*
X166260712Y-58151000D01*
X166220440Y-58147034D01*
X166187617Y-58137077D01*
X166157368Y-58120908D01*
X166130852Y-58099148D01*
X166109092Y-58072632D01*
X166092923Y-58042383D01*
X166082966Y-58009560D01*
X166079000Y-57969288D01*
X166079000Y-56030712D01*
X166082966Y-55990440D01*
X166092923Y-55957617D01*
X166109092Y-55927368D01*
X166130852Y-55900852D01*
X166157368Y-55879092D01*
X166187617Y-55862923D01*
X166220440Y-55852966D01*
X166260712Y-55849000D01*
X167739288Y-55849000D01*
X167779560Y-55852966D01*
X167779560Y-55852966D01*
G37*
G36*
X109559000Y-56591000D02*
X105457000Y-56591000D01*
X105457000Y-48489000D01*
X109559000Y-48489000D01*
X109559000Y-56591000D01*
X109559000Y-56591000D01*
G37*
G36*
X128856565Y-47539389D02*
X129047834Y-47618615D01*
X129219976Y-47733637D01*
X129366363Y-47880024D01*
X129481385Y-48052166D01*
X129560611Y-48243434D01*
X129589444Y-48388387D01*
X129596557Y-48411836D01*
X129608108Y-48433447D01*
X129623654Y-48452389D01*
X129642596Y-48467934D01*
X129664207Y-48479485D01*
X129687656Y-48486598D01*
X129712042Y-48489000D01*
X130641000Y-48489000D01*
X130641000Y-56591000D01*
X126539000Y-56591000D01*
X126539000Y-48489000D01*
X127387958Y-48489000D01*
X127412344Y-48486598D01*
X127435793Y-48479485D01*
X127457404Y-48467934D01*
X127476346Y-48452388D01*
X127491892Y-48433446D01*
X127503443Y-48411835D01*
X127510556Y-48388387D01*
X127539389Y-48243434D01*
X127618615Y-48052166D01*
X127733637Y-47880024D01*
X127880024Y-47733637D01*
X128052166Y-47618615D01*
X128243435Y-47539389D01*
X128446484Y-47499000D01*
X128653516Y-47499000D01*
X128856565Y-47539389D01*
X128856565Y-47539389D01*
G37*
G36*
X202407025Y-54190590D02*
X202558012Y-54236392D01*
X202697165Y-54310770D01*
X202819133Y-54410867D01*
X202919230Y-54532835D01*
X202993608Y-54671988D01*
X203039410Y-54822975D01*
X203054875Y-54980000D01*
X203039410Y-55137025D01*
X202993608Y-55288012D01*
X202919230Y-55427165D01*
X202819133Y-55549133D01*
X202697165Y-55649230D01*
X202558012Y-55723608D01*
X202407025Y-55769410D01*
X202289346Y-55781000D01*
X201710654Y-55781000D01*
X201592975Y-55769410D01*
X201441988Y-55723608D01*
X201302835Y-55649230D01*
X201180867Y-55549133D01*
X201080770Y-55427165D01*
X201006392Y-55288012D01*
X200960590Y-55137025D01*
X200945125Y-54980000D01*
X200960590Y-54822975D01*
X201006392Y-54671988D01*
X201080770Y-54532835D01*
X201180867Y-54410867D01*
X201302835Y-54310770D01*
X201441988Y-54236392D01*
X201592975Y-54190590D01*
X201710654Y-54179000D01*
X202289346Y-54179000D01*
X202407025Y-54190590D01*
X202407025Y-54190590D01*
G37*
G36*
X202407025Y-51650590D02*
X202558012Y-51696392D01*
X202697165Y-51770770D01*
X202819133Y-51870867D01*
X202919230Y-51992835D01*
X202993608Y-52131988D01*
X203039410Y-52282975D01*
X203054875Y-52440000D01*
X203039410Y-52597025D01*
X202993608Y-52748012D01*
X202919230Y-52887165D01*
X202819133Y-53009133D01*
X202697165Y-53109230D01*
X202558012Y-53183608D01*
X202407025Y-53229410D01*
X202289346Y-53241000D01*
X201710654Y-53241000D01*
X201592975Y-53229410D01*
X201441988Y-53183608D01*
X201302835Y-53109230D01*
X201180867Y-53009133D01*
X201080770Y-52887165D01*
X201006392Y-52748012D01*
X200960590Y-52597025D01*
X200945125Y-52440000D01*
X200960590Y-52282975D01*
X201006392Y-52131988D01*
X201080770Y-51992835D01*
X201180867Y-51870867D01*
X201302835Y-51770770D01*
X201441988Y-51696392D01*
X201592975Y-51650590D01*
X201710654Y-51639000D01*
X202289346Y-51639000D01*
X202407025Y-51650590D01*
X202407025Y-51650590D01*
G37*
G36*
X202407025Y-49110590D02*
X202558012Y-49156392D01*
X202697165Y-49230770D01*
X202819133Y-49330867D01*
X202919230Y-49452835D01*
X202993608Y-49591988D01*
X203039410Y-49742975D01*
X203054875Y-49900000D01*
X203039410Y-50057025D01*
X202993608Y-50208012D01*
X202919230Y-50347165D01*
X202819133Y-50469133D01*
X202697165Y-50569230D01*
X202558012Y-50643608D01*
X202407025Y-50689410D01*
X202289346Y-50701000D01*
X201710654Y-50701000D01*
X201592975Y-50689410D01*
X201441988Y-50643608D01*
X201302835Y-50569230D01*
X201180867Y-50469133D01*
X201080770Y-50347165D01*
X201006392Y-50208012D01*
X200960590Y-50057025D01*
X200945125Y-49900000D01*
X200960590Y-49742975D01*
X201006392Y-49591988D01*
X201080770Y-49452835D01*
X201180867Y-49330867D01*
X201302835Y-49230770D01*
X201441988Y-49156392D01*
X201592975Y-49110590D01*
X201710654Y-49099000D01*
X202289346Y-49099000D01*
X202407025Y-49110590D01*
X202407025Y-49110590D01*
G37*
G36*
X123756565Y-47539389D02*
X123947834Y-47618615D01*
X124119976Y-47733637D01*
X124266363Y-47880024D01*
X124381385Y-48052166D01*
X124460611Y-48243435D01*
X124501000Y-48446484D01*
X124501000Y-48653516D01*
X124460611Y-48856565D01*
X124381385Y-49047834D01*
X124266363Y-49219976D01*
X124119976Y-49366363D01*
X123947834Y-49481385D01*
X123756565Y-49560611D01*
X123553516Y-49601000D01*
X123346484Y-49601000D01*
X123143435Y-49560611D01*
X122952166Y-49481385D01*
X122780024Y-49366363D01*
X122633637Y-49219976D01*
X122518615Y-49047834D01*
X122439389Y-48856565D01*
X122399000Y-48653516D01*
X122399000Y-48446484D01*
X122439389Y-48243435D01*
X122518615Y-48052166D01*
X122633637Y-47880024D01*
X122780024Y-47733637D01*
X122952166Y-47618615D01*
X123143435Y-47539389D01*
X123346484Y-47499000D01*
X123553516Y-47499000D01*
X123756565Y-47539389D01*
X123756565Y-47539389D01*
G37*
G36*
X160800547Y-46862326D02*
X160916286Y-46897435D01*
X160974157Y-46914990D01*
X161004829Y-46931385D01*
X161134155Y-47000511D01*
X161274396Y-47115604D01*
X161389489Y-47255844D01*
X161429298Y-47330321D01*
X161475010Y-47415842D01*
X161492565Y-47473713D01*
X161527674Y-47589452D01*
X161541000Y-47724756D01*
X161541000Y-48275243D01*
X161527674Y-48410548D01*
X161475010Y-48584157D01*
X161389489Y-48744156D01*
X161274396Y-48884396D01*
X161134156Y-48999489D01*
X161115314Y-49009560D01*
X160974158Y-49085010D01*
X160927551Y-49099148D01*
X160800548Y-49137674D01*
X160620000Y-49155456D01*
X160439453Y-49137674D01*
X160312450Y-49099148D01*
X160265843Y-49085010D01*
X160124687Y-49009560D01*
X160105845Y-48999489D01*
X159965605Y-48884396D01*
X159850512Y-48744156D01*
X159802062Y-48653514D01*
X159764990Y-48584158D01*
X159729734Y-48467934D01*
X159712326Y-48410548D01*
X159699000Y-48275244D01*
X159699000Y-47724757D01*
X159712326Y-47589453D01*
X159764990Y-47415844D01*
X159764990Y-47415843D01*
X159796183Y-47357486D01*
X159850511Y-47255845D01*
X159965604Y-47115604D01*
X160105844Y-47000511D01*
X160186093Y-46957617D01*
X160265842Y-46914990D01*
X160323713Y-46897435D01*
X160439452Y-46862326D01*
X160620000Y-46844544D01*
X160800547Y-46862326D01*
X160800547Y-46862326D01*
G37*
G36*
X186260547Y-46862326D02*
X186376286Y-46897435D01*
X186434157Y-46914990D01*
X186464829Y-46931385D01*
X186594155Y-47000511D01*
X186734396Y-47115604D01*
X186849489Y-47255844D01*
X186889298Y-47330321D01*
X186935010Y-47415842D01*
X186952565Y-47473713D01*
X186987674Y-47589452D01*
X187001000Y-47724756D01*
X187001000Y-48275243D01*
X186987674Y-48410548D01*
X186935010Y-48584157D01*
X186849489Y-48744156D01*
X186734396Y-48884396D01*
X186594156Y-48999489D01*
X186575314Y-49009560D01*
X186434158Y-49085010D01*
X186387551Y-49099148D01*
X186260548Y-49137674D01*
X186080000Y-49155456D01*
X185899453Y-49137674D01*
X185772450Y-49099148D01*
X185725843Y-49085010D01*
X185584687Y-49009560D01*
X185565845Y-48999489D01*
X185425605Y-48884396D01*
X185310512Y-48744156D01*
X185262062Y-48653514D01*
X185224990Y-48584158D01*
X185189734Y-48467934D01*
X185172326Y-48410548D01*
X185159000Y-48275244D01*
X185159000Y-47724757D01*
X185172326Y-47589453D01*
X185224990Y-47415844D01*
X185224990Y-47415843D01*
X185256183Y-47357486D01*
X185310511Y-47255845D01*
X185425604Y-47115604D01*
X185565844Y-47000511D01*
X185646093Y-46957617D01*
X185725842Y-46914990D01*
X185783713Y-46897435D01*
X185899452Y-46862326D01*
X186080000Y-46844544D01*
X186260547Y-46862326D01*
X186260547Y-46862326D01*
G37*
G36*
X155720547Y-46862326D02*
X155836286Y-46897435D01*
X155894157Y-46914990D01*
X155924829Y-46931385D01*
X156054155Y-47000511D01*
X156194396Y-47115604D01*
X156309489Y-47255844D01*
X156349298Y-47330321D01*
X156395010Y-47415842D01*
X156412565Y-47473713D01*
X156447674Y-47589452D01*
X156461000Y-47724756D01*
X156461000Y-48275243D01*
X156447674Y-48410548D01*
X156395010Y-48584157D01*
X156309489Y-48744156D01*
X156194396Y-48884396D01*
X156054156Y-48999489D01*
X156035314Y-49009560D01*
X155894158Y-49085010D01*
X155847551Y-49099148D01*
X155720548Y-49137674D01*
X155540000Y-49155456D01*
X155359453Y-49137674D01*
X155232450Y-49099148D01*
X155185843Y-49085010D01*
X155044687Y-49009560D01*
X155025845Y-48999489D01*
X154885605Y-48884396D01*
X154770512Y-48744156D01*
X154722062Y-48653514D01*
X154684990Y-48584158D01*
X154649734Y-48467934D01*
X154632326Y-48410548D01*
X154619000Y-48275244D01*
X154619000Y-47724757D01*
X154632326Y-47589453D01*
X154684990Y-47415844D01*
X154684990Y-47415843D01*
X154716183Y-47357486D01*
X154770511Y-47255845D01*
X154885604Y-47115604D01*
X155025844Y-47000511D01*
X155106093Y-46957617D01*
X155185842Y-46914990D01*
X155243713Y-46897435D01*
X155359452Y-46862326D01*
X155540000Y-46844544D01*
X155720547Y-46862326D01*
X155720547Y-46862326D01*
G37*
G36*
X174800547Y-46862326D02*
X174916286Y-46897435D01*
X174974157Y-46914990D01*
X175004829Y-46931385D01*
X175134155Y-47000511D01*
X175274396Y-47115604D01*
X175389489Y-47255844D01*
X175429298Y-47330321D01*
X175475010Y-47415842D01*
X175492565Y-47473713D01*
X175527674Y-47589452D01*
X175541000Y-47724756D01*
X175541000Y-48275243D01*
X175527674Y-48410548D01*
X175475010Y-48584157D01*
X175389489Y-48744156D01*
X175274396Y-48884396D01*
X175134156Y-48999489D01*
X175115314Y-49009560D01*
X174974158Y-49085010D01*
X174927551Y-49099148D01*
X174800548Y-49137674D01*
X174620000Y-49155456D01*
X174439453Y-49137674D01*
X174312450Y-49099148D01*
X174265843Y-49085010D01*
X174124687Y-49009560D01*
X174105845Y-48999489D01*
X173965605Y-48884396D01*
X173850512Y-48744156D01*
X173802062Y-48653514D01*
X173764990Y-48584158D01*
X173729734Y-48467934D01*
X173712326Y-48410548D01*
X173699000Y-48275244D01*
X173699000Y-47724757D01*
X173712326Y-47589453D01*
X173764990Y-47415844D01*
X173764990Y-47415843D01*
X173796183Y-47357486D01*
X173850511Y-47255845D01*
X173965604Y-47115604D01*
X174105844Y-47000511D01*
X174186093Y-46957617D01*
X174265842Y-46914990D01*
X174323713Y-46897435D01*
X174439452Y-46862326D01*
X174620000Y-46844544D01*
X174800547Y-46862326D01*
X174800547Y-46862326D01*
G37*
G36*
X172260547Y-46862326D02*
X172376286Y-46897435D01*
X172434157Y-46914990D01*
X172464829Y-46931385D01*
X172594155Y-47000511D01*
X172734396Y-47115604D01*
X172849489Y-47255844D01*
X172889298Y-47330321D01*
X172935010Y-47415842D01*
X172952565Y-47473713D01*
X172987674Y-47589452D01*
X173001000Y-47724756D01*
X173001000Y-48275243D01*
X172987674Y-48410548D01*
X172935010Y-48584157D01*
X172849489Y-48744156D01*
X172734396Y-48884396D01*
X172594156Y-48999489D01*
X172575314Y-49009560D01*
X172434158Y-49085010D01*
X172387551Y-49099148D01*
X172260548Y-49137674D01*
X172080000Y-49155456D01*
X171899453Y-49137674D01*
X171772450Y-49099148D01*
X171725843Y-49085010D01*
X171584687Y-49009560D01*
X171565845Y-48999489D01*
X171425605Y-48884396D01*
X171310512Y-48744156D01*
X171262062Y-48653514D01*
X171224990Y-48584158D01*
X171189734Y-48467934D01*
X171172326Y-48410548D01*
X171159000Y-48275244D01*
X171159000Y-47724757D01*
X171172326Y-47589453D01*
X171224990Y-47415844D01*
X171224990Y-47415843D01*
X171256183Y-47357486D01*
X171310511Y-47255845D01*
X171425604Y-47115604D01*
X171565844Y-47000511D01*
X171646093Y-46957617D01*
X171725842Y-46914990D01*
X171783713Y-46897435D01*
X171899452Y-46862326D01*
X172080000Y-46844544D01*
X172260547Y-46862326D01*
X172260547Y-46862326D01*
G37*
G36*
X169720547Y-46862326D02*
X169836286Y-46897435D01*
X169894157Y-46914990D01*
X169924829Y-46931385D01*
X170054155Y-47000511D01*
X170194396Y-47115604D01*
X170309489Y-47255844D01*
X170349298Y-47330321D01*
X170395010Y-47415842D01*
X170412565Y-47473713D01*
X170447674Y-47589452D01*
X170461000Y-47724756D01*
X170461000Y-48275243D01*
X170447674Y-48410548D01*
X170395010Y-48584157D01*
X170309489Y-48744156D01*
X170194396Y-48884396D01*
X170054156Y-48999489D01*
X170035314Y-49009560D01*
X169894158Y-49085010D01*
X169847551Y-49099148D01*
X169720548Y-49137674D01*
X169540000Y-49155456D01*
X169359453Y-49137674D01*
X169232450Y-49099148D01*
X169185843Y-49085010D01*
X169044687Y-49009560D01*
X169025845Y-48999489D01*
X168885605Y-48884396D01*
X168770512Y-48744156D01*
X168722062Y-48653514D01*
X168684990Y-48584158D01*
X168649734Y-48467934D01*
X168632326Y-48410548D01*
X168619000Y-48275244D01*
X168619000Y-47724757D01*
X168632326Y-47589453D01*
X168684990Y-47415844D01*
X168684990Y-47415843D01*
X168716183Y-47357486D01*
X168770511Y-47255845D01*
X168885604Y-47115604D01*
X169025844Y-47000511D01*
X169106093Y-46957617D01*
X169185842Y-46914990D01*
X169243713Y-46897435D01*
X169359452Y-46862326D01*
X169540000Y-46844544D01*
X169720547Y-46862326D01*
X169720547Y-46862326D01*
G37*
G36*
X193880547Y-46862326D02*
X193996286Y-46897435D01*
X194054157Y-46914990D01*
X194084829Y-46931385D01*
X194214155Y-47000511D01*
X194354396Y-47115604D01*
X194469489Y-47255844D01*
X194509298Y-47330321D01*
X194555010Y-47415842D01*
X194572565Y-47473713D01*
X194607674Y-47589452D01*
X194621000Y-47724756D01*
X194621000Y-48275243D01*
X194607674Y-48410548D01*
X194555010Y-48584157D01*
X194469489Y-48744156D01*
X194354396Y-48884396D01*
X194214156Y-48999489D01*
X194195314Y-49009560D01*
X194054158Y-49085010D01*
X194007551Y-49099148D01*
X193880548Y-49137674D01*
X193700000Y-49155456D01*
X193519453Y-49137674D01*
X193392450Y-49099148D01*
X193345843Y-49085010D01*
X193204687Y-49009560D01*
X193185845Y-48999489D01*
X193045605Y-48884396D01*
X192930512Y-48744156D01*
X192882062Y-48653514D01*
X192844990Y-48584158D01*
X192809734Y-48467934D01*
X192792326Y-48410548D01*
X192779000Y-48275244D01*
X192779000Y-47724757D01*
X192792326Y-47589453D01*
X192844990Y-47415844D01*
X192844990Y-47415843D01*
X192876183Y-47357486D01*
X192930511Y-47255845D01*
X193045604Y-47115604D01*
X193185844Y-47000511D01*
X193266093Y-46957617D01*
X193345842Y-46914990D01*
X193403713Y-46897435D01*
X193519452Y-46862326D01*
X193700000Y-46844544D01*
X193880547Y-46862326D01*
X193880547Y-46862326D01*
G37*
G36*
X191340547Y-46862326D02*
X191456286Y-46897435D01*
X191514157Y-46914990D01*
X191544829Y-46931385D01*
X191674155Y-47000511D01*
X191814396Y-47115604D01*
X191929489Y-47255844D01*
X191969298Y-47330321D01*
X192015010Y-47415842D01*
X192032565Y-47473713D01*
X192067674Y-47589452D01*
X192081000Y-47724756D01*
X192081000Y-48275243D01*
X192067674Y-48410548D01*
X192015010Y-48584157D01*
X191929489Y-48744156D01*
X191814396Y-48884396D01*
X191674156Y-48999489D01*
X191655314Y-49009560D01*
X191514158Y-49085010D01*
X191467551Y-49099148D01*
X191340548Y-49137674D01*
X191160000Y-49155456D01*
X190979453Y-49137674D01*
X190852450Y-49099148D01*
X190805843Y-49085010D01*
X190664687Y-49009560D01*
X190645845Y-48999489D01*
X190505605Y-48884396D01*
X190390512Y-48744156D01*
X190342062Y-48653514D01*
X190304990Y-48584158D01*
X190269734Y-48467934D01*
X190252326Y-48410548D01*
X190239000Y-48275244D01*
X190239000Y-47724757D01*
X190252326Y-47589453D01*
X190304990Y-47415844D01*
X190304990Y-47415843D01*
X190336183Y-47357486D01*
X190390511Y-47255845D01*
X190505604Y-47115604D01*
X190645844Y-47000511D01*
X190726093Y-46957617D01*
X190805842Y-46914990D01*
X190863713Y-46897435D01*
X190979452Y-46862326D01*
X191160000Y-46844544D01*
X191340547Y-46862326D01*
X191340547Y-46862326D01*
G37*
G36*
X188800547Y-46862326D02*
X188916286Y-46897435D01*
X188974157Y-46914990D01*
X189004829Y-46931385D01*
X189134155Y-47000511D01*
X189274396Y-47115604D01*
X189389489Y-47255844D01*
X189429298Y-47330321D01*
X189475010Y-47415842D01*
X189492565Y-47473713D01*
X189527674Y-47589452D01*
X189541000Y-47724756D01*
X189541000Y-48275243D01*
X189527674Y-48410548D01*
X189475010Y-48584157D01*
X189389489Y-48744156D01*
X189274396Y-48884396D01*
X189134156Y-48999489D01*
X189115314Y-49009560D01*
X188974158Y-49085010D01*
X188927551Y-49099148D01*
X188800548Y-49137674D01*
X188620000Y-49155456D01*
X188439453Y-49137674D01*
X188312450Y-49099148D01*
X188265843Y-49085010D01*
X188124687Y-49009560D01*
X188105845Y-48999489D01*
X187965605Y-48884396D01*
X187850512Y-48744156D01*
X187802062Y-48653514D01*
X187764990Y-48584158D01*
X187729734Y-48467934D01*
X187712326Y-48410548D01*
X187699000Y-48275244D01*
X187699000Y-47724757D01*
X187712326Y-47589453D01*
X187764990Y-47415844D01*
X187764990Y-47415843D01*
X187796183Y-47357486D01*
X187850511Y-47255845D01*
X187965604Y-47115604D01*
X188105844Y-47000511D01*
X188186093Y-46957617D01*
X188265842Y-46914990D01*
X188323713Y-46897435D01*
X188439452Y-46862326D01*
X188620000Y-46844544D01*
X188800547Y-46862326D01*
X188800547Y-46862326D01*
G37*
G36*
X183720547Y-46862326D02*
X183836286Y-46897435D01*
X183894157Y-46914990D01*
X183924829Y-46931385D01*
X184054155Y-47000511D01*
X184194396Y-47115604D01*
X184309489Y-47255844D01*
X184349298Y-47330321D01*
X184395010Y-47415842D01*
X184412565Y-47473713D01*
X184447674Y-47589452D01*
X184461000Y-47724756D01*
X184461000Y-48275243D01*
X184447674Y-48410548D01*
X184395010Y-48584157D01*
X184309489Y-48744156D01*
X184194396Y-48884396D01*
X184054156Y-48999489D01*
X184035314Y-49009560D01*
X183894158Y-49085010D01*
X183847551Y-49099148D01*
X183720548Y-49137674D01*
X183540000Y-49155456D01*
X183359453Y-49137674D01*
X183232450Y-49099148D01*
X183185843Y-49085010D01*
X183044687Y-49009560D01*
X183025845Y-48999489D01*
X182885605Y-48884396D01*
X182770512Y-48744156D01*
X182722062Y-48653514D01*
X182684990Y-48584158D01*
X182649734Y-48467934D01*
X182632326Y-48410548D01*
X182619000Y-48275244D01*
X182619000Y-47724757D01*
X182632326Y-47589453D01*
X182684990Y-47415844D01*
X182684990Y-47415843D01*
X182716183Y-47357486D01*
X182770511Y-47255845D01*
X182885604Y-47115604D01*
X183025844Y-47000511D01*
X183106093Y-46957617D01*
X183185842Y-46914990D01*
X183243713Y-46897435D01*
X183359452Y-46862326D01*
X183540000Y-46844544D01*
X183720547Y-46862326D01*
X183720547Y-46862326D01*
G37*
G36*
X158260547Y-46862326D02*
X158376286Y-46897435D01*
X158434157Y-46914990D01*
X158464829Y-46931385D01*
X158594155Y-47000511D01*
X158734396Y-47115604D01*
X158849489Y-47255844D01*
X158889298Y-47330321D01*
X158935010Y-47415842D01*
X158952565Y-47473713D01*
X158987674Y-47589452D01*
X159001000Y-47724756D01*
X159001000Y-48275243D01*
X158987674Y-48410548D01*
X158935010Y-48584157D01*
X158849489Y-48744156D01*
X158734396Y-48884396D01*
X158594156Y-48999489D01*
X158575314Y-49009560D01*
X158434158Y-49085010D01*
X158387551Y-49099148D01*
X158260548Y-49137674D01*
X158080000Y-49155456D01*
X157899453Y-49137674D01*
X157772450Y-49099148D01*
X157725843Y-49085010D01*
X157584687Y-49009560D01*
X157565845Y-48999489D01*
X157425605Y-48884396D01*
X157310512Y-48744156D01*
X157262062Y-48653514D01*
X157224990Y-48584158D01*
X157189734Y-48467934D01*
X157172326Y-48410548D01*
X157159000Y-48275244D01*
X157159000Y-47724757D01*
X157172326Y-47589453D01*
X157224990Y-47415844D01*
X157224990Y-47415843D01*
X157256183Y-47357486D01*
X157310511Y-47255845D01*
X157425604Y-47115604D01*
X157565844Y-47000511D01*
X157646093Y-46957617D01*
X157725842Y-46914990D01*
X157783713Y-46897435D01*
X157899452Y-46862326D01*
X158080000Y-46844544D01*
X158260547Y-46862326D01*
X158260547Y-46862326D01*
G37*
G36*
X181779560Y-46852966D02*
X181812383Y-46862923D01*
X181842632Y-46879092D01*
X181869148Y-46900852D01*
X181890908Y-46927368D01*
X181907077Y-46957617D01*
X181917034Y-46990440D01*
X181921000Y-47030712D01*
X181921000Y-48969288D01*
X181917034Y-49009560D01*
X181907077Y-49042383D01*
X181890908Y-49072632D01*
X181869148Y-49099148D01*
X181842632Y-49120908D01*
X181812383Y-49137077D01*
X181779560Y-49147034D01*
X181739288Y-49151000D01*
X180260712Y-49151000D01*
X180220440Y-49147034D01*
X180187617Y-49137077D01*
X180157368Y-49120908D01*
X180130852Y-49099148D01*
X180109092Y-49072632D01*
X180092923Y-49042383D01*
X180082966Y-49009560D01*
X180079000Y-48969288D01*
X180079000Y-47030712D01*
X180082966Y-46990440D01*
X180092923Y-46957617D01*
X180109092Y-46927368D01*
X180130852Y-46900852D01*
X180157368Y-46879092D01*
X180187617Y-46862923D01*
X180220440Y-46852966D01*
X180260712Y-46849000D01*
X181739288Y-46849000D01*
X181779560Y-46852966D01*
X181779560Y-46852966D01*
G37*
G36*
X167779560Y-46852966D02*
X167812383Y-46862923D01*
X167842632Y-46879092D01*
X167869148Y-46900852D01*
X167890908Y-46927368D01*
X167907077Y-46957617D01*
X167917034Y-46990440D01*
X167921000Y-47030712D01*
X167921000Y-48969288D01*
X167917034Y-49009560D01*
X167907077Y-49042383D01*
X167890908Y-49072632D01*
X167869148Y-49099148D01*
X167842632Y-49120908D01*
X167812383Y-49137077D01*
X167779560Y-49147034D01*
X167739288Y-49151000D01*
X166260712Y-49151000D01*
X166220440Y-49147034D01*
X166187617Y-49137077D01*
X166157368Y-49120908D01*
X166130852Y-49099148D01*
X166109092Y-49072632D01*
X166092923Y-49042383D01*
X166082966Y-49009560D01*
X166079000Y-48969288D01*
X166079000Y-47030712D01*
X166082966Y-46990440D01*
X166092923Y-46957617D01*
X166109092Y-46927368D01*
X166130852Y-46900852D01*
X166157368Y-46879092D01*
X166187617Y-46862923D01*
X166220440Y-46852966D01*
X166260712Y-46849000D01*
X167739288Y-46849000D01*
X167779560Y-46852966D01*
X167779560Y-46852966D01*
G37*
G36*
X153779560Y-46852966D02*
X153812383Y-46862923D01*
X153842632Y-46879092D01*
X153869148Y-46900852D01*
X153890908Y-46927368D01*
X153907077Y-46957617D01*
X153917034Y-46990440D01*
X153921000Y-47030712D01*
X153921000Y-48969288D01*
X153917034Y-49009560D01*
X153907077Y-49042383D01*
X153890908Y-49072632D01*
X153869148Y-49099148D01*
X153842632Y-49120908D01*
X153812383Y-49137077D01*
X153779560Y-49147034D01*
X153739288Y-49151000D01*
X152260712Y-49151000D01*
X152220440Y-49147034D01*
X152187617Y-49137077D01*
X152157368Y-49120908D01*
X152130852Y-49099148D01*
X152109092Y-49072632D01*
X152092923Y-49042383D01*
X152082966Y-49009560D01*
X152079000Y-48969288D01*
X152079000Y-47030712D01*
X152082966Y-46990440D01*
X152092923Y-46957617D01*
X152109092Y-46927368D01*
X152130852Y-46900852D01*
X152157368Y-46879092D01*
X152187617Y-46862923D01*
X152220440Y-46852966D01*
X152260712Y-46849000D01*
X153739288Y-46849000D01*
X153779560Y-46852966D01*
X153779560Y-46852966D01*
G37*
G36*
X200308445Y-42766254D02*
X200656593Y-42835504D01*
X201066249Y-43005189D01*
X201434929Y-43251534D01*
X201748466Y-43565071D01*
X201994811Y-43933751D01*
X202164496Y-44343407D01*
X202251000Y-44778296D01*
X202251000Y-45221704D01*
X202164496Y-45656593D01*
X201994811Y-46066249D01*
X201748466Y-46434929D01*
X201434929Y-46748466D01*
X201066249Y-46994811D01*
X200656593Y-47164496D01*
X200308445Y-47233746D01*
X200221706Y-47251000D01*
X199778294Y-47251000D01*
X199691555Y-47233746D01*
X199343407Y-47164496D01*
X198933751Y-46994811D01*
X198565071Y-46748466D01*
X198251534Y-46434929D01*
X198005189Y-46066249D01*
X197835504Y-45656593D01*
X197749000Y-45221704D01*
X197749000Y-44778296D01*
X197835504Y-44343407D01*
X198005189Y-43933751D01*
X198251534Y-43565071D01*
X198565071Y-43251534D01*
X198933751Y-43005189D01*
X199343407Y-42835504D01*
X199691555Y-42766254D01*
X199778294Y-42749000D01*
X200221706Y-42749000D01*
X200308445Y-42766254D01*
X200308445Y-42766254D01*
G37*
G36*
X108308445Y-42766254D02*
X108656593Y-42835504D01*
X109066249Y-43005189D01*
X109434929Y-43251534D01*
X109748466Y-43565071D01*
X109994811Y-43933751D01*
X110164496Y-44343407D01*
X110251000Y-44778296D01*
X110251000Y-45221704D01*
X110164496Y-45656593D01*
X109994811Y-46066249D01*
X109748466Y-46434929D01*
X109434929Y-46748466D01*
X109066249Y-46994811D01*
X108656593Y-47164496D01*
X108308445Y-47233746D01*
X108221706Y-47251000D01*
X107778294Y-47251000D01*
X107691555Y-47233746D01*
X107343407Y-47164496D01*
X106933751Y-46994811D01*
X106565071Y-46748466D01*
X106251534Y-46434929D01*
X106005189Y-46066249D01*
X105835504Y-45656593D01*
X105749000Y-45221704D01*
X105749000Y-44778296D01*
X105835504Y-44343407D01*
X106005189Y-43933751D01*
X106251534Y-43565071D01*
X106565071Y-43251534D01*
X106933751Y-43005189D01*
X107343407Y-42835504D01*
X107691555Y-42766254D01*
X107778294Y-42749000D01*
X108221706Y-42749000D01*
X108308445Y-42766254D01*
X108308445Y-42766254D01*
G37*
G36*
X126306565Y-44989389D02*
X126497834Y-45068615D01*
X126669976Y-45183637D01*
X126816363Y-45330024D01*
X126931385Y-45502166D01*
X127010611Y-45693435D01*
X127051000Y-45896484D01*
X127051000Y-46103516D01*
X127010611Y-46306565D01*
X126931385Y-46497834D01*
X126816363Y-46669976D01*
X126669976Y-46816363D01*
X126497834Y-46931385D01*
X126306565Y-47010611D01*
X126103516Y-47051000D01*
X125896484Y-47051000D01*
X125693435Y-47010611D01*
X125502166Y-46931385D01*
X125330024Y-46816363D01*
X125183637Y-46669976D01*
X125068615Y-46497834D01*
X124989389Y-46306565D01*
X124949000Y-46103516D01*
X124949000Y-45896484D01*
X124989389Y-45693435D01*
X125068615Y-45502166D01*
X125183637Y-45330024D01*
X125330024Y-45183637D01*
X125502166Y-45068615D01*
X125693435Y-44989389D01*
X125896484Y-44949000D01*
X126103516Y-44949000D01*
X126306565Y-44989389D01*
X126306565Y-44989389D01*
G37*
G36*
X116251000Y-46251000D02*
X113749000Y-46251000D01*
X113749000Y-43749000D01*
X116251000Y-43749000D01*
X116251000Y-46251000D01*
X116251000Y-46251000D01*
G37*
G36*
X118661245Y-43756565D02*
X118864903Y-43797075D01*
X119092571Y-43891378D01*
X119296542Y-44027668D01*
X119297469Y-44028287D01*
X119471713Y-44202531D01*
X119471715Y-44202534D01*
X119608622Y-44407429D01*
X119702925Y-44635097D01*
X119751000Y-44876787D01*
X119751000Y-45123213D01*
X119702925Y-45364903D01*
X119608622Y-45592571D01*
X119472332Y-45796542D01*
X119471713Y-45797469D01*
X119297469Y-45971713D01*
X119297466Y-45971715D01*
X119092571Y-46108622D01*
X118864903Y-46202925D01*
X118683635Y-46238981D01*
X118623214Y-46251000D01*
X118376786Y-46251000D01*
X118316364Y-46238981D01*
X118135097Y-46202925D01*
X117907429Y-46108622D01*
X117702534Y-45971715D01*
X117702531Y-45971713D01*
X117528287Y-45797469D01*
X117527668Y-45796542D01*
X117391378Y-45592571D01*
X117297075Y-45364903D01*
X117249000Y-45123213D01*
X117249000Y-44876787D01*
X117297075Y-44635097D01*
X117391378Y-44407429D01*
X117528285Y-44202534D01*
X117528287Y-44202531D01*
X117702531Y-44028287D01*
X117703458Y-44027668D01*
X117907429Y-43891378D01*
X118135097Y-43797075D01*
X118338755Y-43756565D01*
X118376786Y-43749000D01*
X118623214Y-43749000D01*
X118661245Y-43756565D01*
X118661245Y-43756565D01*
G37*
G36*
X145551000Y-45051000D02*
X144449000Y-45051000D01*
X144449000Y-42949000D01*
X145551000Y-42949000D01*
X145551000Y-45051000D01*
X145551000Y-45051000D01*
G37*
G36*
X143551000Y-45051000D02*
X142449000Y-45051000D01*
X142449000Y-42949000D01*
X143551000Y-42949000D01*
X143551000Y-45051000D01*
X143551000Y-45051000D01*
G37*
G36*
X133551000Y-45051000D02*
X132449000Y-45051000D01*
X132449000Y-42949000D01*
X133551000Y-42949000D01*
X133551000Y-45051000D01*
X133551000Y-45051000D01*
G37*
G36*
X135551000Y-45051000D02*
X134449000Y-45051000D01*
X134449000Y-42949000D01*
X135551000Y-42949000D01*
X135551000Y-45051000D01*
X135551000Y-45051000D01*
G37*
G36*
X137551000Y-45051000D02*
X136449000Y-45051000D01*
X136449000Y-42949000D01*
X137551000Y-42949000D01*
X137551000Y-45051000D01*
X137551000Y-45051000D01*
G37*
G36*
X139551000Y-45051000D02*
X138449000Y-45051000D01*
X138449000Y-42949000D01*
X139551000Y-42949000D01*
X139551000Y-45051000D01*
X139551000Y-45051000D01*
G37*
G36*
X141551000Y-45051000D02*
X140449000Y-45051000D01*
X140449000Y-42949000D01*
X141551000Y-42949000D01*
X141551000Y-45051000D01*
X141551000Y-45051000D01*
G37*
G36*
X147551000Y-45051000D02*
X146449000Y-45051000D01*
X146449000Y-42949000D01*
X147551000Y-42949000D01*
X147551000Y-45051000D01*
X147551000Y-45051000D01*
G37*
G36*
X123756565Y-42439389D02*
X123947834Y-42518615D01*
X124119976Y-42633637D01*
X124266363Y-42780024D01*
X124381385Y-42952166D01*
X124460611Y-43143435D01*
X124501000Y-43346484D01*
X124501000Y-43553516D01*
X124460611Y-43756565D01*
X124381385Y-43947834D01*
X124266363Y-44119976D01*
X124119976Y-44266363D01*
X123947834Y-44381385D01*
X123756565Y-44460611D01*
X123553516Y-44501000D01*
X123346484Y-44501000D01*
X123143435Y-44460611D01*
X122952166Y-44381385D01*
X122780024Y-44266363D01*
X122633637Y-44119976D01*
X122518615Y-43947834D01*
X122439389Y-43756565D01*
X122399000Y-43553516D01*
X122399000Y-43346484D01*
X122439389Y-43143435D01*
X122518615Y-42952166D01*
X122633637Y-42780024D01*
X122780024Y-42633637D01*
X122952166Y-42518615D01*
X123143435Y-42439389D01*
X123346484Y-42399000D01*
X123553516Y-42399000D01*
X123756565Y-42439389D01*
X123756565Y-42439389D01*
G37*
G36*
X128856565Y-42439389D02*
X129047834Y-42518615D01*
X129219976Y-42633637D01*
X129366363Y-42780024D01*
X129481385Y-42952166D01*
X129560611Y-43143435D01*
X129601000Y-43346484D01*
X129601000Y-43553516D01*
X129560611Y-43756565D01*
X129481385Y-43947834D01*
X129366363Y-44119976D01*
X129219976Y-44266363D01*
X129047834Y-44381385D01*
X128856565Y-44460611D01*
X128653516Y-44501000D01*
X128446484Y-44501000D01*
X128243435Y-44460611D01*
X128052166Y-44381385D01*
X127880024Y-44266363D01*
X127733637Y-44119976D01*
X127618615Y-43947834D01*
X127539389Y-43756565D01*
X127499000Y-43553516D01*
X127499000Y-43346484D01*
X127539389Y-43143435D01*
X127618615Y-42952166D01*
X127733637Y-42780024D01*
X127880024Y-42633637D01*
X128052166Y-42518615D01*
X128243435Y-42439389D01*
X128446484Y-42399000D01*
X128653516Y-42399000D01*
X128856565Y-42439389D01*
X128856565Y-42439389D01*
G37*
M02*
