G04 #@! TF.GenerationSoftware,KiCad,Pcbnew,5.0.2*
G04 #@! TF.CreationDate,2019-07-25T16:39:25-03:00*
G04 #@! TF.ProjectId,ShieldEduIfspSTM32,53686965-6c64-4456-9475-496673705354,rev?*
G04 #@! TF.SameCoordinates,Original*
G04 #@! TF.FileFunction,Legend,Bot*
G04 #@! TF.FilePolarity,Positive*
%FSLAX46Y46*%
G04 Gerber Fmt 4.6, Leading zero omitted, Abs format (unit mm)*
G04 Created by KiCad (PCBNEW 5.0.2) date qui 25 jul 2019 16:39:25 -03*
%MOMM*%
%LPD*%
G01*
G04 APERTURE LIST*
%ADD10C,0.150000*%
%ADD11C,0.200000*%
%ADD12C,0.300000*%
%ADD13C,0.100000*%
%ADD14C,0.120000*%
G04 APERTURE END LIST*
D10*
X167883333Y-63183333D02*
X167916666Y-63283333D01*
X167916666Y-63450000D01*
X167883333Y-63516666D01*
X167850000Y-63550000D01*
X167783333Y-63583333D01*
X167716666Y-63583333D01*
X167650000Y-63550000D01*
X167616666Y-63516666D01*
X167583333Y-63450000D01*
X167550000Y-63316666D01*
X167516666Y-63250000D01*
X167483333Y-63216666D01*
X167416666Y-63183333D01*
X167350000Y-63183333D01*
X167283333Y-63216666D01*
X167250000Y-63250000D01*
X167216666Y-63316666D01*
X167216666Y-63483333D01*
X167250000Y-63583333D01*
X167916666Y-63883333D02*
X167216666Y-63883333D01*
X167550000Y-63883333D02*
X167550000Y-64283333D01*
X167916666Y-64283333D02*
X167216666Y-64283333D01*
X167916666Y-64616666D02*
X167216666Y-64616666D01*
X167550000Y-65183333D02*
X167550000Y-64950000D01*
X167916666Y-64950000D02*
X167216666Y-64950000D01*
X167216666Y-65283333D01*
X167216666Y-65450000D02*
X167216666Y-65850000D01*
X167916666Y-65650000D02*
X167216666Y-65650000D01*
X167916666Y-67016666D02*
X167583333Y-66783333D01*
X167916666Y-66616666D02*
X167216666Y-66616666D01*
X167216666Y-66883333D01*
X167250000Y-66950000D01*
X167283333Y-66983333D01*
X167350000Y-67016666D01*
X167450000Y-67016666D01*
X167516666Y-66983333D01*
X167550000Y-66950000D01*
X167583333Y-66883333D01*
X167583333Y-66616666D01*
X167550000Y-67316666D02*
X167550000Y-67550000D01*
X167916666Y-67650000D02*
X167916666Y-67316666D01*
X167216666Y-67316666D01*
X167216666Y-67650000D01*
X167250000Y-68316666D02*
X167216666Y-68250000D01*
X167216666Y-68150000D01*
X167250000Y-68050000D01*
X167316666Y-67983333D01*
X167383333Y-67950000D01*
X167516666Y-67916666D01*
X167616666Y-67916666D01*
X167750000Y-67950000D01*
X167816666Y-67983333D01*
X167883333Y-68050000D01*
X167916666Y-68150000D01*
X167916666Y-68216666D01*
X167883333Y-68316666D01*
X167850000Y-68350000D01*
X167616666Y-68350000D01*
X167616666Y-68216666D01*
X167916666Y-68650000D02*
X167216666Y-68650000D01*
X167883333Y-68950000D02*
X167916666Y-69050000D01*
X167916666Y-69216666D01*
X167883333Y-69283333D01*
X167850000Y-69316666D01*
X167783333Y-69350000D01*
X167716666Y-69350000D01*
X167650000Y-69316666D01*
X167616666Y-69283333D01*
X167583333Y-69216666D01*
X167550000Y-69083333D01*
X167516666Y-69016666D01*
X167483333Y-68983333D01*
X167416666Y-68950000D01*
X167350000Y-68950000D01*
X167283333Y-68983333D01*
X167250000Y-69016666D01*
X167216666Y-69083333D01*
X167216666Y-69250000D01*
X167250000Y-69350000D01*
X167216666Y-69550000D02*
X167216666Y-69950000D01*
X167916666Y-69750000D02*
X167216666Y-69750000D01*
X167550000Y-70183333D02*
X167550000Y-70416666D01*
X167916666Y-70516666D02*
X167916666Y-70183333D01*
X167216666Y-70183333D01*
X167216666Y-70516666D01*
X167916666Y-71216666D02*
X167583333Y-70983333D01*
X167916666Y-70816666D02*
X167216666Y-70816666D01*
X167216666Y-71083333D01*
X167250000Y-71150000D01*
X167283333Y-71183333D01*
X167350000Y-71216666D01*
X167450000Y-71216666D01*
X167516666Y-71183333D01*
X167550000Y-71150000D01*
X167583333Y-71083333D01*
X167583333Y-70816666D01*
X169050000Y-64516666D02*
X169083333Y-64483333D01*
X169116666Y-64383333D01*
X169116666Y-64316666D01*
X169083333Y-64216666D01*
X169016666Y-64150000D01*
X168950000Y-64116666D01*
X168816666Y-64083333D01*
X168716666Y-64083333D01*
X168583333Y-64116666D01*
X168516666Y-64150000D01*
X168450000Y-64216666D01*
X168416666Y-64316666D01*
X168416666Y-64383333D01*
X168450000Y-64483333D01*
X168483333Y-64516666D01*
X169116666Y-65150000D02*
X169116666Y-64816666D01*
X168416666Y-64816666D01*
X168416666Y-65516666D02*
X168416666Y-65650000D01*
X168450000Y-65716666D01*
X168516666Y-65783333D01*
X168650000Y-65816666D01*
X168883333Y-65816666D01*
X169016666Y-65783333D01*
X169083333Y-65716666D01*
X169116666Y-65650000D01*
X169116666Y-65516666D01*
X169083333Y-65450000D01*
X169016666Y-65383333D01*
X168883333Y-65350000D01*
X168650000Y-65350000D01*
X168516666Y-65383333D01*
X168450000Y-65450000D01*
X168416666Y-65516666D01*
X169050000Y-66516666D02*
X169083333Y-66483333D01*
X169116666Y-66383333D01*
X169116666Y-66316666D01*
X169083333Y-66216666D01*
X169016666Y-66150000D01*
X168950000Y-66116666D01*
X168816666Y-66083333D01*
X168716666Y-66083333D01*
X168583333Y-66116666D01*
X168516666Y-66150000D01*
X168450000Y-66216666D01*
X168416666Y-66316666D01*
X168416666Y-66383333D01*
X168450000Y-66483333D01*
X168483333Y-66516666D01*
X169116666Y-66816666D02*
X168416666Y-66816666D01*
X169116666Y-67216666D02*
X168716666Y-66916666D01*
X168416666Y-67216666D02*
X168816666Y-66816666D01*
X168750000Y-68816666D02*
X168783333Y-68916666D01*
X168816666Y-68950000D01*
X168883333Y-68983333D01*
X168983333Y-68983333D01*
X169050000Y-68950000D01*
X169083333Y-68916666D01*
X169116666Y-68850000D01*
X169116666Y-68583333D01*
X168416666Y-68583333D01*
X168416666Y-68816666D01*
X168450000Y-68883333D01*
X168483333Y-68916666D01*
X168550000Y-68950000D01*
X168616666Y-68950000D01*
X168683333Y-68916666D01*
X168716666Y-68883333D01*
X168750000Y-68816666D01*
X168750000Y-68583333D01*
X169116666Y-69650000D02*
X169116666Y-69250000D01*
X169116666Y-69450000D02*
X168416666Y-69450000D01*
X168516666Y-69383333D01*
X168583333Y-69316666D01*
X168616666Y-69250000D01*
X168650000Y-70250000D02*
X169116666Y-70250000D01*
X168383333Y-70083333D02*
X168883333Y-69916666D01*
X168883333Y-70350000D01*
X170316666Y-64066666D02*
X169616666Y-64066666D01*
X169616666Y-64233333D01*
X169650000Y-64333333D01*
X169716666Y-64400000D01*
X169783333Y-64433333D01*
X169916666Y-64466666D01*
X170016666Y-64466666D01*
X170150000Y-64433333D01*
X170216666Y-64400000D01*
X170283333Y-64333333D01*
X170316666Y-64233333D01*
X170316666Y-64066666D01*
X170116666Y-64733333D02*
X170116666Y-65066666D01*
X170316666Y-64666666D02*
X169616666Y-64900000D01*
X170316666Y-65133333D01*
X169616666Y-65266666D02*
X169616666Y-65666666D01*
X170316666Y-65466666D02*
X169616666Y-65466666D01*
X170116666Y-65866666D02*
X170116666Y-66200000D01*
X170316666Y-65800000D02*
X169616666Y-66033333D01*
X170316666Y-66266666D01*
X169950000Y-68866666D02*
X169983333Y-68966666D01*
X170016666Y-69000000D01*
X170083333Y-69033333D01*
X170183333Y-69033333D01*
X170250000Y-69000000D01*
X170283333Y-68966666D01*
X170316666Y-68900000D01*
X170316666Y-68633333D01*
X169616666Y-68633333D01*
X169616666Y-68866666D01*
X169650000Y-68933333D01*
X169683333Y-68966666D01*
X169750000Y-69000000D01*
X169816666Y-69000000D01*
X169883333Y-68966666D01*
X169916666Y-68933333D01*
X169950000Y-68866666D01*
X169950000Y-68633333D01*
X170316666Y-69700000D02*
X170316666Y-69300000D01*
X170316666Y-69500000D02*
X169616666Y-69500000D01*
X169716666Y-69433333D01*
X169783333Y-69366666D01*
X169816666Y-69300000D01*
X169616666Y-69933333D02*
X169616666Y-70366666D01*
X169883333Y-70133333D01*
X169883333Y-70233333D01*
X169916666Y-70300000D01*
X169950000Y-70333333D01*
X170016666Y-70366666D01*
X170183333Y-70366666D01*
X170250000Y-70333333D01*
X170283333Y-70300000D01*
X170316666Y-70233333D01*
X170316666Y-70033333D01*
X170283333Y-69966666D01*
X170250000Y-69933333D01*
X171516666Y-64316666D02*
X171516666Y-63983333D01*
X170816666Y-63983333D01*
X171316666Y-64516666D02*
X171316666Y-64850000D01*
X171516666Y-64450000D02*
X170816666Y-64683333D01*
X171516666Y-64916666D01*
X170816666Y-65050000D02*
X170816666Y-65450000D01*
X171516666Y-65250000D02*
X170816666Y-65250000D01*
X171450000Y-66083333D02*
X171483333Y-66050000D01*
X171516666Y-65950000D01*
X171516666Y-65883333D01*
X171483333Y-65783333D01*
X171416666Y-65716666D01*
X171350000Y-65683333D01*
X171216666Y-65650000D01*
X171116666Y-65650000D01*
X170983333Y-65683333D01*
X170916666Y-65716666D01*
X170850000Y-65783333D01*
X170816666Y-65883333D01*
X170816666Y-65950000D01*
X170850000Y-66050000D01*
X170883333Y-66083333D01*
X171516666Y-66383333D02*
X170816666Y-66383333D01*
X171150000Y-66383333D02*
X171150000Y-66783333D01*
X171516666Y-66783333D02*
X170816666Y-66783333D01*
X171150000Y-68950000D02*
X171183333Y-69050000D01*
X171216666Y-69083333D01*
X171283333Y-69116666D01*
X171383333Y-69116666D01*
X171450000Y-69083333D01*
X171483333Y-69050000D01*
X171516666Y-68983333D01*
X171516666Y-68716666D01*
X170816666Y-68716666D01*
X170816666Y-68950000D01*
X170850000Y-69016666D01*
X170883333Y-69050000D01*
X170950000Y-69083333D01*
X171016666Y-69083333D01*
X171083333Y-69050000D01*
X171116666Y-69016666D01*
X171150000Y-68950000D01*
X171150000Y-68716666D01*
X171516666Y-69783333D02*
X171516666Y-69383333D01*
X171516666Y-69583333D02*
X170816666Y-69583333D01*
X170916666Y-69516666D01*
X170983333Y-69450000D01*
X171016666Y-69383333D01*
X170883333Y-70050000D02*
X170850000Y-70083333D01*
X170816666Y-70150000D01*
X170816666Y-70316666D01*
X170850000Y-70383333D01*
X170883333Y-70416666D01*
X170950000Y-70450000D01*
X171016666Y-70450000D01*
X171116666Y-70416666D01*
X171516666Y-70016666D01*
X171516666Y-70450000D01*
D11*
X165200000Y-62400000D02*
X165200000Y-87600000D01*
X173800000Y-87600000D02*
X165200000Y-87600000D01*
X173800000Y-62400000D02*
X173800000Y-87600000D01*
X165200000Y-62400000D02*
X173800000Y-62400000D01*
D10*
X141133333Y-63533333D02*
X140900000Y-63866666D01*
X140733333Y-63533333D02*
X140733333Y-64233333D01*
X141000000Y-64233333D01*
X141066666Y-64200000D01*
X141100000Y-64166666D01*
X141133333Y-64100000D01*
X141133333Y-64000000D01*
X141100000Y-63933333D01*
X141066666Y-63900000D01*
X141000000Y-63866666D01*
X140733333Y-63866666D01*
X141833333Y-63600000D02*
X141800000Y-63566666D01*
X141700000Y-63533333D01*
X141633333Y-63533333D01*
X141533333Y-63566666D01*
X141466666Y-63633333D01*
X141433333Y-63700000D01*
X141400000Y-63833333D01*
X141400000Y-63933333D01*
X141433333Y-64066666D01*
X141466666Y-64133333D01*
X141533333Y-64200000D01*
X141633333Y-64233333D01*
X141700000Y-64233333D01*
X141800000Y-64200000D01*
X141833333Y-64166666D01*
X142466666Y-63533333D02*
X142133333Y-63533333D01*
X142133333Y-64233333D01*
X142600000Y-64233333D02*
X143000000Y-64233333D01*
X142800000Y-63533333D02*
X142800000Y-64233333D01*
X144266666Y-64266666D02*
X143666666Y-63366666D01*
X145033333Y-63533333D02*
X145033333Y-64233333D01*
X145433333Y-63533333D01*
X145433333Y-64233333D01*
X145733333Y-63566666D02*
X145833333Y-63533333D01*
X146000000Y-63533333D01*
X146066666Y-63566666D01*
X146100000Y-63600000D01*
X146133333Y-63666666D01*
X146133333Y-63733333D01*
X146100000Y-63800000D01*
X146066666Y-63833333D01*
X146000000Y-63866666D01*
X145866666Y-63900000D01*
X145800000Y-63933333D01*
X145766666Y-63966666D01*
X145733333Y-64033333D01*
X145733333Y-64100000D01*
X145766666Y-64166666D01*
X145800000Y-64200000D01*
X145866666Y-64233333D01*
X146033333Y-64233333D01*
X146133333Y-64200000D01*
X146400000Y-63566666D02*
X146500000Y-63533333D01*
X146666666Y-63533333D01*
X146733333Y-63566666D01*
X146766666Y-63600000D01*
X146800000Y-63666666D01*
X146800000Y-63733333D01*
X146766666Y-63800000D01*
X146733333Y-63833333D01*
X146666666Y-63866666D01*
X146533333Y-63900000D01*
X146466666Y-63933333D01*
X146433333Y-63966666D01*
X146400000Y-64033333D01*
X146400000Y-64100000D01*
X146433333Y-64166666D01*
X146466666Y-64200000D01*
X146533333Y-64233333D01*
X146700000Y-64233333D01*
X146800000Y-64200000D01*
X143133333Y-62700000D02*
X143233333Y-62666666D01*
X143266666Y-62633333D01*
X143300000Y-62566666D01*
X143300000Y-62466666D01*
X143266666Y-62400000D01*
X143233333Y-62366666D01*
X143166666Y-62333333D01*
X142900000Y-62333333D01*
X142900000Y-63033333D01*
X143133333Y-63033333D01*
X143200000Y-63000000D01*
X143233333Y-62966666D01*
X143266666Y-62900000D01*
X143266666Y-62833333D01*
X143233333Y-62766666D01*
X143200000Y-62733333D01*
X143133333Y-62700000D01*
X142900000Y-62700000D01*
X143966666Y-62333333D02*
X143566666Y-62333333D01*
X143766666Y-62333333D02*
X143766666Y-63033333D01*
X143700000Y-62933333D01*
X143633333Y-62866666D01*
X143566666Y-62833333D01*
X144600000Y-63033333D02*
X144266666Y-63033333D01*
X144233333Y-62700000D01*
X144266666Y-62733333D01*
X144333333Y-62766666D01*
X144500000Y-62766666D01*
X144566666Y-62733333D01*
X144600000Y-62700000D01*
X144633333Y-62633333D01*
X144633333Y-62466666D01*
X144600000Y-62400000D01*
X144566666Y-62366666D01*
X144500000Y-62333333D01*
X144333333Y-62333333D01*
X144266666Y-62366666D01*
X144233333Y-62400000D01*
X133450000Y-63783333D02*
X133216666Y-64116666D01*
X133050000Y-63783333D02*
X133050000Y-64483333D01*
X133316666Y-64483333D01*
X133383333Y-64450000D01*
X133416666Y-64416666D01*
X133450000Y-64350000D01*
X133450000Y-64250000D01*
X133416666Y-64183333D01*
X133383333Y-64150000D01*
X133316666Y-64116666D01*
X133050000Y-64116666D01*
X133983333Y-64150000D02*
X133750000Y-64150000D01*
X133750000Y-63783333D02*
X133750000Y-64483333D01*
X134083333Y-64483333D01*
X134350000Y-63783333D02*
X134350000Y-64483333D01*
X134583333Y-63983333D01*
X134816666Y-64483333D01*
X134816666Y-63783333D01*
X135183333Y-63783333D02*
X135316666Y-63783333D01*
X135383333Y-63816666D01*
X135416666Y-63850000D01*
X135483333Y-63950000D01*
X135516666Y-64083333D01*
X135516666Y-64350000D01*
X135483333Y-64416666D01*
X135450000Y-64450000D01*
X135383333Y-64483333D01*
X135250000Y-64483333D01*
X135183333Y-64450000D01*
X135150000Y-64416666D01*
X135116666Y-64350000D01*
X135116666Y-64183333D01*
X135150000Y-64116666D01*
X135183333Y-64083333D01*
X135250000Y-64050000D01*
X135383333Y-64050000D01*
X135450000Y-64083333D01*
X135483333Y-64116666D01*
X135516666Y-64183333D01*
X136150000Y-64483333D02*
X135816666Y-64483333D01*
X135783333Y-64150000D01*
X135816666Y-64183333D01*
X135883333Y-64216666D01*
X136050000Y-64216666D01*
X136116666Y-64183333D01*
X136150000Y-64150000D01*
X136183333Y-64083333D01*
X136183333Y-63916666D01*
X136150000Y-63850000D01*
X136116666Y-63816666D01*
X136050000Y-63783333D01*
X135883333Y-63783333D01*
X135816666Y-63816666D01*
X135783333Y-63850000D01*
X136416666Y-64483333D02*
X136583333Y-63783333D01*
X136716666Y-64283333D01*
X136850000Y-63783333D01*
X137016666Y-64483333D01*
X133100000Y-62583333D02*
X133233333Y-62583333D01*
X133300000Y-62616666D01*
X133333333Y-62650000D01*
X133400000Y-62750000D01*
X133433333Y-62883333D01*
X133433333Y-63150000D01*
X133400000Y-63216666D01*
X133366666Y-63250000D01*
X133300000Y-63283333D01*
X133166666Y-63283333D01*
X133100000Y-63250000D01*
X133066666Y-63216666D01*
X133033333Y-63150000D01*
X133033333Y-62983333D01*
X133066666Y-62916666D01*
X133100000Y-62883333D01*
X133166666Y-62850000D01*
X133300000Y-62850000D01*
X133366666Y-62883333D01*
X133400000Y-62916666D01*
X133433333Y-62983333D01*
X134100000Y-62583333D02*
X133700000Y-62583333D01*
X133900000Y-62583333D02*
X133900000Y-63283333D01*
X133833333Y-63183333D01*
X133766666Y-63116666D01*
X133700000Y-63083333D01*
X134733333Y-63283333D02*
X134400000Y-63283333D01*
X134366666Y-62950000D01*
X134400000Y-62983333D01*
X134466666Y-63016666D01*
X134633333Y-63016666D01*
X134700000Y-62983333D01*
X134733333Y-62950000D01*
X134766666Y-62883333D01*
X134766666Y-62716666D01*
X134733333Y-62650000D01*
X134700000Y-62616666D01*
X134633333Y-62583333D01*
X134466666Y-62583333D01*
X134400000Y-62616666D01*
X134366666Y-62650000D01*
X135066666Y-62583333D02*
X135066666Y-63283333D01*
X135300000Y-62783333D01*
X135533333Y-63283333D01*
X135533333Y-62583333D01*
X135866666Y-62583333D02*
X135866666Y-63283333D01*
X135866666Y-62950000D02*
X136266666Y-62950000D01*
X136266666Y-62583333D02*
X136266666Y-63283333D01*
X136533333Y-63283333D02*
X137000000Y-63283333D01*
X136533333Y-62583333D01*
X137000000Y-62583333D01*
D11*
X131750000Y-61750000D02*
X131750000Y-65500000D01*
X148250000Y-61750000D02*
X131750000Y-61750000D01*
X148250000Y-65500000D02*
X148250000Y-61750000D01*
X131750000Y-65500000D02*
X148250000Y-65500000D01*
D12*
X114678571Y-59096428D02*
X114678571Y-60596428D01*
X115035714Y-60596428D01*
X115250000Y-60525000D01*
X115392857Y-60382142D01*
X115464285Y-60239285D01*
X115535714Y-59953571D01*
X115535714Y-59739285D01*
X115464285Y-59453571D01*
X115392857Y-59310714D01*
X115250000Y-59167857D01*
X115035714Y-59096428D01*
X114678571Y-59096428D01*
X117035714Y-59239285D02*
X116964285Y-59167857D01*
X116750000Y-59096428D01*
X116607142Y-59096428D01*
X116392857Y-59167857D01*
X116250000Y-59310714D01*
X116178571Y-59453571D01*
X116107142Y-59739285D01*
X116107142Y-59953571D01*
X116178571Y-60239285D01*
X116250000Y-60382142D01*
X116392857Y-60525000D01*
X116607142Y-60596428D01*
X116750000Y-60596428D01*
X116964285Y-60525000D01*
X117035714Y-60453571D01*
X117678571Y-59667857D02*
X118821428Y-59667857D01*
X119535714Y-59096428D02*
X119535714Y-60596428D01*
X119892857Y-60596428D01*
X120107142Y-60525000D01*
X120250000Y-60382142D01*
X120321428Y-60239285D01*
X120392857Y-59953571D01*
X120392857Y-59739285D01*
X120321428Y-59453571D01*
X120250000Y-59310714D01*
X120107142Y-59167857D01*
X119892857Y-59096428D01*
X119535714Y-59096428D01*
X121892857Y-59239285D02*
X121821428Y-59167857D01*
X121607142Y-59096428D01*
X121464285Y-59096428D01*
X121250000Y-59167857D01*
X121107142Y-59310714D01*
X121035714Y-59453571D01*
X120964285Y-59739285D01*
X120964285Y-59953571D01*
X121035714Y-60239285D01*
X121107142Y-60382142D01*
X121250000Y-60525000D01*
X121464285Y-60596428D01*
X121607142Y-60596428D01*
X121821428Y-60525000D01*
X121892857Y-60453571D01*
X112071428Y-56617857D02*
X112285714Y-56546428D01*
X112642857Y-56546428D01*
X112785714Y-56617857D01*
X112857142Y-56689285D01*
X112928571Y-56832142D01*
X112928571Y-56975000D01*
X112857142Y-57117857D01*
X112785714Y-57189285D01*
X112642857Y-57260714D01*
X112357142Y-57332142D01*
X112214285Y-57403571D01*
X112142857Y-57475000D01*
X112071428Y-57617857D01*
X112071428Y-57760714D01*
X112142857Y-57903571D01*
X112214285Y-57975000D01*
X112357142Y-58046428D01*
X112714285Y-58046428D01*
X112928571Y-57975000D01*
X113357142Y-58046428D02*
X114214285Y-58046428D01*
X113785714Y-56546428D02*
X113785714Y-58046428D01*
X114714285Y-57332142D02*
X115214285Y-57332142D01*
X115428571Y-56546428D02*
X114714285Y-56546428D01*
X114714285Y-58046428D01*
X115428571Y-58046428D01*
X116071428Y-56546428D02*
X116071428Y-58046428D01*
X116642857Y-58046428D01*
X116785714Y-57975000D01*
X116857142Y-57903571D01*
X116928571Y-57760714D01*
X116928571Y-57546428D01*
X116857142Y-57403571D01*
X116785714Y-57332142D01*
X116642857Y-57260714D01*
X116071428Y-57260714D01*
X118714285Y-56546428D02*
X118714285Y-58046428D01*
X119071428Y-58046428D01*
X119285714Y-57975000D01*
X119428571Y-57832142D01*
X119500000Y-57689285D01*
X119571428Y-57403571D01*
X119571428Y-57189285D01*
X119500000Y-56903571D01*
X119428571Y-56760714D01*
X119285714Y-56617857D01*
X119071428Y-56546428D01*
X118714285Y-56546428D01*
X120500000Y-58046428D02*
X120785714Y-58046428D01*
X120928571Y-57975000D01*
X121071428Y-57832142D01*
X121142857Y-57546428D01*
X121142857Y-57046428D01*
X121071428Y-56760714D01*
X120928571Y-56617857D01*
X120785714Y-56546428D01*
X120500000Y-56546428D01*
X120357142Y-56617857D01*
X120214285Y-56760714D01*
X120142857Y-57046428D01*
X120142857Y-57546428D01*
X120214285Y-57832142D01*
X120357142Y-57975000D01*
X120500000Y-58046428D01*
X121642857Y-58046428D02*
X122000000Y-56546428D01*
X122285714Y-57617857D01*
X122571428Y-56546428D01*
X122928571Y-58046428D01*
X123500000Y-56546428D02*
X123500000Y-58046428D01*
X124357142Y-56546428D01*
X124357142Y-58046428D01*
D11*
X126500000Y-87000000D02*
X126500000Y-87500000D01*
X108000000Y-87000000D02*
X126500000Y-87000000D01*
X108000000Y-87500000D02*
X108000000Y-87000000D01*
X108000000Y-96000000D02*
X108000000Y-95000000D01*
X126500000Y-96000000D02*
X108000000Y-96000000D01*
X126500000Y-87250000D02*
X126500000Y-96000000D01*
X108000000Y-95250000D02*
X108000000Y-87250000D01*
D10*
X112183333Y-95200000D02*
X111950000Y-95200000D01*
X111850000Y-95566666D02*
X112183333Y-95566666D01*
X112183333Y-94866666D01*
X111850000Y-94866666D01*
X111550000Y-95200000D02*
X111316666Y-95200000D01*
X111216666Y-95566666D02*
X111550000Y-95566666D01*
X111550000Y-94866666D01*
X111216666Y-94866666D01*
X110916666Y-95566666D02*
X110916666Y-94866666D01*
X110650000Y-94866666D01*
X110583333Y-94900000D01*
X110550000Y-94933333D01*
X110516666Y-95000000D01*
X110516666Y-95100000D01*
X110550000Y-95166666D01*
X110583333Y-95200000D01*
X110650000Y-95233333D01*
X110916666Y-95233333D01*
X109816666Y-95566666D02*
X110050000Y-95233333D01*
X110216666Y-95566666D02*
X110216666Y-94866666D01*
X109950000Y-94866666D01*
X109883333Y-94900000D01*
X109850000Y-94933333D01*
X109816666Y-95000000D01*
X109816666Y-95100000D01*
X109850000Y-95166666D01*
X109883333Y-95200000D01*
X109950000Y-95233333D01*
X110216666Y-95233333D01*
X109383333Y-94866666D02*
X109250000Y-94866666D01*
X109183333Y-94900000D01*
X109116666Y-94966666D01*
X109083333Y-95100000D01*
X109083333Y-95333333D01*
X109116666Y-95466666D01*
X109183333Y-95533333D01*
X109250000Y-95566666D01*
X109383333Y-95566666D01*
X109450000Y-95533333D01*
X109516666Y-95466666D01*
X109550000Y-95333333D01*
X109550000Y-95100000D01*
X109516666Y-94966666D01*
X109450000Y-94900000D01*
X109383333Y-94866666D01*
X108783333Y-95566666D02*
X108783333Y-94866666D01*
X108550000Y-95366666D01*
X108316666Y-94866666D01*
X108316666Y-95566666D01*
D13*
X109173809Y-87278571D02*
X109211904Y-87392857D01*
X109211904Y-87583333D01*
X109173809Y-87659523D01*
X109135714Y-87697619D01*
X109059523Y-87735714D01*
X108983333Y-87735714D01*
X108907142Y-87697619D01*
X108869047Y-87659523D01*
X108830952Y-87583333D01*
X108792857Y-87430952D01*
X108754761Y-87354761D01*
X108716666Y-87316666D01*
X108640476Y-87278571D01*
X108564285Y-87278571D01*
X108488095Y-87316666D01*
X108450000Y-87354761D01*
X108411904Y-87430952D01*
X108411904Y-87621428D01*
X108450000Y-87735714D01*
X109211904Y-88078571D02*
X108411904Y-88078571D01*
X108411904Y-88269047D01*
X108450000Y-88383333D01*
X108526190Y-88459523D01*
X108602380Y-88497619D01*
X108754761Y-88535714D01*
X108869047Y-88535714D01*
X109021428Y-88497619D01*
X109097619Y-88459523D01*
X109173809Y-88383333D01*
X109211904Y-88269047D01*
X109211904Y-88078571D01*
X108983333Y-88840476D02*
X108983333Y-89221428D01*
X109211904Y-88764285D02*
X108411904Y-89030952D01*
X109211904Y-89297619D01*
X110092857Y-87926190D02*
X110130952Y-88040476D01*
X110169047Y-88078571D01*
X110245238Y-88116666D01*
X110359523Y-88116666D01*
X110435714Y-88078571D01*
X110473809Y-88040476D01*
X110511904Y-87964285D01*
X110511904Y-87659523D01*
X109711904Y-87659523D01*
X109711904Y-87926190D01*
X109750000Y-88002380D01*
X109788095Y-88040476D01*
X109864285Y-88078571D01*
X109940476Y-88078571D01*
X110016666Y-88040476D01*
X110054761Y-88002380D01*
X110092857Y-87926190D01*
X110092857Y-87659523D01*
X110511904Y-88497619D02*
X110511904Y-88650000D01*
X110473809Y-88726190D01*
X110435714Y-88764285D01*
X110321428Y-88840476D01*
X110169047Y-88878571D01*
X109864285Y-88878571D01*
X109788095Y-88840476D01*
X109750000Y-88802380D01*
X109711904Y-88726190D01*
X109711904Y-88573809D01*
X109750000Y-88497619D01*
X109788095Y-88459523D01*
X109864285Y-88421428D01*
X110054761Y-88421428D01*
X110130952Y-88459523D01*
X110169047Y-88497619D01*
X110207142Y-88573809D01*
X110207142Y-88726190D01*
X110169047Y-88802380D01*
X110130952Y-88840476D01*
X110054761Y-88878571D01*
X109173809Y-89547619D02*
X109211904Y-89661904D01*
X109211904Y-89852380D01*
X109173809Y-89928571D01*
X109135714Y-89966666D01*
X109059523Y-90004761D01*
X108983333Y-90004761D01*
X108907142Y-89966666D01*
X108869047Y-89928571D01*
X108830952Y-89852380D01*
X108792857Y-89700000D01*
X108754761Y-89623809D01*
X108716666Y-89585714D01*
X108640476Y-89547619D01*
X108564285Y-89547619D01*
X108488095Y-89585714D01*
X108450000Y-89623809D01*
X108411904Y-89700000D01*
X108411904Y-89890476D01*
X108450000Y-90004761D01*
X109135714Y-90804761D02*
X109173809Y-90766666D01*
X109211904Y-90652380D01*
X109211904Y-90576190D01*
X109173809Y-90461904D01*
X109097619Y-90385714D01*
X109021428Y-90347619D01*
X108869047Y-90309523D01*
X108754761Y-90309523D01*
X108602380Y-90347619D01*
X108526190Y-90385714D01*
X108450000Y-90461904D01*
X108411904Y-90576190D01*
X108411904Y-90652380D01*
X108450000Y-90766666D01*
X108488095Y-90804761D01*
X109211904Y-91528571D02*
X109211904Y-91147619D01*
X108411904Y-91147619D01*
X110092857Y-90176190D02*
X110130952Y-90290476D01*
X110169047Y-90328571D01*
X110245238Y-90366666D01*
X110359523Y-90366666D01*
X110435714Y-90328571D01*
X110473809Y-90290476D01*
X110511904Y-90214285D01*
X110511904Y-89909523D01*
X109711904Y-89909523D01*
X109711904Y-90176190D01*
X109750000Y-90252380D01*
X109788095Y-90290476D01*
X109864285Y-90328571D01*
X109940476Y-90328571D01*
X110016666Y-90290476D01*
X110054761Y-90252380D01*
X110092857Y-90176190D01*
X110092857Y-89909523D01*
X110054761Y-90823809D02*
X110016666Y-90747619D01*
X109978571Y-90709523D01*
X109902380Y-90671428D01*
X109864285Y-90671428D01*
X109788095Y-90709523D01*
X109750000Y-90747619D01*
X109711904Y-90823809D01*
X109711904Y-90976190D01*
X109750000Y-91052380D01*
X109788095Y-91090476D01*
X109864285Y-91128571D01*
X109902380Y-91128571D01*
X109978571Y-91090476D01*
X110016666Y-91052380D01*
X110054761Y-90976190D01*
X110054761Y-90823809D01*
X110092857Y-90747619D01*
X110130952Y-90709523D01*
X110207142Y-90671428D01*
X110359523Y-90671428D01*
X110435714Y-90709523D01*
X110473809Y-90747619D01*
X110511904Y-90823809D01*
X110511904Y-90976190D01*
X110473809Y-91052380D01*
X110435714Y-91090476D01*
X110359523Y-91128571D01*
X110207142Y-91128571D01*
X110130952Y-91090476D01*
X110092857Y-91052380D01*
X110054761Y-90976190D01*
D12*
X124178571Y-63914285D02*
X124178571Y-63200000D01*
X124892857Y-63128571D01*
X124821428Y-63200000D01*
X124750000Y-63342857D01*
X124750000Y-63700000D01*
X124821428Y-63842857D01*
X124892857Y-63914285D01*
X125035714Y-63985714D01*
X125392857Y-63985714D01*
X125535714Y-63914285D01*
X125607142Y-63842857D01*
X125678571Y-63700000D01*
X125678571Y-63342857D01*
X125607142Y-63200000D01*
X125535714Y-63128571D01*
X124178571Y-64414285D02*
X125678571Y-64914285D01*
X124178571Y-65414285D01*
X110578571Y-61600000D02*
X112078571Y-62100000D01*
X110578571Y-62600000D01*
X111935714Y-63957142D02*
X112007142Y-63885714D01*
X112078571Y-63671428D01*
X112078571Y-63528571D01*
X112007142Y-63314285D01*
X111864285Y-63171428D01*
X111721428Y-63100000D01*
X111435714Y-63028571D01*
X111221428Y-63028571D01*
X110935714Y-63100000D01*
X110792857Y-63171428D01*
X110650000Y-63314285D01*
X110578571Y-63528571D01*
X110578571Y-63671428D01*
X110650000Y-63885714D01*
X110721428Y-63957142D01*
X111935714Y-65457142D02*
X112007142Y-65385714D01*
X112078571Y-65171428D01*
X112078571Y-65028571D01*
X112007142Y-64814285D01*
X111864285Y-64671428D01*
X111721428Y-64600000D01*
X111435714Y-64528571D01*
X111221428Y-64528571D01*
X110935714Y-64600000D01*
X110792857Y-64671428D01*
X110650000Y-64814285D01*
X110578571Y-65028571D01*
X110578571Y-65171428D01*
X110650000Y-65385714D01*
X110721428Y-65457142D01*
X124450000Y-51657142D02*
X124378571Y-51514285D01*
X124378571Y-51300000D01*
X124450000Y-51085714D01*
X124592857Y-50942857D01*
X124735714Y-50871428D01*
X125021428Y-50800000D01*
X125235714Y-50800000D01*
X125521428Y-50871428D01*
X125664285Y-50942857D01*
X125807142Y-51085714D01*
X125878571Y-51300000D01*
X125878571Y-51442857D01*
X125807142Y-51657142D01*
X125735714Y-51728571D01*
X125235714Y-51728571D01*
X125235714Y-51442857D01*
X125878571Y-52371428D02*
X124378571Y-52371428D01*
X125878571Y-53228571D01*
X124378571Y-53228571D01*
X125878571Y-53942857D02*
X124378571Y-53942857D01*
X124378571Y-54300000D01*
X124450000Y-54514285D01*
X124592857Y-54657142D01*
X124735714Y-54728571D01*
X125021428Y-54800000D01*
X125235714Y-54800000D01*
X125521428Y-54728571D01*
X125664285Y-54657142D01*
X125807142Y-54514285D01*
X125878571Y-54300000D01*
X125878571Y-53942857D01*
X110250000Y-51657142D02*
X110178571Y-51514285D01*
X110178571Y-51300000D01*
X110250000Y-51085714D01*
X110392857Y-50942857D01*
X110535714Y-50871428D01*
X110821428Y-50800000D01*
X111035714Y-50800000D01*
X111321428Y-50871428D01*
X111464285Y-50942857D01*
X111607142Y-51085714D01*
X111678571Y-51300000D01*
X111678571Y-51442857D01*
X111607142Y-51657142D01*
X111535714Y-51728571D01*
X111035714Y-51728571D01*
X111035714Y-51442857D01*
X111678571Y-52371428D02*
X110178571Y-52371428D01*
X111678571Y-53228571D01*
X110178571Y-53228571D01*
X111678571Y-53942857D02*
X110178571Y-53942857D01*
X110178571Y-54300000D01*
X110250000Y-54514285D01*
X110392857Y-54657142D01*
X110535714Y-54728571D01*
X110821428Y-54800000D01*
X111035714Y-54800000D01*
X111321428Y-54728571D01*
X111464285Y-54657142D01*
X111607142Y-54514285D01*
X111678571Y-54300000D01*
X111678571Y-53942857D01*
D11*
X147800000Y-58800000D02*
X147800000Y-61400000D01*
X146200000Y-58800000D02*
X147800000Y-58800000D01*
X146200000Y-61400000D02*
X146200000Y-58800000D01*
X147800000Y-61400000D02*
X146200000Y-61400000D01*
X144800000Y-98200000D02*
G75*
G03X144800000Y-98200000I-200000J0D01*
G01*
X119082843Y-93800000D02*
G75*
G03X119082843Y-93800000I-282843J0D01*
G01*
D10*
G04 #@! TO.C,U6*
X145625000Y-97950000D02*
X145625000Y-97700000D01*
X153375000Y-97950000D02*
X153375000Y-97605000D01*
X153375000Y-86050000D02*
X153375000Y-86395000D01*
X145625000Y-86050000D02*
X145625000Y-86395000D01*
X145625000Y-97950000D02*
X153375000Y-97950000D01*
X145625000Y-86050000D02*
X153375000Y-86050000D01*
X145625000Y-97700000D02*
X143800000Y-97700000D01*
D14*
G04 #@! TO.C,R20*
X108290000Y-80738748D02*
X108290000Y-81261252D01*
X109710000Y-80738748D02*
X109710000Y-81261252D01*
G04 #@! TO.C,R21*
X115238748Y-79290000D02*
X115761252Y-79290000D01*
X115238748Y-80710000D02*
X115761252Y-80710000D01*
D10*
G04 #@! TO.C,U2*
X129098000Y-50000000D02*
X107000000Y-50000000D01*
X107000000Y-50000000D02*
X107000000Y-66764000D01*
X107000000Y-66764000D02*
X129098000Y-66764000D01*
X129098000Y-66764000D02*
X129098000Y-50000000D01*
D13*
G04 #@! TO.C,U4*
X148120000Y-60120000D02*
X148120000Y-52000000D01*
X131880000Y-46000000D02*
X131880000Y-43880000D01*
X131880000Y-43880000D02*
X132050000Y-43880000D01*
X131880000Y-60120000D02*
X131880000Y-58000000D01*
X131880000Y-60120000D02*
X132050000Y-60120000D01*
X148120000Y-46000000D02*
X148120000Y-43880000D01*
X148120000Y-43880000D02*
X147950000Y-43880000D01*
D10*
G04 #@! TO.C,U8*
X118075000Y-93175000D02*
X118025000Y-93175000D01*
X118075000Y-89025000D02*
X117930000Y-89025000D01*
X112925000Y-89025000D02*
X113070000Y-89025000D01*
X112925000Y-93175000D02*
X113070000Y-93175000D01*
X118075000Y-93175000D02*
X118075000Y-89025000D01*
X112925000Y-93175000D02*
X112925000Y-89025000D01*
X118025000Y-93175000D02*
X118025000Y-94575000D01*
G04 #@! TO.C,U6*
X143261904Y-96702380D02*
X143261904Y-97511904D01*
X143214285Y-97607142D01*
X143166666Y-97654761D01*
X143071428Y-97702380D01*
X142880952Y-97702380D01*
X142785714Y-97654761D01*
X142738095Y-97607142D01*
X142690476Y-97511904D01*
X142690476Y-96702380D01*
X141785714Y-96702380D02*
X141976190Y-96702380D01*
X142071428Y-96750000D01*
X142119047Y-96797619D01*
X142214285Y-96940476D01*
X142261904Y-97130952D01*
X142261904Y-97511904D01*
X142214285Y-97607142D01*
X142166666Y-97654761D01*
X142071428Y-97702380D01*
X141880952Y-97702380D01*
X141785714Y-97654761D01*
X141738095Y-97607142D01*
X141690476Y-97511904D01*
X141690476Y-97273809D01*
X141738095Y-97178571D01*
X141785714Y-97130952D01*
X141880952Y-97083333D01*
X142071428Y-97083333D01*
X142166666Y-97130952D01*
X142214285Y-97178571D01*
X142261904Y-97273809D01*
G04 #@! TO.C,R20*
X111452380Y-80357142D02*
X110976190Y-80023809D01*
X111452380Y-79785714D02*
X110452380Y-79785714D01*
X110452380Y-80166666D01*
X110500000Y-80261904D01*
X110547619Y-80309523D01*
X110642857Y-80357142D01*
X110785714Y-80357142D01*
X110880952Y-80309523D01*
X110928571Y-80261904D01*
X110976190Y-80166666D01*
X110976190Y-79785714D01*
X110547619Y-80738095D02*
X110500000Y-80785714D01*
X110452380Y-80880952D01*
X110452380Y-81119047D01*
X110500000Y-81214285D01*
X110547619Y-81261904D01*
X110642857Y-81309523D01*
X110738095Y-81309523D01*
X110880952Y-81261904D01*
X111452380Y-80690476D01*
X111452380Y-81309523D01*
X110452380Y-81928571D02*
X110452380Y-82023809D01*
X110500000Y-82119047D01*
X110547619Y-82166666D01*
X110642857Y-82214285D01*
X110833333Y-82261904D01*
X111071428Y-82261904D01*
X111261904Y-82214285D01*
X111357142Y-82166666D01*
X111404761Y-82119047D01*
X111452380Y-82023809D01*
X111452380Y-81928571D01*
X111404761Y-81833333D01*
X111357142Y-81785714D01*
X111261904Y-81738095D01*
X111071428Y-81690476D01*
X110833333Y-81690476D01*
X110642857Y-81738095D01*
X110547619Y-81785714D01*
X110500000Y-81833333D01*
X110452380Y-81928571D01*
G04 #@! TO.C,R21*
X116142857Y-78952380D02*
X116476190Y-78476190D01*
X116714285Y-78952380D02*
X116714285Y-77952380D01*
X116333333Y-77952380D01*
X116238095Y-78000000D01*
X116190476Y-78047619D01*
X116142857Y-78142857D01*
X116142857Y-78285714D01*
X116190476Y-78380952D01*
X116238095Y-78428571D01*
X116333333Y-78476190D01*
X116714285Y-78476190D01*
X115761904Y-78047619D02*
X115714285Y-78000000D01*
X115619047Y-77952380D01*
X115380952Y-77952380D01*
X115285714Y-78000000D01*
X115238095Y-78047619D01*
X115190476Y-78142857D01*
X115190476Y-78238095D01*
X115238095Y-78380952D01*
X115809523Y-78952380D01*
X115190476Y-78952380D01*
X114238095Y-78952380D02*
X114809523Y-78952380D01*
X114523809Y-78952380D02*
X114523809Y-77952380D01*
X114619047Y-78095238D01*
X114714285Y-78190476D01*
X114809523Y-78238095D01*
G04 #@! TO.C,U2*
X111761904Y-48422380D02*
X111761904Y-49231904D01*
X111714285Y-49327142D01*
X111666666Y-49374761D01*
X111571428Y-49422380D01*
X111380952Y-49422380D01*
X111285714Y-49374761D01*
X111238095Y-49327142D01*
X111190476Y-49231904D01*
X111190476Y-48422380D01*
X110761904Y-48517619D02*
X110714285Y-48470000D01*
X110619047Y-48422380D01*
X110380952Y-48422380D01*
X110285714Y-48470000D01*
X110238095Y-48517619D01*
X110190476Y-48612857D01*
X110190476Y-48708095D01*
X110238095Y-48850952D01*
X110809523Y-49422380D01*
X110190476Y-49422380D01*
G04 #@! TO.C,U4*
X139452380Y-51238095D02*
X140261904Y-51238095D01*
X140357142Y-51285714D01*
X140404761Y-51333333D01*
X140452380Y-51428571D01*
X140452380Y-51619047D01*
X140404761Y-51714285D01*
X140357142Y-51761904D01*
X140261904Y-51809523D01*
X139452380Y-51809523D01*
X139785714Y-52714285D02*
X140452380Y-52714285D01*
X139404761Y-52476190D02*
X140119047Y-52238095D01*
X140119047Y-52857142D01*
G04 #@! TO.C,U8*
X118452380Y-90338095D02*
X119261904Y-90338095D01*
X119357142Y-90385714D01*
X119404761Y-90433333D01*
X119452380Y-90528571D01*
X119452380Y-90719047D01*
X119404761Y-90814285D01*
X119357142Y-90861904D01*
X119261904Y-90909523D01*
X118452380Y-90909523D01*
X118880952Y-91528571D02*
X118833333Y-91433333D01*
X118785714Y-91385714D01*
X118690476Y-91338095D01*
X118642857Y-91338095D01*
X118547619Y-91385714D01*
X118500000Y-91433333D01*
X118452380Y-91528571D01*
X118452380Y-91719047D01*
X118500000Y-91814285D01*
X118547619Y-91861904D01*
X118642857Y-91909523D01*
X118690476Y-91909523D01*
X118785714Y-91861904D01*
X118833333Y-91814285D01*
X118880952Y-91719047D01*
X118880952Y-91528571D01*
X118928571Y-91433333D01*
X118976190Y-91385714D01*
X119071428Y-91338095D01*
X119261904Y-91338095D01*
X119357142Y-91385714D01*
X119404761Y-91433333D01*
X119452380Y-91528571D01*
X119452380Y-91719047D01*
X119404761Y-91814285D01*
X119357142Y-91861904D01*
X119261904Y-91909523D01*
X119071428Y-91909523D01*
X118976190Y-91861904D01*
X118928571Y-91814285D01*
X118880952Y-91719047D01*
G04 #@! TD*
M02*
