M48
;DRILL file {KiCad 5.0.2} date qui 25 jul 2019 16:38:10 -03
;FORMAT={-:-/ absolute / inch / decimal}
FMAT,2
INCH,TZ
T1C0.0157
T2C0.0300
T3C0.0315
T4C0.0394
T5C0.0400
T6C0.0433
T7C0.0472
T8C0.0512
T9C0.0551
T10C0.0591
T11C0.1378
%
G90
G05
T1
X4.2126Y-3.7402
X4.252Y-4.1417
X4.2598Y-3.9921
X4.2913Y-2.2835
X4.3622Y-3.0157
X4.4085Y-3.0787
X4.5098Y-2.3622
X4.5148Y-3.5433
X4.5876Y-3.2047
X4.6693Y-2.9685
X4.7441Y-2.2835
X4.748Y-2.6094
X4.748Y-3.0945
X5.1575Y-1.6457
X5.1575Y-2.6969
X5.2047Y-2.4882
X5.252Y-3.622
X5.2677Y-4.4016
X5.2982Y-3.2234
X5.4094Y-2.9114
X5.4646Y-2.9114
X5.4724Y-2.2835
X5.4803Y-2.4941
X5.5906Y-1.9291
X5.6142Y-1.8819
X5.7008Y-1.6535
X5.748Y-2.4882
X5.7766Y-3.0482
X5.9134Y-2.3465
X5.937Y-3.4724
X5.9862Y-2.4567
X6.0157Y-2.1102
X6.0315Y-2.0551
X6.0709Y-2.0079
X6.1654Y-2.1654
X6.2209Y-3.472
X6.226Y-3.522
X6.2283Y-3.3386
X6.2311Y-3.572
X6.2362Y-3.622
X6.2677Y-3.3071
X6.3268Y-3.3022
X6.3858Y-3.0787
X6.3858Y-3.164
X6.4173Y-3.2126
X6.4232Y-3.114
X6.4377Y-2.8063
X6.4803Y-2.6142
X6.5039Y-2.7087
X6.565Y-4.1831
X6.5906Y-4.0709
X6.6693Y-3.6299
X6.7165Y-3.6299
X6.7717Y-3.6299
X6.7772Y-2.3858
X6.8504Y-3.2126
X6.8504Y-3.4488
X6.8583Y-4.0157
X6.9291Y-3.0157
X6.9291Y-3.315
X6.9331Y-3.3622
X6.9843Y-3.164
X7.0157Y-4.1654
X7.0394Y-3.114
X7.0394Y-4.4016
X7.0433Y-2.7795
X7.0669Y-4.2421
X7.0866Y-3.063
X7.0866Y-3.2126
X7.1496Y-2.6142
X7.1732Y-2.6535
X7.2047Y-3.4331
X7.2205Y-2.6142
X7.2717Y-2.9598
X7.2913Y-3.315
X7.2913Y-3.3622
X7.315Y-4.3543
X7.3465Y-2.4567
X7.4252Y-2.7598
X7.4252Y-2.811
X7.4252Y-2.8583
X7.4252Y-2.9094
X7.4488Y-4.4016
X7.5167Y-2.937
X7.5433Y-2.7559
X7.6378Y-4.252
X7.6772Y-3.4252
X7.7953Y-3.3465
X7.811Y-2.8268
T2
X6.7323Y-4.2213
X6.7323Y-4.2913
X4.7528Y-3.6181
X4.8228Y-3.6181
X4.7528Y-3.7205
X4.8228Y-3.7205
X4.7528Y-3.4843
X4.8228Y-3.4843
T3
X5.3937Y-4.2913
X5.6299Y-4.2913
T4
X5.3937Y-4.3898
X5.3937Y-4.4882
X5.6299Y-4.3898
X5.6299Y-4.4882
X5.3102Y-3.0512
X5.4102Y-3.0512
X5.5102Y-3.0512
X5.6102Y-3.0512
X7.9528Y-1.9646
X7.9528Y-2.0646
X7.9528Y-2.1646
X7.9528Y-2.2646
X7.9528Y-2.3646
X7.9528Y-2.4646
X7.9528Y-2.9646
X7.9528Y-3.0646
X7.9528Y-3.1646
X7.9528Y-3.2646
X7.9528Y-3.3646
X7.9528Y-3.4646
X5.5512Y-2.8543
X5.6512Y-2.8543
X5.7512Y-2.8543
X6.5157Y-3.6772
X6.5157Y-3.9764
X7.152Y-4.177
X7.1552Y-3.777
X7.252Y-3.777
X7.252Y-4.177
X7.352Y-3.777
X7.352Y-4.177
X7.452Y-3.777
X7.452Y-4.177
X7.552Y-3.777
X7.552Y-4.177
X7.652Y-3.777
X7.652Y-4.177
X4.2126Y-2.8346
X4.2126Y-2.9346
X4.3126Y-2.8346
X4.3126Y-2.9346
X4.4126Y-2.8346
X4.4126Y-2.9346
X4.5126Y-2.8346
X4.5126Y-2.9346
T5
X4.2075Y-3.322
X4.2075Y-3.922
X4.3075Y-3.322
X4.3075Y-3.922
X4.4075Y-3.322
X4.4075Y-3.922
X4.5075Y-3.322
X4.5075Y-3.922
X4.6075Y-3.322
X4.6075Y-3.922
X4.7075Y-3.322
X4.7075Y-3.922
X4.8075Y-3.322
X4.8075Y-3.922
X4.9075Y-3.322
X4.9075Y-3.922
X5.0075Y-3.322
X5.0075Y-3.922
X5.1075Y-3.322
X5.1075Y-3.922
X5.2075Y-3.322
X5.2075Y-3.922
X5.3075Y-3.322
X5.3075Y-3.922
X5.4075Y-3.322
X5.4075Y-3.922
X5.5075Y-3.322
X5.5075Y-3.922
X5.6075Y-3.322
X5.6075Y-3.922
X5.7075Y-3.322
X5.7075Y-3.922
X5.8075Y-3.322
X5.8075Y-3.922
X5.9075Y-3.322
X5.9075Y-3.922
X6.0075Y-3.322
X6.0075Y-3.922
X6.1075Y-3.322
X6.1075Y-3.922
T6
X4.9213Y-4.3307
X4.9213Y-4.5079
X5.1772Y-4.3307
X5.1772Y-4.5079
X4.4685Y-4.3307
X4.4685Y-4.5079
X4.7244Y-4.3307
X4.7244Y-4.5079
T7
X6.0236Y-1.8898
X6.1236Y-1.8898
X6.2236Y-1.8898
X6.3236Y-1.8898
X6.0236Y-2.6378
X6.1236Y-2.6378
X6.2236Y-2.6378
X6.3236Y-2.6378
X7.126Y-2.2441
X7.226Y-2.2441
X7.326Y-2.2441
X7.426Y-2.2441
X7.526Y-2.2441
X7.626Y-2.2441
X6.5748Y-1.8898
X6.6748Y-1.8898
X6.7748Y-1.8898
X6.8748Y-1.8898
X5.2756Y-2.6378
X5.3756Y-2.6378
X5.4756Y-2.6378
X5.5756Y-2.6378
X5.6756Y-2.6378
X5.7756Y-2.6378
X6.5748Y-2.2441
X6.6748Y-2.2441
X6.7748Y-2.2441
X6.8748Y-2.2441
X7.126Y-1.8898
X7.226Y-1.8898
X7.326Y-1.8898
X7.426Y-1.8898
X7.526Y-1.8898
X7.626Y-1.8898
X6.0236Y-2.2441
X6.1236Y-2.2441
X6.2236Y-2.2441
X6.3236Y-2.2441
X4.5276Y-1.7717
X4.6654Y-1.7717
X6.0236Y-2.9921
X6.1236Y-2.9921
X6.2236Y-2.9921
X6.3236Y-2.9921
T8
X4.8602Y-1.7106
X4.8602Y-1.9114
X4.9606Y-1.811
X5.061Y-1.7106
X5.061Y-1.9114
T9
X5.9842Y-4.3701
X6.378Y-4.3701
T10
X6.1811Y-4.3701
T11
X4.252Y-4.4094
X7.874Y-1.7717
X4.252Y-1.7717
X7.874Y-4.4094
T0
M30
